STARTFONT 2.3
FONT -FontForge-Monofett-Book-R-Normal--32-320-72-72-P-181-ISO10646-1
SIZE 32 72 72  2
FONTBOUNDINGBOX 21 37 0 -5
COMMENT "Generated by fontforge, http://fontforge.sourceforge.net"
COMMENT "Copyright (c) 2011 by vernon adams. All rights reserved."
STARTPROPERTIES 41
FOUNDRY "FontForge"
FAMILY_NAME "Monofett"
WEIGHT_NAME "Book"
SLANT "R"
SETWIDTH_NAME "Normal"
ADD_STYLE_NAME ""
PIXEL_SIZE 32
POINT_SIZE 320
RESOLUTION_X 72
RESOLUTION_Y 72
SPACING "P"
AVERAGE_WIDTH 181
CHARSET_REGISTRY "ISO10646"
CHARSET_ENCODING "1"
FONTNAME_REGISTRY ""
CHARSET_COLLECTIONS "ISO8859-2 ISO8859-9 ISO8859-4 ISO10646-1"
BITS_PER_PIXEL 2
FONT_NAME "Monofett"
FACE_NAME "Monofett"
COPYRIGHT "Copyright (c) 2011 by vernon adams. All rights reserved."
FONT_VERSION "1.000"
FONT_ASCENT 26
FONT_DESCENT 6
UNDERLINE_POSITION -4
UNDERLINE_THICKNESS 1
X_HEIGHT 21
CAP_HEIGHT 21
RAW_ASCENT 799
RAW_DESCENT 200
NORM_SPACE 5
RELATIVE_WEIGHT 40
RELATIVE_SETWIDTH 50
SUPERSCRIPT_X 0
SUPERSCRIPT_Y 15
SUPERSCRIPT_SIZE 20
SUBSCRIPT_X 0
SUBSCRIPT_Y 4
SUBSCRIPT_SIZE 20
FIGURE_WIDTH 19
AVG_LOWERCASE_WIDTH 190
AVG_UPPERCASE_WIDTH 190
ENDPROPERTIES
CHARS 409
STARTCHAR uni000D
ENCODING 13
SWIDTH 144 0
DWIDTH 5 0
BBX 1 1 0 0
BITMAP
00
ENDCHAR
STARTCHAR space
ENCODING 32
SWIDTH 144 0
DWIDTH 5 0
BBX 1 1 0 0
BITMAP
00
ENDCHAR
STARTCHAR exclam
ENCODING 33
SWIDTH 424 0
DWIDTH 14 0
BBX 14 22 0 0
BITMAP
00154000
06FFF400
1FE0FE00
3FF0FF80
BFF0FFD0
FFF1FFE0
FFF1FFE0
FFF1FFE0
FFF5FFE0
FFF5FFE0
FFF6FFE0
FFF6FFE0
FFFFFFE0
FFFAFFE0
FFF0FFE0
FFFFFFE0
FFFFFFE0
FFFFFFD0
7FFFFFC0
2FFFFF40
0BFFFD00
01BFA000
ENDCHAR
STARTCHAR quotedbl
ENCODING 34
SWIDTH 424 0
DWIDTH 14 0
BBX 14 22 0 0
BITMAP
00154000
06FFF400
1FC53E00
3FC53F80
BFC53FD0
FFC53FE0
FFFFFFE0
FFFFFFE0
FFFFFFE0
FFFFFFE0
FFFFFFE0
FFFFFFE0
FFFFFFE0
FFFFFFE0
FFFFFFE0
FFFFFFE0
FFFFFFE0
FFFFFFD0
7FFFFFC0
2FFFFF40
0BFFFD00
01BFA000
ENDCHAR
STARTCHAR numbersign
ENCODING 35
SWIDTH 482 0
DWIDTH 15 0
BBX 16 22 0 0
BITMAP
00155400
06FFFF40
1FFFFFE0
3FFAEBF8
BFF1C7FC
FFD146FD
FF8002FD
FFE28BFE
FFD38BFE
FFD34FFE
FF924BFE
FF0003FE
FF860BFE
FFC71FFE
FFEFAFFE
FFFFFFFE
FFFFFFFD
FFFFFFFD
7FFFFFFC
2FFFFFF4
0BFFFFD0
01BFF900
ENDCHAR
STARTCHAR dollar
ENCODING 36
SWIDTH 578 0
DWIDTH 19 0
BBX 19 22 0 0
BITMAP
0015555000
06FFFFFD00
1FFF8FFF80
3FF545BFE0
BFD0001FF0
FFC78F0FF4
FFC78FAFF8
FFC78FFFF8
FFC145BFF8
FFE4001FF8
FFFF8F1FF8
FFFF8F1FF8
FFC78F1FF8
FFC1451FF8
FFE4007FF8
FFFF8FFFF8
FFFFDFFFF8
FFFFFFFFF4
7FFFFFFFF0
2FFFFFFFD0
0BFFFFFF40
01BFFFE800
ENDCHAR
STARTCHAR percent
ENCODING 37
SWIDTH 578 0
DWIDTH 19 0
BBX 19 22 0 0
BITMAP
0015555000
06FFFFFD00
1FFFFFFF80
3E02F1FFE0
BC60E2FFF0
F8B4D3FFF4
FC10C3FFF8
FE0287FFF8
FFFF8BFFF8
FFFF4E06F8
FFFF1C10F8
FFFE2C74F8
FFFD3C64F8
FFFC7D01F8
FFFFFFEBF8
FFFFFFFFF8
FFFFFFFFF8
FFFFFFFFF4
7FFFFFFFF0
2FFFFFFFD0
0BFFFFFF40
01BFFFE800
ENDCHAR
STARTCHAR ampersand
ENCODING 38
SWIDTH 578 0
DWIDTH 19 0
BBX 19 22 0 0
BITMAP
0015555000
06FFFFFD00
1FF8007F80
3FF055BFE0
BFE2FFFFF0
FFE2FFFFF4
FFE2FF8BF8
FFF46A47F8
FFFC0007F8
FFF1AA4BF8
FFE2FF8BF8
FFE2FF8BF8
FFE1FF4FF8
FFF0550FF8
FFF9006FF8
FFFFFFFFF8
FFFFFFFFF8
FFFFFFFFF4
7FFFFFFFF0
2FFFFFFFD0
0BFFFFFF40
01BFFFE800
ENDCHAR
STARTCHAR quotesingle
ENCODING 39
SWIDTH 424 0
DWIDTH 14 0
BBX 14 22 0 0
BITMAP
00154000
06FFF400
1FF1FE00
3FF1FF80
BFF1FFD0
FFF1FFE0
FFFFFFE0
FFFFFFE0
FFFFFFE0
FFFFFFE0
FFFFFFE0
FFFFFFE0
FFFFFFE0
FFFFFFE0
FFFFFFE0
FFFFFFE0
FFFFFFE0
FFFFFFD0
7FFFFFC0
2FFFFF40
0BFFFD00
01BFA000
ENDCHAR
STARTCHAR parenleft
ENCODING 40
SWIDTH 483 0
DWIDTH 15 0
BBX 16 22 0 0
BITMAP
00155400
06FFFF40
1FF40FE0
3FD15FF8
BFD3FFFC
FFD7FFFD
FFD7FFFE
FFD7FFFE
FFD7FFFE
FFD7FFFE
FFD7FFFE
FFD7FFFE
FFD7FFFE
FFD7FFFE
FFD3FFFE
FFD15FFE
FFF40FFE
FFFFFFFD
7FFFFFFC
2FFFFFF4
0BFFFFD0
01BFFA00
ENDCHAR
STARTCHAR parenright
ENCODING 41
SWIDTH 483 0
DWIDTH 15 0
BBX 16 22 0 0
BITMAP
00155400
06FFFF40
1FE02FE0
3FE50FF8
BFFF8BFC
FFFF8BFD
FFFF8BFE
FFFF8BFE
FFFF8BFE
FFFF8BFE
FFFF8BFE
FFFF8BFE
FFFF8BFE
FFFF8BFE
FFFF8BFE
FFE50FFE
FFE06FFE
FFFFFFFD
7FFFFFFC
2FFFFFF4
0BFFFFD0
01BFFA00
ENDCHAR
STARTCHAR asterisk
ENCODING 42
SWIDTH 428 0
DWIDTH 14 0
BBX 14 22 0 0
BITMAP
00154000
06FFF800
1FD75F00
3FD21F80
BFE02FD0
FE0002E0
FE5016E0
FFD11FE0
FFC74FE0
FFFFFFE0
FFFFFFE0
FFFFFFE0
FFFFFFE0
FFFFFFE0
FFFFFFE0
FFFFFFE0
FFFFFFE0
FFFFFFE0
7FFFFFD0
2FFFFF80
0BFFFE00
01BFE000
ENDCHAR
STARTCHAR plus
ENCODING 43
SWIDTH 428 0
DWIDTH 14 0
BBX 14 22 0 0
BITMAP
00154000
06FFF800
1FF1FF00
3FF1FF80
BFF1FFD0
FC0007E0
FD5057E0
FFF1FFE0
FFF1FFE0
FFF5FFE0
FFFFFFE0
FFFFFFE0
FFFFFFE0
FFFFFFE0
FFFFFFE0
FFFFFFE0
FFFFFFE0
FFFFFFE0
7FFFFFD0
2FFFFF80
0BFFFE00
01BFE000
ENDCHAR
STARTCHAR comma
ENCODING 44
SWIDTH 428 0
DWIDTH 14 0
BBX 14 22 0 0
BITMAP
00154000
06FFF800
1FFFFF00
3FFFFF80
BFFFFFD0
FFFFFFE0
FFFFFFE0
FFFFFFE0
FFFFFFE0
FFFFFFE0
FFFFFFE0
FFFFFFE0
FFFFFFE0
FFE0BFE0
FFF0BFE0
FFF8FFE0
FFFAFFE0
FFFFFFE0
7FFFFFD0
2FFFFF80
0BFFFE00
01BFE000
ENDCHAR
STARTCHAR hyphen
ENCODING 45
SWIDTH 428 0
DWIDTH 14 0
BBX 14 22 0 0
BITMAP
00154000
06FFF800
1FFFFF00
3FFFFF80
BFFFFFD0
FFFFFFE0
FF001FE0
FF555FE0
FFFFFFE0
FFFFFFE0
FFFFFFE0
FFFFFFE0
FFFFFFE0
FFFFFFE0
FFFFFFE0
FFFFFFE0
FFFFFFE0
FFFFFFE0
7FFFFFD0
2FFFFF80
0BFFFE00
01BFE000
ENDCHAR
STARTCHAR period
ENCODING 46
SWIDTH 428 0
DWIDTH 14 0
BBX 14 22 0 0
BITMAP
00154000
06FFF800
1FFFFF00
3FFFFF80
BFFFFFD0
FFFFFFE0
FFFFFFE0
FFFFFFE0
FFFFFFE0
FFFFFFE0
FFFFFFE0
FFFFFFE0
FFFFFFE0
FFE0FFE0
FFF1FFE0
FFFFFFE0
FFFFFFE0
FFFFFFE0
7FFFFFD0
2FFFFF80
0BFFFE00
01BFE000
ENDCHAR
STARTCHAR slash
ENCODING 47
SWIDTH 428 0
DWIDTH 14 0
BBX 14 22 0 0
BITMAP
00154000
06FFF800
1FFEBF00
3FFC7F80
BFF8BFD0
FFF8BFE0
FFF4FFE0
FFF4FFE0
FFF1FFE0
FFF1FFE0
FFE2FFE0
FFE2FFE0
FFD3FFE0
FFD3FFE0
FFC7FFE0
FFEBFFE0
FFFFFFE0
FFFFFFE0
7FFFFFD0
2FFFFF80
0BFFFE00
01BFE000
ENDCHAR
STARTCHAR zero
ENCODING 48
SWIDTH 578 0
DWIDTH 19 0
BBX 19 22 0 0
BITMAP
0015555000
06FFFFFD00
1FE4001F80
3FC15547E0
BFC7FFC7F0
FFC7FFC7F4
FFC7FFC7F8
FFC7FFC7F8
FFC7FFC7F8
FFC7FFC7F8
FFC7FFC7F8
FFC7FFC7F8
FFC7FFC7F8
FFD15507F8
FFF4001FF8
FFFFFFFFF8
FFFFFFFFF8
FFFFFFFFF4
7FFFFFFFF0
2FFFFFFFD0
0BFFFFFF40
01BFFFE800
ENDCHAR
STARTCHAR one
ENCODING 49
SWIDTH 578 0
DWIDTH 19 0
BBX 19 22 0 0
BITMAP
0015555000
06FFFFFD00
1FFE47FF80
3FFC07FFE0
BFFEC7FFF0
FFFFC7FFF4
FFFFC7FFF8
FFFFC7FFF8
FFFFC7FFF8
FFFFC7FFF8
FFFFC7FFF8
FFFFC7FFF8
FFFFC7FFF8
FFFFC7FFF8
FFFFCBFFF8
FFFFFFFFF8
FFFFFFFFF8
FFFFFFFFF4
7FFFFFFFF0
2FFFFFFFD0
0BFFFFFF40
01BFFFE800
ENDCHAR
STARTCHAR two
ENCODING 50
SWIDTH 578 0
DWIDTH 19 0
BBX 19 22 0 0
BITMAP
0015555000
06FFFFFD00
1FF4002F80
3FD1550BE0
BFC7FF8BF0
FFFFFF8BF4
FFFFFF8BF8
FFFFFF4BF8
FFE4001FF8
FFC1AABFF8
FFC7FFFFF8
FFC7FFFFF8
FFC7FFFFF8
FFC1555FF8
FFE0001FF8
FFFFFFFFF8
FFFFFFFFF8
FFFFFFFFF4
7FFFFFFFF0
2FFFFFFFD0
0BFFFFFF40
01BFFFE800
ENDCHAR
STARTCHAR three
ENCODING 51
SWIDTH 578 0
DWIDTH 19 0
BBX 19 22 0 0
BITMAP
0015555000
06FFFFFD00
1FD0006F80
3F81550FE0
BF4BFF8BF0
FFFFFF8BF4
FFFFFF8BF8
FFFEAA4FF8
FFFC000FF8
FFFEAA4FF8
FFFFFF8BF8
FFFFFF8BF8
FF4BFF8BF8
FF81550FF8
FFD0006FF8
FFFFFFFFF8
FFFFFFFFF8
FFFFFFFFF4
7FFFFFFFF0
2FFFFFFFD0
0BFFFFFF40
01BFFFE800
ENDCHAR
STARTCHAR four
ENCODING 52
SWIDTH 578 0
DWIDTH 19 0
BBX 19 22 0 0
BITMAP
0015555000
06FFFFFD00
1FE2FC7F80
3FE2FC7FE0
BFE2FC7FF0
FFE2FC7FF4
FFE2FC7FF8
FFE2FC7FF8
FFE2FC7FF8
FFE2FC7FF8
FFF05417F8
FFF90003F8
FFFFFC7FF8
FFFFFC7FF8
FFFFFD7FF8
FFFFFFFFF8
FFFFFFFFF8
FFFFFFFFF4
7FFFFFFFF0
2FFFFFFFD0
0BFFFFFF40
01BFFFE800
ENDCHAR
STARTCHAR five
ENCODING 53
SWIDTH 578 0
DWIDTH 19 0
BBX 19 22 0 0
BITMAP
0015555000
06FFFFFD00
1FE0000F80
3FD1555FE0
BFD3FFFFF0
FFD3FFFFF4
FFD3FFFFF8
FFD0001FF8
FFD1554BF8
FFFFFFC7F8
FFFFFFC7F8
FFFFFFC7F8
FFE7FFC7F8
FFD1550BF8
FFF4001FF8
FFFFFFFFF8
FFFFFFFFF8
FFFFFFFFF4
7FFFFFFFF0
2FFFFFFFD0
0BFFFFFF40
01BFFFE800
ENDCHAR
STARTCHAR six
ENCODING 54
SWIDTH 578 0
DWIDTH 19 0
BBX 19 22 0 0
BITMAP
0015555000
06FFFFFD00
1FF4001F80
3FD1551FE0
BFD3FFFFF0
FFD3FFFFF4
FFD3FFFFF8
FFD0001FF8
FFD15547F8
FFD3FFD3F8
FFD3FFD3F8
FFD3FFD3F8
FFD3FFD3F8
FFD15547F8
FFF4001FF8
FFFFFFFFF8
FFFFFFFFF8
FFFFFFFFF4
7FFFFFFFF0
2FFFFFFFD0
0BFFFFFF40
01BFFFE800
ENDCHAR
STARTCHAR seven
ENCODING 55
SWIDTH 578 0
DWIDTH 19 0
BBX 19 22 0 0
BITMAP
0015555000
06FFFFFD00
1FF8002F80
3FF9542FE0
BFFFFC3FF0
FFFFF87FF4
FFFFF4BFF8
FFFFF0FFF8
FFFFE2FFF8
FFFFD3FFF8
FFFFC7FFF8
FFFF8BFFF8
FFFF4FFFF8
FFFF1FFFF8
FFFE2FFFF8
FFFFFFFFF8
FFFFFFFFF8
FFFFFFFFF4
7FFFFFFFF0
2FFFFFFFD0
0BFFFFFF40
01BFFFE800
ENDCHAR
STARTCHAR eight
ENCODING 56
SWIDTH 578 0
DWIDTH 19 0
BBX 19 22 0 0
BITMAP
0015555000
06FFFFFD00
1FE4001F80
3FC15547E0
BFC7FFC7F0
FFC7FFC7F4
FFC7FFC7F8
FFC1A947F8
FFD0000BF8
FFC6AA87F8
FFC7FFC7F8
FFC7FFC7F8
FFC7FFC7F8
FFC15507F8
FFE4001FF8
FFFFFFFFF8
FFFFFFFFF8
FFFFFFFFF4
7FFFFFFFF0
2FFFFFFFD0
0BFFFFFF40
01BFFFE800
ENDCHAR
STARTCHAR nine
ENCODING 57
SWIDTH 578 0
DWIDTH 19 0
BBX 19 22 0 0
BITMAP
0015555000
06FFFFFD00
1FE0001F80
3FC1550BE0
BF8BFF87F0
FF8BFFC7F4
FF8BFFC7F8
FF8BFF87F8
FFC15507F8
FFE40007F8
FFFFFFC7F8
FFFFFFC7F8
FFFFFF87F8
FFF0000BF8
FFF4006FF8
FFFFFFFFF8
FFFFFFFFF8
FFFFFFFFF4
7FFFFFFFF0
2FFFFFFFD0
0BFFFFFF40
01BFFFE800
ENDCHAR
STARTCHAR colon
ENCODING 58
SWIDTH 428 0
DWIDTH 14 0
BBX 14 22 0 0
BITMAP
00154000
06FFF800
1FFFFF00
3FFFFF80
BFFFFFD0
FFFFFFE0
FFFFFFE0
FFFFFFE0
FFF5FFE0
FFE0FFE0
FFFAFFE0
FFFFFFE0
FFFFFFE0
FFE0FFE0
FFF1FFE0
FFFFFFE0
FFFFFFE0
FFFFFFE0
7FFFFFD0
2FFFFF80
0BFFFE00
01BFE000
ENDCHAR
STARTCHAR semicolon
ENCODING 59
SWIDTH 428 0
DWIDTH 14 0
BBX 14 22 0 0
BITMAP
00154000
06FFF800
1FFFFF00
3FFFFF80
BFFFFFD0
FFFFFFE0
FFFFFFE0
FFFFFFE0
FFF5FFE0
FFF0FFE0
FFFAFFE0
FFFFFFE0
FFFFFFE0
FFE0BFE0
FFF0BFE0
FFF8FFE0
FFFAFFE0
FFFFFFE0
7FFFFFD0
2FFFFF80
0BFFFE00
01BFE000
ENDCHAR
STARTCHAR less
ENCODING 60
SWIDTH 482 0
DWIDTH 15 0
BBX 16 24 0 1
BITMAP
00155000
02FFFE40
0FFFFFD0
3FFFFFF4
BFFFFFFC
FFFFFFFD
FFFFEFFD
FFFF5FFE
FFFE7FFE
FFF8FFFE
FFE2FFFE
FFCBFFFE
FF5FFFFE
FF8BFFFE
FFE3FFFE
FFF8FFFE
FFFD7FFE
FFFF5FFD
FFFFEFFD
BFFFFFFC
3FFFFFF4
1FFFFFE0
02FFFE40
00155000
ENDCHAR
STARTCHAR equal
ENCODING 61
SWIDTH 482 0
DWIDTH 15 0
BBX 16 24 0 1
BITMAP
00055000
01FFFE40
0FFFFFD0
3FFFFFF4
BFFFFFFC
FFFFFFFD
FFFFFFFD
FFFFFFFE
FFFFFFFE
FFFFFFFE
FFC003FE
FFFFFFFE
FFFFFFFE
FFC003FE
FFFFFFFE
FFFFFFFE
FFFFFFFE
FFFFFFFD
FFFFFFFD
BFFFFFFC
3FFFFFF4
1FFFFFE0
02FFFE40
00155000
ENDCHAR
STARTCHAR greater
ENCODING 62
SWIDTH 482 0
DWIDTH 15 0
BBX 16 24 0 1
BITMAP
00055000
01FFFE40
0FFFFFD0
3FFFFFF4
BFFFFFFC
FFFFFFFD
FFFBFFFD
FFE3FFFE
FFF8FFFE
FFFD7FFE
FFFF5FFE
FFFFD7FE
FFFFF3FE
FFFFD7FE
FFFF5FFE
FFFE7FFE
FFF8FFFE
FFE2FFFD
FFFBFFFD
BFFFFFFC
3FFFFFF4
1FFFFFE0
02FFFE40
00155000
ENDCHAR
STARTCHAR question
ENCODING 63
SWIDTH 578 0
DWIDTH 19 0
BBX 19 22 0 0
BITMAP
0015555000
06FFFFFD00
1FFD406F80
3FF1554BE0
BFF6FFCBF0
FFFFFFCBF4
FFFFFFCBF8
FFFFFFCBF8
FFFFE54BF8
FFFFC16FF8
FFFFCBFFF8
FFFFCBFFF8
FFFFEFFFF8
FFFFDBFFF8
FFFFDBFFF8
FFFFFFFFF8
FFFFFFFFF8
FFFFFFFFF4
7FFFFFFFF0
2FFFFFFFD0
0BFFFFFF40
01BFFFE800
ENDCHAR
STARTCHAR at
ENCODING 64
SWIDTH 578 0
DWIDTH 19 0
BBX 19 22 0 0
BITMAP
0015555000
06FFEBFD00
1FE4001F80
3F06AA43E0
BD2FFFF1F0
FCBD01F8F4
FCBEB97CB8
F8BFFE3CB8
FCBEA93CB8
FCB8003CB8
FCB1FE3CB8
FCB5B93CB8
FCBC013CB8
FD7FFF40F8
FE2FFFEBF8
FF415BFFF8
FFE95BFFF8
FFFFFFFFF4
7FFFFFFFF0
2FFFFFFFD0
0BFFFFFF40
01BFFFE800
ENDCHAR
STARTCHAR A
ENCODING 65
SWIDTH 578 0
DWIDTH 19 0
BBX 19 22 0 0
BITMAP
0015555000
06FFFFFD00
1FF9007F80
3FF0551FE0
BFE2FF1FF0
FFE2FF0FF4
FFE2FF4FF8
FFD3FF4FF8
FFD2AA4BF8
FFD0000BF8
FFC3FF8BF8
FFC7FF87F8
FFC7FFC7F8
FF87FFC7F8
FF8BFFC7F8
FFFFFFFFF8
FFFFFFFFF8
FFFFFFFFF4
7FFFFFFFF0
2FFFFFFFD0
0BFFFFFF40
01BFFFE800
ENDCHAR
STARTCHAR B
ENCODING 66
SWIDTH 578 0
DWIDTH 19 0
BBX 19 22 0 0
BITMAP
0015555000
06FFFFFD00
1F80002F80
3F85550FE0
BF8BFF4FF0
FF8BFF4BF4
FF8BFF4FF8
FF86A90FF8
FF80002FF8
FF87FE4FF8
FF8BFF8BF8
FF8BFF8BF8
FF8BFF4FF8
FF81550FF8
FF80006FF8
FFFFFFFFF8
FFFFFFFFF8
FFFFFFFFF4
7FFFFFFFF0
2FFFFFFFD0
0BFFFFFF40
01BFFFE800
ENDCHAR
STARTCHAR C
ENCODING 67
SWIDTH 578 0
DWIDTH 19 0
BBX 19 22 0 0
BITMAP
0015555000
06FFFFFD00
1FE0003F80
3FC1557FE0
BFC7FFFFF0
FFC7FFFFF4
FFC7FFFFF8
FFC7FFFFF8
FFC7FFFFF8
FFC7FFFFF8
FFC7FFFFF8
FFC7FFFFF8
FFC7FFFFF8
FFC1553FF8
FFE4007FF8
FFFFFFFFF8
FFFFFFFFF8
FFFFFFFFF4
7FFFFFFFF0
2FFFFFFFD0
0BFFFFFF40
01BFFFE800
ENDCHAR
STARTCHAR D
ENCODING 68
SWIDTH 578 0
DWIDTH 19 0
BBX 19 22 0 0
BITMAP
0015555000
06FFFFFD00
1FC0001F80
3FC15547E0
BFC7FFD3F0
FFC7FFD3F4
FFC7FFD3F8
FFC7FFD3F8
FFC7FFD3F8
FFC7FFD3F8
FFC7FFD3F8
FFC7FFD3F8
FFC7FFD3F8
FFC15547F8
FFD0001FF8
FFFFFFFFF8
FFFFFFFFF8
FFFFFFFFF4
7FFFFFFFF0
2FFFFFFFD0
0BFFFFFF40
01BFFFE800
ENDCHAR
STARTCHAR E
ENCODING 69
SWIDTH 578 0
DWIDTH 19 0
BBX 19 22 0 0
BITMAP
0015555000
06FFFFFD00
1FF4000F80
3FF4555FE0
BFF4FFFFF0
FFF4FFFFF4
FFF4FFFFF8
FFF4AABFF8
FFF4003FF8
FFF4AABFF8
FFF4FFFFF8
FFF4FFFFF8
FFF4FFFFF8
FFF4555FF8
FFF4000FF8
FFFFFFFFF8
FFFFFFFFF8
FFFFFFFFF4
7FFFFFFFF0
2FFFFFFFD0
0BFFFFFF40
01BFFFE800
ENDCHAR
STARTCHAR F
ENCODING 70
SWIDTH 578 0
DWIDTH 19 0
BBX 19 22 0 0
BITMAP
0015555000
06FFFFFD00
1FF4000F80
3FF4555FE0
BFF4FFFFF0
FFF4FFFFF4
FFF4FFFFF8
FFF4557FF8
FFF4003FF8
FFF4FFFFF8
FFF4FFFFF8
FFF4FFFFF8
FFF4FFFFF8
FFF4FFFFF8
FFF5FFFFF8
FFFFFFFFF8
FFFFFFFFF8
FFFFFFFFF4
7FFFFFFFF0
2FFFFFFFD0
0BFFFFFF40
01BFFFE800
ENDCHAR
STARTCHAR G
ENCODING 71
SWIDTH 578 0
DWIDTH 19 0
BBX 19 22 0 0
BITMAP
0015555000
06FFFFFD00
1FF4000F80
3FE1555FE0
BFD3FFFFF0
FFD3FFFFF4
FFD3FFFFF8
FFD3FFFFF8
FFD3F957F8
FFD3F403F8
FFD3FFD3F8
FFD3FFD3F8
FFD3FFC3F8
FFE05547F8
FFF4001FF8
FFFFFFFFF8
FFFFFFFFF8
FFFFFFFFF4
7FFFFFFFF0
2FFFFFFFD0
0BFFFFFF40
01BFFFE800
ENDCHAR
STARTCHAR H
ENCODING 72
SWIDTH 578 0
DWIDTH 19 0
BBX 19 22 0 0
BITMAP
0015555000
06FFFFFD00
1FC7FFD380
3FC7FFD3E0
BFC7FFD3F0
FFC7FFD3F4
FFC7FFD3F8
FFC15543F8
FFC00003F8
FFC7FFD3F8
FFC7FFD3F8
FFC7FFD3F8
FFC7FFD3F8
FFC7FFD3F8
FFD7FFD3F8
FFFFFFFFF8
FFFFFFFFF8
FFFFFFFFF4
7FFFFFFFF0
2FFFFFFFD0
0BFFFFFF40
01BFFFE800
ENDCHAR
STARTCHAR I
ENCODING 73
SWIDTH 578 0
DWIDTH 19 0
BBX 19 22 0 0
BITMAP
0015555000
06FFFFFD00
1FE0000780
3FE5415BE0
BFFFD3FFF0
FFFFD3FFF4
FFFFD3FFF8
FFFFD3FFF8
FFFFD3FFF8
FFFFD3FFF8
FFFFD3FFF8
FFFFD3FFF8
FFFFD3FFF8
FFE5415BF8
FFE00007F8
FFFFFFFFF8
FFFFFFFFF8
FFFFFFFFF4
7FFFFFFFF0
2FFFFFFFD0
0BFFFFFF40
01BFFFE800
ENDCHAR
STARTCHAR J
ENCODING 74
SWIDTH 578 0
DWIDTH 19 0
BBX 19 22 0 0
BITMAP
0015555000
06FFFFFD00
1FFFF8BF80
3FFFF8BFE0
BFFFF8BFF0
FFFFF8BFF4
FFFFF8BFF8
FFFFF8BFF8
FFFFF8BFF8
FFFFF8BFF8
FFFFF8BFF8
FFFFF8BFF8
FFFFF8BFF8
FFFD50BFF8
FFFC06FFF8
FFFFFFFFF8
FFFFFFFFF8
FFFFFFFFF4
7FFFFFFFF0
2FFFFFFFD0
0BFFFFFF40
01BFFFE800
ENDCHAR
STARTCHAR K
ENCODING 75
SWIDTH 578 0
DWIDTH 19 0
BBX 19 22 0 0
BITMAP
0015555000
06FFFFF900
1FF4FFE280
3FF4FF43E0
BFF4FD0FF0
FFF4F47FF4
FFF4D1FFF8
FFF447FFF8
FFF407FFF8
FFF452FFF8
FFF4F0BFF8
FFF4F82FF8
FFF4FE0FF8
FFF4FF87F8
FFF4FFD7F8
FFFFFFFFF8
FFFFFFFFF8
FFFFFFFFF4
7FFFFFFFF0
2FFFFFFFD0
0BFFFFFF40
01BFFFE800
ENDCHAR
STARTCHAR L
ENCODING 76
SWIDTH 578 0
DWIDTH 19 0
BBX 19 22 0 0
BITMAP
0015555000
06FFFFFD00
1FFC7FFF80
3FFC7FFFE0
BFFC7FFFF0
FFFC7FFFF4
FFFC7FFFF8
FFFC7FFFF8
FFFC7FFFF8
FFFC7FFFF8
FFFC7FFFF8
FFFC7FFFF8
FFFC7FFFF8
FFFC156FF8
FFFC002FF8
FFFFFFFFF8
FFFFFFFFF8
FFFFFFFFF4
7FFFFFFFF0
2FFFFFFFD0
0BFFFFFF40
01BFFFE800
ENDCHAR
STARTCHAR M
ENCODING 77
SWIDTH 578 0
DWIDTH 19 0
BBX 19 22 0 0
BITMAP
0015555000
06FFFFFD00
1F80240780
3F054152E0
BF1FC7E2F0
FF1FC7E2F4
FF1FC7E2F8
FF1FC7E2F8
FF1FC7E2F8
FF1FC7E2F8
FF1FEBE2F8
FF1FFFE2F8
FF1FFFE2F8
FF1FFFE2F8
FF1FFFE2F8
FFFFFFFFF8
FFFFFFFFF8
FFFFFFFFF4
7FFFFFFFF0
2FFFFFFFD0
0BFFFFFF40
01BFFFE800
ENDCHAR
STARTCHAR N
ENCODING 78
SWIDTH 578 0
DWIDTH 19 0
BBX 19 22 0 0
BITMAP
0015555000
06FFFFFD00
1FD4001F80
3FC1554BE0
BFC7FFC7F0
FFC7FFC7F4
FFC7FFC7F8
FFC7FFC7F8
FFC7FFC7F8
FFC7FFC7F8
FFC7FFC7F8
FFC7FFC7F8
FFC7FFC7F8
FFC7FFC7F8
FFC7FFC7F8
FFFFFFFFF8
FFFFFFFFF8
FFFFFFFFF4
7FFFFFFFF0
2FFFFFFFD0
0BFFFFFF40
01BFFFE800
ENDCHAR
STARTCHAR O
ENCODING 79
SWIDTH 578 0
DWIDTH 19 0
BBX 19 22 0 0
BITMAP
0015555000
06FFFFFD00
1FF4001F80
3FD15547E0
BFC7FFD3F0
FFC7FFD3F4
FFC7FFD3F8
FFC7FFD3F8
FFC7FFD3F8
FFC7FFD3F8
FFC7FFD3F8
FFC7FFD3F8
FFC7FFC3F8
FFD15547F8
FFF4001FF8
FFFFFFFFF8
FFFFFFFFF8
FFFFFFFFF4
7FFFFFFFF0
2FFFFFFFD0
0BFFFFFF40
01BFFFE800
ENDCHAR
STARTCHAR P
ENCODING 80
SWIDTH 578 0
DWIDTH 19 0
BBX 19 22 0 0
BITMAP
0015555000
06FFFFFD00
1FF0001F80
3FF0550BE0
BFF1FF87F0
FFF1FFC7F4
FFF1FFC7F8
FFF1FFC7F8
FFF1AA4BF8
FFF0000FF8
FFF1AABFF8
FFF1FFFFF8
FFF1FFFFF8
FFF1FFFFF8
FFF2FFFFF8
FFFFFFFFF8
FFFFFFFFF8
FFFFFFFFF4
7FFFFFFFF0
2FFFFFFFD0
0BFFFFFF40
01BFFFE800
ENDCHAR
STARTCHAR Q
ENCODING 81
SWIDTH 578 0
DWIDTH 19 0
BBX 19 22 0 0
BITMAP
0015555000
06FFFFFD00
1FF4001F80
3FD15547E0
BFC7FFD3F0
FFC7FFD3F4
FFC7FFD3F8
FFC7FFD3F8
FFC7FFD3F8
FFC7FFD3F8
FFC7FFD3F8
FFC7FBD3F8
FFC3D2D3F8
FFD15047F8
FFF4001FF8
FFFFFC7FF8
FFFFFD2FF8
FFFFFFFFF4
7FFFFFFFF0
2FFFFFFFD0
0BFFFFFF40
01BFFFE800
ENDCHAR
STARTCHAR R
ENCODING 82
SWIDTH 578 0
DWIDTH 19 0
BBX 19 22 0 0
BITMAP
0015555000
06FFFFFD00
1FD0007F80
3FD1551FE0
BFD3FF4FF0
FFD3FF4FF4
FFD3FF4FF8
FFD3FF1FF8
FFD000BFF8
FFD1542FF8
FFD3FF4FF8
FFD3FF4FF8
FFD3FF4FF8
FFD3FF4FF8
FFD3FF4FF8
FFFFFFFFF8
FFFFFFFFF8
FFFFFFFFF4
7FFFFFFFF0
2FFFFFFFD0
0BFFFFFF40
01BFFFE800
ENDCHAR
STARTCHAR S
ENCODING 83
SWIDTH 578 0
DWIDTH 19 0
BBX 19 22 0 0
BITMAP
0015555000
06FFFFFD00
1FF4000F80
3FE0555FE0
BFD3FFFFF0
FFD3FFFFF4
FFD3FFFFF8
FFE1AABFF8
FFF4000BF8
FFFFAA87F8
FFFFFFC7F8
FFFFFFC7F8
FFFFFFC7F8
FFF5550BF8
FFF4001FF8
FFFFFFFFF8
FFFFFFFFF8
FFFFFFFFF4
7FFFFFFFF0
2FFFFFFFD0
0BFFFFFF40
01BFFFE800
ENDCHAR
STARTCHAR T
ENCODING 84
SWIDTH 578 0
DWIDTH 19 0
BBX 19 22 0 0
BITMAP
0015555000
06FFFFFD00
1FE0000780
3FE5415BE0
BFFFD3FFF0
FFFFD3FFF4
FFFFD3FFF8
FFFFD3FFF8
FFFFD3FFF8
FFFFD3FFF8
FFFFD3FFF8
FFFFD3FFF8
FFFFD3FFF8
FFFFD3FFF8
FFFFD3FFF8
FFFFFFFFF8
FFFFFFFFF8
FFFFFFFFF4
7FFFFFFFF0
2FFFFFFFD0
0BFFFFFF40
01BFFFE800
ENDCHAR
STARTCHAR U
ENCODING 85
SWIDTH 578 0
DWIDTH 19 0
BBX 19 22 0 0
BITMAP
0015555000
06FFFFFD00
1FC7FFC780
3FC7FFC7E0
BFC7FFC7F0
FFC7FFC7F4
FFC7FFC7F8
FFC7FFC7F8
FFC7FFC7F8
FFC7FFC7F8
FFC7FFC7F8
FFC7FFC7F8
FFC7FFC7F8
FFD15507F8
FFF4001FF8
FFFFFFFFF8
FFFFFFFFF8
FFFFFFFFF4
7FFFFFFFF0
2FFFFFFFD0
0BFFFFFF40
01BFFFE800
ENDCHAR
STARTCHAR V
ENCODING 86
SWIDTH 578 0
DWIDTH 19 0
BBX 19 22 0 0
BITMAP
0015555000
06FFFFFD00
1FD7FFC780
3FC3FF87E0
BFD2FF4BF0
FFE1FF4FF4
FFF1FF1FF8
FFF4FE2FF8
FFF4BD2FF8
FFF87C3FF8
FFFC7C7FF8
FFFD38BFF8
FFFE24FFF8
FFFE00FFF8
FFFF82FFF8
FFFFFFFFF8
FFFFFFFFF8
FFFFFFFFF4
7FFFFFFFF0
2FFFFFFFD0
0BFFFFFF40
01BFFFE800
ENDCHAR
STARTCHAR W
ENCODING 87
SWIDTH 578 0
DWIDTH 19 0
BBX 19 22 0 0
BITMAP
0015555000
06FFFFFD00
1E2FEBF180
3E2F87F1E0
BE2F87F1F0
FE1F43E1F4
FF1F43E2F8
FF1F12E2F8
FF1F12E2F8
FF4E21D3F8
FF4E35D3F8
FF4D34D3F8
FF887487F8
FF847847F8
FFD1FD1FF8
FFFFFFFFF8
FFFFFFFFF8
FFFFFFFFF4
7FFFFFFFF0
2FFFFFFFD0
0BFFFFFF40
01BFFFE800
ENDCHAR
STARTCHAR X
ENCODING 88
SWIDTH 578 0
DWIDTH 19 0
BBX 19 22 0 0
BITMAP
0015555000
06FFFFFD00
1FD7FFD780
3FE1FF87E0
BFF4FF0FF0
FFF87D2FF4
FFFD287FF8
FFFF00FFF8
FFFF81FFF8
FFFF00FFF8
FFFD287FF8
FFFC7D2FF8
FFF4FF0FF8
FFE2FF87F8
FFE7FFD7F8
FFFFFFFFF8
FFFFFFFFF8
FFFFFFFFF4
7FFFFFFFF0
2FFFFFFFD0
0BFFFFFF40
01BFFFE800
ENDCHAR
STARTCHAR Y
ENCODING 89
SWIDTH 578 0
DWIDTH 19 0
BBX 19 22 0 0
BITMAP
0015555000
06FFFFFD00
1FD2FF8780
3FF1FF4FE0
BFF4FE1FF0
FFF87D2FF4
FFFC3C7FF8
FFFE28BFF8
FFFF10FFF8
FFFF41FFF8
FFFF83FFF8
FFFFC7FFF8
FFFFC7FFF8
FFFFC7FFF8
FFFFD7FFF8
FFFFFFFFF8
FFFFFFFFF8
FFFFFFFFF4
7FFFFFFFF0
2FFFFFFFD0
0BFFFFFF40
01BFFFE800
ENDCHAR
STARTCHAR Z
ENCODING 90
SWIDTH 578 0
DWIDTH 19 0
BBX 19 22 0 0
BITMAP
0015555000
06FFFFFD00
1FF0003F80
3FF5542FE0
BFFFFC7FF0
FFFFF4BFF4
FFFFE1FFF8
FFFFD2FFF8
FFFF87FFF8
FFFF4FFFF8
FFFE2FFFF8
FFFC3FFFF8
FFF4BFFFF8
FFF0555FF8
FFF4001FF8
FFFFFFFFF8
FFFFFFFFF8
FFFFFFFFF4
7FFFFFFFF0
2FFFFFFFD0
0BFFFFFF40
01BFFFE800
ENDCHAR
STARTCHAR bracketleft
ENCODING 91
SWIDTH 484 0
DWIDTH 16 0
BBX 16 22 0 0
BITMAP
00155400
06FABF40
1FF82FE0
3FF8BFF8
BFF8BFFD
FFF8BFFD
FFF8BFFE
FFF8BFFE
FFF8BFFE
FFF8BFFE
FFF8BFFE
FFF8BFFE
FFF8BFFE
FFF8BFFE
FFF8BFFE
FFF82FFE
FFFABFFE
FFFFFFFD
7FFFFFFC
2FFFFFF4
0BFFFFD0
01BFFA00
ENDCHAR
STARTCHAR backslash
ENCODING 92
SWIDTH 516 0
DWIDTH 17 0
BBX 17 22 0 0
BITMAP
0015550000
06FFFFD000
1FF8BFF800
3FFC7FFE00
BFFC7FFF40
FFFD3FFF40
FFFD3FFF80
FFFE2FFF80
FFFE2FFF80
FFFF1FFF80
FFFF1FFF80
FFFF4FFF80
FFFF4FFF80
FFFF8BFF80
FFFF8BFF80
FFFFFFFF80
FFFFFFFF80
FFFFFFFF40
7FFFFFFF00
2FFFFFFD00
0BFFFFF400
01BFFE8000
ENDCHAR
STARTCHAR bracketright
ENCODING 93
SWIDTH 484 0
DWIDTH 16 0
BBX 16 22 0 0
BITMAP
00155400
06FABF40
1FF43FE0
3FF93FF8
BFFD3FFD
FFFD3FFD
FFFD3FFE
FFFD3FFE
FFFD3FFE
FFFD3FFE
FFFD3FFE
FFFD3FFE
FFFD3FFE
FFFD3FFE
FFFD3FFE
FFF43FFE
FFFABFFE
FFFFFFFD
7FFFFFFC
2FFFFFF4
0BFFFFD0
01BFFA00
ENDCHAR
STARTCHAR asciicircum
ENCODING 94
SWIDTH 355 0
DWIDTH 11 0
BBX 12 12 0 7
BITMAP
01FE00
07FF80
0FFFD0
1FCBE0
3F93F4
7F76F8
BE7DFC
FDFDFD
FEFFFD
BFFFFD
7FEFF8
054140
ENDCHAR
STARTCHAR underscore
ENCODING 95
SWIDTH 428 0
DWIDTH 14 0
BBX 14 22 0 0
BITMAP
00154000
06FFF800
1FFFFF00
3FFFFF80
BFFFFFD0
FFFFFFE0
FFFFFFE0
FFFFFFE0
FFFFFFE0
FFFFFFE0
FFFFFFE0
FFFFFFE0
FFFFFFE0
FFFFFFE0
FFFFFFE0
FD000BE0
FE555BE0
FFFFFFE0
7FFFFFD0
2FFFFF80
0BFFFE00
01BFE000
ENDCHAR
STARTCHAR grave
ENCODING 96
SWIDTH 308 0
DWIDTH 10 0
BBX 10 11 0 0
BITMAP
06A400
7FFF00
FFFF40
FE2F80
BF1FC0
7F8FD0
2FCBE0
1FD7F0
0BFFE0
03FFD0
01AA40
ENDCHAR
STARTCHAR a
ENCODING 97
SWIDTH 578 0
DWIDTH 19 0
BBX 19 22 0 0
BITMAP
0015555000
06FFFFFD00
1FE0007F80
3FF5551FE0
BFFFFF1FF0
FFFFFF1FF4
FFFFFF1FF8
FFFFFF1FF8
FFE4011FF8
FF81541FF8
FF8BFF1FF8
FF8BFF1FF8
FF8BFF1FF8
FF81551FF8
FFE4015FF8
FFFFFFFFF8
FFFFFFFFF8
FFFFFFFFF4
7FFFFFFFF0
2FFFFFFFD0
0BFFFFFF40
01BFFFE800
ENDCHAR
STARTCHAR b
ENCODING 98
SWIDTH 578 0
DWIDTH 19 0
BBX 19 22 0 0
BITMAP
0015555000
06FFFFFD00
1F80002F80
3F85550FE0
BF8BFF4FF0
FF8BFF4BF4
FF8BFF4FF8
FF86A90FF8
FF80002FF8
FF87FE4FF8
FF8BFF8BF8
FF8BFF8BF8
FF8BFF4FF8
FF81550FF8
FF80006FF8
FFFFFFFFF8
FFFFFFFFF8
FFFFFFFFF4
7FFFFFFFF0
2FFFFFFFD0
0BFFFFFF40
01BFFFE800
ENDCHAR
STARTCHAR c
ENCODING 99
SWIDTH 578 0
DWIDTH 19 0
BBX 19 22 0 0
BITMAP
0015555000
06FFFFFD00
1FE0003F80
3FC1557FE0
BFC7FFFFF0
FFC7FFFFF4
FFC7FFFFF8
FFC7FFFFF8
FFC7FFFFF8
FFC7FFFFF8
FFC7FFFFF8
FFC7FFFFF8
FFC7FFFFF8
FFC1553FF8
FFE4007FF8
FFFFFFFFF8
FFFFFFFFF8
FFFFFFFFF4
7FFFFFFFF0
2FFFFFFFD0
0BFFFFFF40
01BFFFE800
ENDCHAR
STARTCHAR d
ENCODING 100
SWIDTH 578 0
DWIDTH 19 0
BBX 19 22 0 0
BITMAP
0015555000
06FFFFFD00
1FC0001F80
3FC15547E0
BFC7FFD3F0
FFC7FFD3F4
FFC7FFD3F8
FFC7FFD3F8
FFC7FFD3F8
FFC7FFD3F8
FFC7FFD3F8
FFC7FFD3F8
FFC7FFD3F8
FFC15547F8
FFD0001FF8
FFFFFFFFF8
FFFFFFFFF8
FFFFFFFFF4
7FFFFFFFF0
2FFFFFFFD0
0BFFFFFF40
01BFFFE800
ENDCHAR
STARTCHAR e
ENCODING 101
SWIDTH 578 0
DWIDTH 19 0
BBX 19 22 0 0
BITMAP
0015555000
06FFFFFD00
1FE0007F80
3FC1551FE0
BF8BFF1FF0
FF8BFF1FF4
FF86AA1FF8
FF80001FF8
FF86AAAFF8
FF8BFFFFF8
FF8BFFFFF8
FF8BFFFFF8
FFC6AABFF8
FFD0003FF8
FFFAAABFF8
FFFFFFFFF8
FFFFFFFFF8
FFFFFFFFF4
7FFFFFFFF0
2FFFFFFFD0
0BFFFFFF40
01BFFFE800
ENDCHAR
STARTCHAR f
ENCODING 102
SWIDTH 578 0
DWIDTH 19 0
BBX 19 22 0 0
BITMAP
0015555000
06FFFFFD00
1FF4000F80
3FF4555FE0
BFF4FFFFF0
FFF4FFFFF4
FFF4FFFFF8
FFF4557FF8
FFF4003FF8
FFF4FFFFF8
FFF4FFFFF8
FFF4FFFFF8
FFF4FFFFF8
FFF4FFFFF8
FFF5FFFFF8
FFFFFFFFF8
FFFFFFFFF8
FFFFFFFFF4
7FFFFFFFF0
2FFFFFFFD0
0BFFFFFF40
01BFFFE800
ENDCHAR
STARTCHAR g
ENCODING 103
SWIDTH 578 0
DWIDTH 19 0
BBX 19 22 0 0
BITMAP
0015555000
06FFFFFD00
1FF4000F80
3FE1555FE0
BFD3FFFFF0
FFD3FFFFF4
FFD3FFFFF8
FFD3FFFFF8
FFD3F957F8
FFD3F403F8
FFD3FFD3F8
FFD3FFD3F8
FFD3FFC3F8
FFE05547F8
FFF4001FF8
FFFFFFFFF8
FFFFFFFFF8
FFFFFFFFF4
7FFFFFFFF0
2FFFFFFFD0
0BFFFFFF40
01BFFFE800
ENDCHAR
STARTCHAR h
ENCODING 104
SWIDTH 578 0
DWIDTH 19 0
BBX 19 22 0 0
BITMAP
0015555000
06FFFFFD00
1FC7FFD380
3FC7FFD3E0
BFC7FFD3F0
FFC7FFD3F4
FFC7FFD3F8
FFC15543F8
FFC00003F8
FFC7FFD3F8
FFC7FFD3F8
FFC7FFD3F8
FFC7FFD3F8
FFC7FFD3F8
FFD7FFD3F8
FFFFFFFFF8
FFFFFFFFF8
FFFFFFFFF4
7FFFFFFFF0
2FFFFFFFD0
0BFFFFFF40
01BFFFE800
ENDCHAR
STARTCHAR i
ENCODING 105
SWIDTH 578 0
DWIDTH 19 0
BBX 19 22 0 0
BITMAP
0015555000
06FFFFFD00
1FE0000780
3FE5415BE0
BFFFD3FFF0
FFFFD3FFF4
FFFFD3FFF8
FFFFD3FFF8
FFFFD3FFF8
FFFFD3FFF8
FFFFD3FFF8
FFFFD3FFF8
FFFFD3FFF8
FFE5415BF8
FFE00007F8
FFFFFFFFF8
FFFFFFFFF8
FFFFFFFFF4
7FFFFFFFF0
2FFFFFFFD0
0BFFFFFF40
01BFFFE800
ENDCHAR
STARTCHAR j
ENCODING 106
SWIDTH 578 0
DWIDTH 19 0
BBX 19 22 0 0
BITMAP
0015555000
06FFFFFD00
1FFFF8BF80
3FFFF8BFE0
BFFFF8BFF0
FFFFF8BFF4
FFFFF8BFF8
FFFFF8BFF8
FFFFF8BFF8
FFFFF8BFF8
FFFFF8BFF8
FFFFF8BFF8
FFFFF8BFF8
FFFD50BFF8
FFFC06FFF8
FFFFFFFFF8
FFFFFFFFF8
FFFFFFFFF4
7FFFFFFFF0
2FFFFFFFD0
0BFFFFFF40
01BFFFE800
ENDCHAR
STARTCHAR k
ENCODING 107
SWIDTH 578 0
DWIDTH 19 0
BBX 19 22 0 0
BITMAP
0015555000
06FFFFF900
1FF4FFE280
3FF4FF43E0
BFF4FD0FF0
FFF4F47FF4
FFF4D1FFF8
FFF447FFF8
FFF407FFF8
FFF452FFF8
FFF4F0BFF8
FFF4F82FF8
FFF4FE0FF8
FFF4FF87F8
FFF4FFD7F8
FFFFFFFFF8
FFFFFFFFF8
FFFFFFFFF4
7FFFFFFFF0
2FFFFFFFD0
0BFFFFFF40
01BFFFE800
ENDCHAR
STARTCHAR l
ENCODING 108
SWIDTH 578 0
DWIDTH 19 0
BBX 19 22 0 0
BITMAP
0015555000
06FFFFFD00
1FFC7FFF80
3FFC7FFFE0
BFFC7FFFF0
FFFC7FFFF4
FFFC7FFFF8
FFFC7FFFF8
FFFC7FFFF8
FFFC7FFFF8
FFFC7FFFF8
FFFC7FFFF8
FFFC7FFFF8
FFFC156FF8
FFFC002FF8
FFFFFFFFF8
FFFFFFFFF8
FFFFFFFFF4
7FFFFFFFF0
2FFFFFFFD0
0BFFFFFF40
01BFFFE800
ENDCHAR
STARTCHAR m
ENCODING 109
SWIDTH 578 0
DWIDTH 19 0
BBX 19 22 0 0
BITMAP
0015555000
06FFFFFD00
1F80240780
3F054152E0
BF1FC7E2F0
FF1FC7E2F4
FF1FC7E2F8
FF1FC7E2F8
FF1FC7E2F8
FF1FC7E2F8
FF1FEBE2F8
FF1FFFE2F8
FF1FFFE2F8
FF1FFFE2F8
FF1FFFE2F8
FFFFFFFFF8
FFFFFFFFF8
FFFFFFFFF4
7FFFFFFFF0
2FFFFFFFD0
0BFFFFFF40
01BFFFE800
ENDCHAR
STARTCHAR n
ENCODING 110
SWIDTH 578 0
DWIDTH 19 0
BBX 19 22 0 0
BITMAP
0015555000
06FFFFFD00
1FD4001F80
3FC1554BE0
BFC7FFC7F0
FFC7FFC7F4
FFC7FFC7F8
FFC7FFC7F8
FFC7FFC7F8
FFC7FFC7F8
FFC7FFC7F8
FFC7FFC7F8
FFC7FFC7F8
FFC7FFC7F8
FFC7FFC7F8
FFFFFFFFF8
FFFFFFFFF8
FFFFFFFFF4
7FFFFFFFF0
2FFFFFFFD0
0BFFFFFF40
01BFFFE800
ENDCHAR
STARTCHAR o
ENCODING 111
SWIDTH 578 0
DWIDTH 19 0
BBX 19 22 0 0
BITMAP
0015555000
06FFFFFD00
1FF4001F80
3FD15547E0
BFC7FFD3F0
FFC7FFD3F4
FFC7FFD3F8
FFC7FFD3F8
FFC7FFD3F8
FFC7FFD3F8
FFC7FFD3F8
FFC7FFD3F8
FFC7FFC3F8
FFD15547F8
FFF4001FF8
FFFFFFFFF8
FFFFFFFFF8
FFFFFFFFF4
7FFFFFFFF0
2FFFFFFFD0
0BFFFFFF40
01BFFFE800
ENDCHAR
STARTCHAR p
ENCODING 112
SWIDTH 578 0
DWIDTH 19 0
BBX 19 22 0 0
BITMAP
0015555000
06FFFFFD00
1FF0001F80
3FF0550BE0
BFF1FF87F0
FFF1FFC7F4
FFF1FFC7F8
FFF1FFC7F8
FFF1AA4BF8
FFF0000FF8
FFF1AABFF8
FFF1FFFFF8
FFF1FFFFF8
FFF1FFFFF8
FFF2FFFFF8
FFFFFFFFF8
FFFFFFFFF8
FFFFFFFFF4
7FFFFFFFF0
2FFFFFFFD0
0BFFFFFF40
01BFFFE800
ENDCHAR
STARTCHAR q
ENCODING 113
SWIDTH 578 0
DWIDTH 19 0
BBX 19 22 0 0
BITMAP
0015555000
06FFFFFD00
1FF4001F80
3FD15547E0
BFC7FFD3F0
FFC7FFD3F4
FFC7FFD3F8
FFC7FFD3F8
FFC7FFD3F8
FFC7FFD3F8
FFC7FFD3F8
FFC7FBD3F8
FFC3D2D3F8
FFD15047F8
FFF4001FF8
FFFFFC7FF8
FFFFFD2FF8
FFFFFFFFF4
7FFFFFFFF0
2FFFFFFFD0
0BFFFFFF40
01BFFFE800
ENDCHAR
STARTCHAR r
ENCODING 114
SWIDTH 578 0
DWIDTH 19 0
BBX 19 22 0 0
BITMAP
0015555000
06FFFFFD00
1FD0007F80
3FD1551FE0
BFD3FF4FF0
FFD3FF4FF4
FFD3FF4FF8
FFD3FF1FF8
FFD000BFF8
FFD1542FF8
FFD3FF4FF8
FFD3FF4FF8
FFD3FF4FF8
FFD3FF4FF8
FFD3FF4FF8
FFFFFFFFF8
FFFFFFFFF8
FFFFFFFFF4
7FFFFFFFF0
2FFFFFFFD0
0BFFFFFF40
01BFFFE800
ENDCHAR
STARTCHAR s
ENCODING 115
SWIDTH 578 0
DWIDTH 19 0
BBX 19 22 0 0
BITMAP
0015555000
06FFFFFD00
1FF4000F80
3FE0555FE0
BFD3FFFFF0
FFD3FFFFF4
FFD3FFFFF8
FFE1AABFF8
FFF4000BF8
FFFFAA87F8
FFFFFFC7F8
FFFFFFC7F8
FFFFFFC7F8
FFF5550BF8
FFF4001FF8
FFFFFFFFF8
FFFFFFFFF8
FFFFFFFFF4
7FFFFFFFF0
2FFFFFFFD0
0BFFFFFF40
01BFFFE800
ENDCHAR
STARTCHAR t
ENCODING 116
SWIDTH 578 0
DWIDTH 19 0
BBX 19 22 0 0
BITMAP
0015555000
06FFFFFD00
1FE0000780
3FE5415BE0
BFFFD3FFF0
FFFFD3FFF4
FFFFD3FFF8
FFFFD3FFF8
FFFFD3FFF8
FFFFD3FFF8
FFFFD3FFF8
FFFFD3FFF8
FFFFD3FFF8
FFFFD3FFF8
FFFFD3FFF8
FFFFFFFFF8
FFFFFFFFF8
FFFFFFFFF4
7FFFFFFFF0
2FFFFFFFD0
0BFFFFFF40
01BFFFE800
ENDCHAR
STARTCHAR u
ENCODING 117
SWIDTH 578 0
DWIDTH 19 0
BBX 19 22 0 0
BITMAP
0015555000
06FFFFFD00
1FC7FFC780
3FC7FFC7E0
BFC7FFC7F0
FFC7FFC7F4
FFC7FFC7F8
FFC7FFC7F8
FFC7FFC7F8
FFC7FFC7F8
FFC7FFC7F8
FFC7FFC7F8
FFC7FFC7F8
FFD15507F8
FFF4001FF8
FFFFFFFFF8
FFFFFFFFF8
FFFFFFFFF4
7FFFFFFFF0
2FFFFFFFD0
0BFFFFFF40
01BFFFE800
ENDCHAR
STARTCHAR v
ENCODING 118
SWIDTH 578 0
DWIDTH 19 0
BBX 19 22 0 0
BITMAP
0015555000
06FFFFFD00
1FD7FFC780
3FC3FF87E0
BFD2FF4BF0
FFE1FF4FF4
FFF1FF1FF8
FFF4FE2FF8
FFF4BD2FF8
FFF87C3FF8
FFFC7C7FF8
FFFD38BFF8
FFFE24FFF8
FFFE00FFF8
FFFF82FFF8
FFFFFFFFF8
FFFFFFFFF8
FFFFFFFFF4
7FFFFFFFF0
2FFFFFFFD0
0BFFFFFF40
01BFFFE800
ENDCHAR
STARTCHAR w
ENCODING 119
SWIDTH 578 0
DWIDTH 19 0
BBX 19 22 0 0
BITMAP
0015555000
06FFFFFD00
1E2FEBF180
3E2F87F1E0
BE2F87F1F0
FE1F43E1F4
FF1F43E2F8
FF1F12E2F8
FF1F12E2F8
FF4E21D3F8
FF4E35D3F8
FF4D34D3F8
FF887487F8
FF847847F8
FFD1FD1FF8
FFFFFFFFF8
FFFFFFFFF8
FFFFFFFFF4
7FFFFFFFF0
2FFFFFFFD0
0BFFFFFF40
01BFFFE800
ENDCHAR
STARTCHAR x
ENCODING 120
SWIDTH 578 0
DWIDTH 19 0
BBX 19 22 0 0
BITMAP
0015555000
06FFFFFD00
1FD7FFD780
3FE1FF87E0
BFF4FF0FF0
FFF87D2FF4
FFFD287FF8
FFFF00FFF8
FFFF81FFF8
FFFF00FFF8
FFFD287FF8
FFFC7D2FF8
FFF4FF0FF8
FFE2FF87F8
FFE7FFD7F8
FFFFFFFFF8
FFFFFFFFF8
FFFFFFFFF4
7FFFFFFFF0
2FFFFFFFD0
0BFFFFFF40
01BFFFE800
ENDCHAR
STARTCHAR y
ENCODING 121
SWIDTH 578 0
DWIDTH 19 0
BBX 19 22 0 0
BITMAP
0015555000
06FFFFFD00
1FD2FF8780
3FF1FF4FE0
BFF4FE1FF0
FFF87D2FF4
FFFC3C7FF8
FFFE28BFF8
FFFF10FFF8
FFFF41FFF8
FFFF83FFF8
FFFFC7FFF8
FFFFC7FFF8
FFFFC7FFF8
FFFFD7FFF8
FFFFFFFFF8
FFFFFFFFF8
FFFFFFFFF4
7FFFFFFFF0
2FFFFFFFD0
0BFFFFFF40
01BFFFE800
ENDCHAR
STARTCHAR z
ENCODING 122
SWIDTH 578 0
DWIDTH 19 0
BBX 19 22 0 0
BITMAP
0015555000
06FFFFFD00
1FF0003F80
3FF5542FE0
BFFFFC7FF0
FFFFF4BFF4
FFFFE1FFF8
FFFFD2FFF8
FFFF87FFF8
FFFF4FFFF8
FFFE2FFFF8
FFFC3FFFF8
FFF4BFFFF8
FFF0555FF8
FFF4001FF8
FFFFFFFFF8
FFFFFFFFF8
FFFFFFFFF4
7FFFFFFFF0
2FFFFFFFD0
0BFFFFFF40
01BFFFE800
ENDCHAR
STARTCHAR braceleft
ENCODING 123
SWIDTH 484 0
DWIDTH 16 0
BBX 16 22 0 0
BITMAP
00155400
06FEAF40
1FF40BE0
3FE1AFF8
BFE2FFFD
FFE2FFFD
FFE2FFFE
FFE2FFFE
F943FFFE
F803FFFE
FFE2FFFE
FFE2FFFE
FFE2FFFE
FFE2FFFE
FFE1FFFE
FFF00BFE
FFFE5BFE
FFFFFFFD
7FFFFFFC
2FFFFFF4
0BFFFFD0
01BFFA00
ENDCHAR
STARTCHAR bar
ENCODING 124
SWIDTH 484 0
DWIDTH 16 0
BBX 16 22 0 0
BITMAP
00145400
06FCBF40
1FFCBFE0
3FFCBFF8
BFFCBFFD
FFFCBFFD
FFFCBFFE
FFFCBFFE
FFFCBFFE
FFFCBFFE
FFFCBFFE
FFFCBFFE
FFFCBFFE
FFFCBFFE
FFFCBFFE
FFFCBFFE
FFFFFFFE
FFFFFFFD
7FFFFFFC
2FFFFFF4
0BFFFFD0
01BFFA00
ENDCHAR
STARTCHAR braceright
ENCODING 125
SWIDTH 484 0
DWIDTH 16 0
BBX 16 22 0 0
BITMAP
00155400
06EAFF40
1FC02FE0
3FEA1FF8
BFFF4FFD
FFFF4FFD
FFFF4FFE
FFFF4FFE
FFFF417E
FFFF403E
FFFF4FFE
FFFF4FFE
FFFF4FFE
FFFF4FFE
FFFE1FFE
FFC02FFE
FFE6BFFE
FFFFFFFD
7FFFFFFC
2FFFFFF4
0BFFFFD0
01BFFA00
ENDCHAR
STARTCHAR asciitilde
ENCODING 126
SWIDTH 578 0
DWIDTH 19 0
BBX 19 22 0 0
BITMAP
0015555000
06FFFFFD00
1FFFFFFF80
3FFFFFFFE0
BFFFFFFFF0
FFFAFF9FF4
FFD0164FF8
FFC6401FF8
FFDBFABFF8
FFFFFFFFF8
FFFFFFFFF8
FFFFFFFFF8
FFFFFFFFF8
FFFFFFFFF8
FFFFFFFFF8
FFFFFFFFF8
FFFFFFFFF8
FFFFFFFFF4
7FFFFFFFF0
2FFFFFFFD0
0BFFFFFF40
01BFFFE800
ENDCHAR
STARTCHAR uni00A0
ENCODING 160
SWIDTH 151 0
DWIDTH 5 0
BBX 1 1 0 0
BITMAP
00
ENDCHAR
STARTCHAR exclamdown
ENCODING 161
SWIDTH 424 0
DWIDTH 14 0
BBX 14 22 0 0
BITMAP
00154000
06FFF400
1FF1FE00
3FF6FF80
BFFFFFD0
FFF5FFE0
FFF5FFE0
FFF5FFE0
FFF5FFE0
FFF5FFE0
FFF5FFE0
FFF5FFE0
FFF5FFE0
FFF5FFE0
FFF5FFE0
FFFFFFE0
FFFFFFE0
FFFFFFD0
7FFFFFC0
2FFFFF40
0BFFFD00
01BFA000
ENDCHAR
STARTCHAR cent
ENCODING 162
SWIDTH 578 0
DWIDTH 19 0
BBX 19 22 0 0
BITMAP
0015555000
06FFDBFD00
1FFFCBFF80
3FFE86BFE0
BFF4003FF0
FFE18ABFF4
FFE2CBFFF8
FFE2CBFFF8
FFE2CBFFF8
FFE2CBFFF8
FFE2CBFFF8
FFE2CBFFF8
FFE186BFF8
FFF4003FF8
FFFE86BFF8
FFFFCBFFF8
FFFFEFFFF8
FFFFFFFFF4
7FFFFFFFF0
2FFFFFFFD0
0BFFFFFF40
01BFFFE800
ENDCHAR
STARTCHAR sterling
ENCODING 163
SWIDTH 578 0
DWIDTH 19 0
BBX 19 22 0 0
BITMAP
0015555000
06FFFFFD00
1FFE00BF80
3FF8143FE0
BFF8BE2FF0
FFF8BE7FF4
FFF8BFFFF8
FFF8BFFFF8
FFE000BFF8
FFF46AFFF8
FFF8BFFFF8
FFF8BFFFF8
FFF8BFFFF8
FFF8557FF8
FFF8003FF8
FFFFFFFFF8
FFFFFFFFF8
FFFFFFFFF4
7FFFFFFFF0
2FFFFFFFD0
0BFFFFFF40
01BFFFE800
ENDCHAR
STARTCHAR currency
ENCODING 164
SWIDTH 578 0
DWIDTH 19 0
BBX 19 22 0 0
BITMAP
0015555000
06FFFFFD00
1FEBFFDB80
3FD1414BE0
BFF0551FF0
FFF2FF1FF4
FFF2FF5FF8
FFF2FF5FF8
FFF2FF5FF8
FFF1FF1FF8
FFF0001FF8
FFD2554BF8
FFEBFFEFF8
FFFFFFFFF8
FFFFFFFFF8
FFFFFFFFF8
FFFFFFFFF8
FFFFFFFFF4
7FFFFFFFF0
2FFFFFFFD0
0BFFFFFF40
01BFFFE800
ENDCHAR
STARTCHAR yen
ENCODING 165
SWIDTH 578 0
DWIDTH 19 0
BBX 19 22 0 0
BITMAP
0015555000
06FFFFFD00
1FC7FF0F80
3FD2FE1FE0
BFE1FD3FF0
FFF0FC7FF4
FFF8B4BFF8
FFFC70FFF8
FFFD12FFF8
FFFE03FFF8
FFF4007FF8
FFF945BFF8
FFF4007FF8
FFFF8BFFF8
FFFF8BFFF8
FFFFFFFFF8
FFFFFFFFF8
FFFFFFFFF4
7FFFFFFFF0
2FFFFFFFD0
0BFFFFFF40
01BFFFE800
ENDCHAR
STARTCHAR brokenbar
ENCODING 166
SWIDTH 484 0
DWIDTH 16 0
BBX 16 22 0 0
BITMAP
00155400
06FFFF40
1FFC7FE0
3FFC7FF8
BFFC7FFD
FFFC7FFD
FFFC7FFE
FFFEBFFE
FFFFFFFE
FFFD7FFE
FFFC7FFE
FFFC7FFE
FFFC7FFE
FFFC7FFE
FFFC7FFE
FFFFFFFE
FFFFFFFE
FFFFFFFD
7FFFFFFC
2FFFFFF4
0BFFFFD0
01BFFA00
ENDCHAR
STARTCHAR section
ENCODING 167
SWIDTH 578 0
DWIDTH 19 0
BBX 19 22 0 0
BITMAP
0015555000
06FFFFFD00
1FF9005F80
3FE16A5FE0
BFE3FFFFF0
FFE3FFFFF4
FFE156FFF8
FFF850BFF8
FFF8FCBFF8
FFF8FCBFF8
FFFC54BFF8
FFFE552FF8
FFFFFF5FF8
FFFFFF5FF8
FFFFFF1FF8
FFD0002FF8
FFEAAAFFF8
FFFFFFFFF4
7FFFFFFFF0
2FFFFFFFD0
0BFFFFFF40
01BFFFE800
ENDCHAR
STARTCHAR dieresis
ENCODING 168
SWIDTH 388 0
DWIDTH 12 0
BBX 13 10 0 0
BITMAP
00140000
06FFE000
2FFFFD00
7FFFFF00
FEBEBF40
FC3C3F40
FD7D7F40
BFFFFF00
3FFFFD00
05555400
ENDCHAR
STARTCHAR copyright
ENCODING 169
SWIDTH 578 0
DWIDTH 19 0
BBX 19 22 0 0
BITMAP
0015555000
06FFFFFD00
1FF901BF80
3FD2FE4BE0
BF1FAAE2F0
FD7C00B8F4
F8F8FFFDB8
F5F9FFFE78
F6F9FFFF38
F6F9FFFF38
F6F9FFFF38
F9F9FFFE78
FCB8AABCB8
FE3E55B5F8
FF4BFFD7F8
FFE1A91FF8
FFFE56FFF8
FFFFFFFFF4
7FFFFFFFF0
2FFFFFFFD0
0BFFFFFF40
01BFFFE800
ENDCHAR
STARTCHAR ordfeminine
ENCODING 170
SWIDTH 578 0
DWIDTH 19 0
BBX 19 22 0 0
BITMAP
0015555000
06FFFFFD00
1FFC007F80
3FFD551FE0
BFFFFF1FF0
FFFFFF1FF4
FFFFAB1FF8
FFF4001FF8
FFF1A91FF8
FFE2FF1FF8
FFE1FF1FF8
FFF0002FF8
FFFD55BFF8
FFFFFFFFF8
FFFFFFFFF8
FFFFFFFFF8
FFFFFFFFF8
FFFFFFFFF4
7FFFFFFFF0
2FFFFFFFD0
0BFFFFFF40
01BFFFE800
ENDCHAR
STARTCHAR guillemotleft
ENCODING 171
SWIDTH 578 0
DWIDTH 19 0
BBX 19 22 0 0
BITMAP
0015555000
06FFFFFD00
1FFFFFFF80
3FFFBFBFE0
BFFF2E3FF0
FFFD7CBFF4
FFF8F5FFF8
FFF2E7FFF8
FFD78FFFF8
FF8F5FFFF8
FFDB8FFFF8
FFF2D7FFF8
FFF9F5FFF8
FFFD7CBFF8
FFFF2E3FF8
FFFFBFBFF8
FFFFFFFFF8
FFFFFFFFF4
7FFFFFFFF0
2FFFFFFFD0
0BFFFFFF40
01BFFFE800
ENDCHAR
STARTCHAR uni00AD
ENCODING 173
SWIDTH 428 0
DWIDTH 14 0
BBX 14 22 0 0
BITMAP
00154000
06FFF800
1FFFFF00
3FFFFF80
BFFFFFD0
FFFFFFE0
FF001FE0
FF555FE0
FFFFFFE0
FFFFFFE0
FFFFFFE0
FFFFFFE0
FFFFFFE0
FFFFFFE0
FFFFFFE0
FFFFFFE0
FFFFFFE0
FFFFFFE0
7FFFFFD0
2FFFFF80
0BFFFE00
01BFE000
ENDCHAR
STARTCHAR registered
ENCODING 174
SWIDTH 578 0
DWIDTH 19 0
BBX 19 22 0 0
BITMAP
0015555000
06FFFFFD00
1FF901BF80
3FD2FE4BE0
BF1EAAE2F0
FD7854B8F4
F8F8FE7DB8
F5F8FE7E78
F6F8FD7F38
F6F801FF38
F6F8FD7F38
F9F8FE3E78
FCB8FE3CB8
FE3DFE75F8
FF4BFFD7F8
FFE1A91FF8
FFFE56FFF8
FFFFFFFFF4
7FFFFFFFF0
2FFFFFFFD0
0BFFFFFF40
01BFFFE800
ENDCHAR
STARTCHAR macron
ENCODING 175
SWIDTH 428 0
DWIDTH 14 0
BBX 14 10 0 0
BITMAP
00154000
06FFF800
2FFFFF40
7FFFFFC0
FFFFFFE0
FE001FE0
FE556FE0
BFFFFFD0
3FFFFF80
1FFFFE00
ENDCHAR
STARTCHAR degree
ENCODING 176
SWIDTH 428 0
DWIDTH 14 0
BBX 14 22 0 0
BITMAP
00154000
06FFF800
1FD57F00
3F451F80
BF2F5FD0
FF2F5FE0
FF402FE0
FFE5BFE0
FFFFFFE0
FFFFFFE0
FFFFFFE0
FFFFFFE0
FFFFFFE0
FFFFFFE0
FFFFFFE0
FFFFFFE0
FFFFFFE0
FFFFFFE0
7FFFFFD0
2FFFFF80
0BFFFE00
01BFE000
ENDCHAR
STARTCHAR plusminus
ENCODING 177
SWIDTH 428 0
DWIDTH 14 0
BBX 14 22 0 0
BITMAP
00154000
06FFF800
1FF1FF00
3FF1FF80
BFF1FFD0
FC0007E0
FD5057E0
FFF1FFE0
FFF1FFE0
FFF5FFE0
FFFFFFE0
FF001FE0
FF555FE0
FFFFFFE0
FFFFFFE0
FFFFFFE0
FFFFFFE0
FFFFFFE0
7FFFFFD0
2FFFFF80
0BFFFE00
01BFE000
ENDCHAR
STARTCHAR uni00B2
ENCODING 178
SWIDTH 578 0
DWIDTH 19 0
BBX 19 22 0 0
BITMAP
0015555000
06FFFFFD00
1FFD01FF80
3FF4547FE0
BFF5FC3FF0
FFFF947FF4
FFF801FFF8
FFF4BFFFF8
FFF0AAFFF8
FFF400BFF8
FFFEAAFFF8
FFFFFFFFF8
FFFFFFFFF8
FFFFFFFFF8
FFFFFFFFF8
FFFFFFFFF8
FFFFFFFFF8
FFFFFFFFF4
7FFFFFFFF0
2FFFFFFFD0
0BFFFFFF40
01BFFFE800
ENDCHAR
STARTCHAR uni00B3
ENCODING 179
SWIDTH 578 0
DWIDTH 19 0
BBX 19 22 0 0
BITMAP
0015555000
06FFFFFD00
1FFD007F80
3FF8551FE0
BFFAFF0FF0
FFFFD51FF4
FFFFD51FF8
FFFEFF0FF8
FFF4AA1FF8
FFFC002FF8
FFFFAABFF8
FFFFFFFFF8
FFFFFFFFF8
FFFFFFFFF8
FFFFFFFFF8
FFFFFFFFF8
FFFFFFFFF8
FFFFFFFFF4
7FFFFFFFF0
2FFFFFFFD0
0BFFFFFF40
01BFFFE800
ENDCHAR
STARTCHAR acute
ENCODING 180
SWIDTH 308 0
DWIDTH 10 0
BBX 10 11 0 0
BITMAP
02A900
0FFFC0
2FFFE0
3F4BF0
7F1FE0
BF2FD0
BE3F80
FDBF00
FEFD00
BFFC00
1AA400
ENDCHAR
STARTCHAR uni00B5
ENCODING 181
SWIDTH 578 0
DWIDTH 19 0
BBX 19 22 0 0
BITMAP
0015555000
06FFFFFD00
1F8BFF8B80
3F8BFF8BE0
BF8BFF8BF0
FF8BFF8BF4
FF8BFF8BF8
FF8BFF8BF8
FF8BFF8BF8
FF8BFF8BF8
FF8BFF8BF8
FF8BFF8BF8
FF8BFF8BF8
FF81550FF8
FF84006FF8
FF8BFFFFF8
FF8BFFFFF8
FFFFFFFFF4
7FFFFFFFF0
2FFFFFFFD0
0BFFFFFF40
01BFFFE800
ENDCHAR
STARTCHAR paragraph
ENCODING 182
SWIDTH 578 0
DWIDTH 19 0
BBX 19 22 0 0
BITMAP
0015555000
06FFFFFD00
1FF5556F80
3FD0026FE0
BFC0036FF0
FFC0036FF4
FFC0036FF8
FFC0036FF8
FFE4036FF8
FFFFF36FF8
FFFFF36FF8
FFFFF36FF8
FFFFF36FF8
FFFFF36FF8
FFFFF7AFF8
FFFFFFFFF8
FFFFFFFFF8
FFFFFFFFF4
7FFFFFFFF0
2FFFFFFFD0
0BFFFFFF40
01BFFFE800
ENDCHAR
STARTCHAR periodcentered
ENCODING 183
SWIDTH 428 0
DWIDTH 14 0
BBX 14 22 0 0
BITMAP
00154000
06FFF800
1FFFFF00
3FFFFF80
BFFFFFD0
FFFFFFE0
FFE0FFE0
FFE0FFE0
FFFFFFE0
FFFFFFE0
FFFFFFE0
FFFFFFE0
FFFFFFE0
FFFFFFE0
FFFFFFE0
FFFFFFE0
FFFFFFE0
FFFFFFE0
7FFFFFD0
2FFFFF80
0BFFFE00
01BFE000
ENDCHAR
STARTCHAR cedilla
ENCODING 184
SWIDTH 101 0
DWIDTH 3 0
BBX 4 5 0 -5
BITMAP
1D
B9
D0
E8
6D
ENDCHAR
STARTCHAR uni00B9
ENCODING 185
SWIDTH 578 0
DWIDTH 19 0
BBX 19 22 0 0
BITMAP
0015555000
06FFFFFD00
1FFE47FF80
3FFC07FFE0
BFFEC7FFF0
FFFFC7FFF4
FFFFC7FFF8
FFFFC7FFF8
FFFFC7FFF8
FFFFC7FFF8
FFFFEBFFF8
FFFFFFFFF8
FFFFFFFFF8
FFFFFFFFF8
FFFFFFFFF8
FFFFFFFFF8
FFFFFFFFF8
FFFFFFFFF4
7FFFFFFFF0
2FFFFFFFD0
0BFFFFFF40
01BFFFE800
ENDCHAR
STARTCHAR ordmasculine
ENCODING 186
SWIDTH 578 0
DWIDTH 19 0
BBX 19 22 0 0
BITMAP
0015555000
06FFFFFD00
1FF8001F80
3FF0550BE0
BFE2FF87F0
FFE2FFC7F4
FFE2FFC7F8
FFE2FFC7F8
FFE2FFC7F8
FFE2FFC7F8
FFE1FF8BF8
FFF0000BF8
FFF9556FF8
FFFFFFFFF8
FFFFFFFFF8
FFFFFFFFF8
FFFFFFFFF8
FFFFFFFFF4
7FFFFFFFF0
2FFFFFFFD0
0BFFFFFF40
01BFFFE800
ENDCHAR
STARTCHAR guillemotright
ENCODING 187
SWIDTH 578 0
DWIDTH 19 0
BBX 19 22 0 0
BITMAP
0015555000
06FFFFFD00
1FFFFFFF80
3FEFEFFFE0
BFD7DBFFF0
FFF6F2FFF4
FFFCB8FFF8
FFFE3D7FF8
FFFF5F2FF8
FFFFCB9FF8
FFFF5F2FF8
FFFE3D7FF8
FFFCB8FFF8
FFF6F2FFF8
FFD7D7FFF8
FFEFEFFFF8
FFFFFFFFF8
FFFFFFFFF4
7FFFFFFFF0
2FFFFFFFD0
0BFFFFFF40
01BFFFE800
ENDCHAR
STARTCHAR onequarter
ENCODING 188
SWIDTH 578 0
DWIDTH 19 0
BBX 19 22 0 0
BITMAP
0015555000
06FFFFFD00
190FC7FF80
340F8BFFE0
BB4F4FFFF0
FF4F1FFFF4
FF4F1FFFF8
FF4E26F6F8
FF4D31F1F8
FF4C71F1F8
FFAC71F1F8
FFF8B1F1F8
FFF4F45068
FFF4F80018
FFF1FFF1F8
FFFFFFF1F8
FFFFFFFAF8
FFFFFFFFF4
7FFFFFFFF0
2FFFFFFFD0
0BFFFFFF40
01BFFFE800
ENDCHAR
STARTCHAR onehalf
ENCODING 189
SWIDTH 578 0
DWIDTH 19 0
BBX 19 22 0 0
BITMAP
0015555000
06FFFFFD00
190FC7FF80
340F8BFFE0
BB4F4FFFF0
FF4F1FFFF4
FF4F1E9AF8
FF4E2800B8
FF4D30B878
FF4C7FF878
FFAC7D00B8
FFF8B45BF8
FFF4F1FFF8
FFF4F055F8
FFF1F800F8
FFFFFFFFF8
FFFFFFFFF8
FFFFFFFFF4
7FFFFFFFF0
2FFFFFFFD0
0BFFFFFF40
01BFFFE800
ENDCHAR
STARTCHAR threequarters
ENCODING 190
SWIDTH 578 0
DWIDTH 19 0
BBX 19 22 0 0
BITMAP
0015555000
06FFFFFD00
190FC7FF80
340F8BFFE0
BB4F4FFFF0
FF4F1FFFF4
FF4F1EAAF8
FF4E240078
FF4D31A928
FF4C7FFD28
FFAC7F4038
FFF8BFA928
FFF4F6FE28
FFF4F05428
FFF1F900B8
FFFFFFFFF8
FFFFFFFFF8
FFFFFFFFF4
7FFFFFFFF0
2FFFFFFFD0
0BFFFFFF40
01BFFFE800
ENDCHAR
STARTCHAR questiondown
ENCODING 191
SWIDTH 578 0
DWIDTH 19 0
BBX 19 22 0 0
BITMAP
0015555000
06FFFFFD00
1FFFE2FF80
3FFFE7FFE0
BFFFF7FFF0
FFFFE3FFF4
FFFFE3FFF8
FFF803FFF8
FFF1ABFFF8
FFE3FFFFF8
FFE3FFFFF8
FFE3FFFFF8
FFF2FFCBF8
FFF0400FF8
FFFE55BFF8
FFFFFFFFF8
FFFFFFFFF8
FFFFFFFFF4
7FFFFFFFF0
2FFFFFFFD0
0BFFFFFF40
01BFFFE800
ENDCHAR
STARTCHAR Agrave
ENCODING 192
SWIDTH 578 0
DWIDTH 19 0
BBX 19 31 0 0
BITMAP
001A900000
01FFFC0000
03FFFD0000
03F8BE0000
02FC7F0000
01FE3F4000
00BF2F8000
007F5FC000
002FFFC000
001FFF9000
06FFFFFD00
1FF9007F80
3FF0551FE0
BFE2FF1FF0
FFE2FF0FF4
FFE2FF4FF8
FFD3FF4FF8
FFD2AA4BF8
FFD0000BF8
FFC3FF8BF8
FFC7FF87F8
FFC7FFC7F8
FF87FFC7F8
FF8BFFC7F8
FFFFFFFFF8
FFFFFFFFF8
FFFFFFFFF4
7FFFFFFFF0
2FFFFFFFD0
0BFFFFFF40
01BFFFE800
ENDCHAR
STARTCHAR Aacute
ENCODING 193
SWIDTH 578 0
DWIDTH 19 0
BBX 19 31 0 0
BITMAP
00006A9000
0001FFF800
0002FFFE00
0003F4FE00
0007F1FD00
000BE3FC00
000FD7F400
001FCBF000
001FEFD000
001FFFD000
06FFFFFD00
1FF9007F80
3FF0551FE0
BFE2FF1FF0
FFE2FF0FF4
FFE2FF4FF8
FFD3FF4FF8
FFD2AA4BF8
FFD0000BF8
FFC3FF8BF8
FFC7FF87F8
FFC7FFC7F8
FF87FFC7F8
FF8BFFC7F8
FFFFFFFFF8
FFFFFFFFF8
FFFFFFFFF4
7FFFFFFFF0
2FFFFFFFD0
0BFFFFFF40
01BFFFE800
ENDCHAR
STARTCHAR Acircumflex
ENCODING 194
SWIDTH 578 0
DWIDTH 19 0
BBX 19 32 0 0
BITMAP
0000540000
0003FF4000
000BFFC000
001FEFE000
002F87F000
003F63F400
007F36F800
00BD78FC00
00FDBCBD00
00FFFFFD00
00BFFFFC00
06FFFFFD00
1FF9007F80
3FF0551FE0
BFE2FF1FF0
FFE2FF0FF4
FFE2FF4FF8
FFD3FF4FF8
FFD2AA4BF8
FFD0000BF8
FFC3FF8BF8
FFC7FF87F8
FFC7FFC7F8
FF87FFC7F8
FF8BFFC7F8
FFFFFFFFF8
FFFFFFFFF8
FFFFFFFFF4
7FFFFFFFF0
2FFFFFFFD0
0BFFFFFF40
01BFFFE800
ENDCHAR
STARTCHAR Atilde
ENCODING 195
SWIDTH 578 0
DWIDTH 19 0
BBX 19 31 0 0
BITMAP
0000540000
000BFF9000
007FFFF800
01FFFFFE00
02FFFFFF40
03FFFFFF40
03FEFEBF80
03F4183F80
03F1907F40
01FFFFFE00
06FFFFFE00
1FF9007F80
3FF0551FE0
BFE2FF1FF0
FFE2FF0FF4
FFE2FF4FF8
FFD3FF4FF8
FFD2AA4BF8
FFD0000BF8
FFC3FF8BF8
FFC7FF87F8
FFC7FFC7F8
FF87FFC7F8
FF8BFFC7F8
FFFFFFFFF8
FFFFFFFFF8
FFFFFFFFF4
7FFFFFFFF0
2FFFFFFFD0
0BFFFFFF40
01BFFFE800
ENDCHAR
STARTCHAR Adieresis
ENCODING 196
SWIDTH 578 0
DWIDTH 19 0
BBX 19 30 0 0
BITMAP
0000100000
000BFF9000
007FFFF800
00FFFFFD00
01FEFEFF00
02F8787F00
01F9B97F00
00FFFFFE00
007FFFF800
06FFFFFD00
1FF9007F80
3FF0551FE0
BFE2FF1FF0
FFE2FF0FF4
FFE2FF4FF8
FFD3FF4FF8
FFD2AA4BF8
FFD0000BF8
FFC3FF8BF8
FFC7FF87F8
FFC7FFC7F8
FF87FFC7F8
FF8BFFC7F8
FFFFFFFFF8
FFFFFFFFF8
FFFFFFFFF4
7FFFFFFFF0
2FFFFFFFD0
0BFFFFFF40
01BFFFE800
ENDCHAR
STARTCHAR Aring
ENCODING 197
SWIDTH 578 0
DWIDTH 19 0
BBX 19 30 0 0
BITMAP
0006FE4000
001FFFE000
007FFFF400
00FE01FC00
01FCB8FD00
01FCFCBD00
01FC64FD00
01FE46FD00
00FFFFFC00
06FFFFFD00
1FF9007F80
3FF0551FE0
BFE2FF1FF0
FFE2FF0FF4
FFE2FF4FF8
FFD3FF4FF8
FFD2AA4BF8
FFD0000BF8
FFC3FF8BF8
FFC7FF87F8
FFC7FFC7F8
FF87FFC7F8
FF8BFFC7F8
FFFFFFFFF8
FFFFFFFFF8
FFFFFFFFF4
7FFFFFFFF0
2FFFFFFFD0
0BFFFFFF40
01BFFFE800
ENDCHAR
STARTCHAR AE
ENCODING 198
SWIDTH 578 0
DWIDTH 19 0
BBX 19 22 0 0
BITMAP
0015555000
06FFFFFD00
1FE4000780
3FC1415BE0
BFC7C7FFF0
FFC7C7FFF4
FF8BC7FFF8
FF8BC6ABF8
FF8BC007F8
FF4FC6AFF8
FF4FC7FFF8
FF4007FFF8
FF0547FFF8
FF1FC157F8
FF6FD557F8
FFFFFFFFF8
FFFFFFFFF8
FFFFFFFFF4
7FFFFFFFF0
2FFFFFFFD0
0BFFFFFF40
01BFFFE800
ENDCHAR
STARTCHAR Ccedilla
ENCODING 199
SWIDTH 578 0
DWIDTH 19 0
BBX 19 22 0 0
BITMAP
0015555000
06FFFFFD00
1FE0003F80
3FC1557FE0
BFC7FFFFF0
FFC7FFFFF4
FFC7FFFFF8
FFC7FFFFF8
FFC7FFFFF8
FFC7FFFFF8
FFC7FFFFF8
FFC7FFFFF8
FFC7FFFFF8
FFC1553FF8
FFE4007FF8
FFFF4BFFF8
FFFD1BFFF8
FFFC7FFFF4
7FFD1BFFF0
2FFE4BFFD0
0BFFFFFF40
01BFFFE800
ENDCHAR
STARTCHAR Egrave
ENCODING 200
SWIDTH 578 0
DWIDTH 19 0
BBX 19 31 0 0
BITMAP
001AA40000
00BFFD0000
02FFFE0000
02FC7F0000
01FD3F4000
00FF2F8000
007F5FC000
003F8FD000
001FEFC000
001FFFD000
06FFFFFD00
1FF4000F80
3FF4555FE0
BFF4FFFFF0
FFF4FFFFF4
FFF4FFFFF8
FFF4AABFF8
FFF4003FF8
FFF4AABFF8
FFF4FFFFF8
FFF4FFFFF8
FFF4FFFFF8
FFF4555FF8
FFF4000FF8
FFFFFFFFF8
FFFFFFFFF8
FFFFFFFFF4
7FFFFFFFF0
2FFFFFFFD0
0BFFFFFF40
01BFFFE800
ENDCHAR
STARTCHAR Eacute
ENCODING 201
SWIDTH 578 0
DWIDTH 19 0
BBX 19 31 0 0
BITMAP
00001A9000
0000FFFD00
0001FFFF00
0002F8BF00
0003F4FE00
0007F2FD00
000BE3F800
000FD7F400
000FFFE000
001BFFD000
06FFFFFD00
1FF4000F80
3FF4555FE0
BFF4FFFFF0
FFF4FFFFF4
FFF4FFFFF8
FFF4AABFF8
FFF4003FF8
FFF4AABFF8
FFF4FFFFF8
FFF4FFFFF8
FFF4FFFFF8
FFF4555FF8
FFF4000FF8
FFFFFFFFF8
FFFFFFFFF8
FFFFFFFFF4
7FFFFFFFF0
2FFFFFFFD0
0BFFFFFF40
01BFFFE800
ENDCHAR
STARTCHAR Ecircumflex
ENCODING 202
SWIDTH 578 0
DWIDTH 19 0
BBX 19 32 0 0
BITMAP
0000550000
0002FF8000
0007FFD000
000FEBF000
001FC3F400
002F96F800
003F69FC00
007E3CBD00
00BD7D7E00
00BFFFFE00
007FFFFD00
06FFFFFD00
1FF4000F80
3FF4555FE0
BFF4FFFFF0
FFF4FFFFF4
FFF4FFFFF8
FFF4AABFF8
FFF4003FF8
FFF4AABFF8
FFF4FFFFF8
FFF4FFFFF8
FFF4FFFFF8
FFF4555FF8
FFF4000FF8
FFFFFFFFF8
FFFFFFFFF8
FFFFFFFFF4
7FFFFFFFF0
2FFFFFFFD0
0BFFFFFF40
01BFFFE800
ENDCHAR
STARTCHAR Edieresis
ENCODING 203
SWIDTH 578 0
DWIDTH 19 0
BBX 19 30 0 0
BITMAP
0000140000
0007FFD000
002FFFFC00
00BFFFFE00
00FEBEBF40
01FC3C3F40
00FD7D7F40
00BFFFFF00
007FFFFD00
06FFFFFD00
1FF4000F80
3FF4555FE0
BFF4FFFFF0
FFF4FFFFF4
FFF4FFFFF8
FFF4AABFF8
FFF4003FF8
FFF4AABFF8
FFF4FFFFF8
FFF4FFFFF8
FFF4FFFFF8
FFF4555FF8
FFF4000FF8
FFFFFFFFF8
FFFFFFFFF8
FFFFFFFFF4
7FFFFFFFF0
2FFFFFFFD0
0BFFFFFF40
01BFFFE800
ENDCHAR
STARTCHAR Igrave
ENCODING 204
SWIDTH 578 0
DWIDTH 19 0
BBX 19 31 0 0
BITMAP
001AA40000
00BFFD0000
01FFFF0000
02FC3F4000
01FE3F8000
00FF2F8000
007F5FC000
002FCFD000
001FFFD000
001FFFD000
06FFFFFD00
1FE0000780
3FE5415BE0
BFFFD3FFF0
FFFFD3FFF4
FFFFD3FFF8
FFFFD3FFF8
FFFFD3FFF8
FFFFD3FFF8
FFFFD3FFF8
FFFFD3FFF8
FFFFD3FFF8
FFE5415BF8
FFE00007F8
FFFFFFFFF8
FFFFFFFFF8
FFFFFFFFF4
7FFFFFFFF0
2FFFFFFFD0
0BFFFFFF40
01BFFFE800
ENDCHAR
STARTCHAR Iacute
ENCODING 205
SWIDTH 578 0
DWIDTH 19 0
BBX 19 31 0 0
BITMAP
00001A9000
0000BFFD00
0001FFFF00
0002F8BF00
0003F4FF00
0007F1FD00
000BE3FC00
000BD7F400
000BFFE000
001BFFD000
06FFFFFD00
1FE0000780
3FE5415BE0
BFFFD3FFF0
FFFFD3FFF4
FFFFD3FFF8
FFFFD3FFF8
FFFFD3FFF8
FFFFD3FFF8
FFFFD3FFF8
FFFFD3FFF8
FFFFD3FFF8
FFE5415BF8
FFE00007F8
FFFFFFFFF8
FFFFFFFFF8
FFFFFFFFF4
7FFFFFFFF0
2FFFFFFFD0
0BFFFFFF40
01BFFFE800
ENDCHAR
STARTCHAR Icircumflex
ENCODING 206
SWIDTH 578 0
DWIDTH 19 0
BBX 19 32 0 0
BITMAP
0000150000
0002FF8000
0007FFD000
000BEBF000
001FC3F400
002F95FC00
003F68FD00
007F3CBE00
00BE7D7E00
00BFFFFE00
007FFFFD00
06FFFFFD00
1FE0000780
3FE5415BE0
BFFFD3FFF0
FFFFD3FFF4
FFFFD3FFF8
FFFFD3FFF8
FFFFD3FFF8
FFFFD3FFF8
FFFFD3FFF8
FFFFD3FFF8
FFFFD3FFF8
FFE5415BF8
FFE00007F8
FFFFFFFFF8
FFFFFFFFF8
FFFFFFFFF4
7FFFFFFFF0
2FFFFFFFD0
0BFFFFFF40
01BFFFE800
ENDCHAR
STARTCHAR Idieresis
ENCODING 207
SWIDTH 578 0
DWIDTH 19 0
BBX 19 30 0 0
BITMAP
0000140000
0006FFE000
002FFFFD00
00BFFFFF00
00FEBEBF40
00FC3C3F40
00FD7D7F40
00BFFFFF00
003FFFFD00
06FFFFFD00
1FE0000780
3FE5415BE0
BFFFD3FFF0
FFFFD3FFF4
FFFFD3FFF8
FFFFD3FFF8
FFFFD3FFF8
FFFFD3FFF8
FFFFD3FFF8
FFFFD3FFF8
FFFFD3FFF8
FFE5415BF8
FFE00007F8
FFFFFFFFF8
FFFFFFFFF8
FFFFFFFFF4
7FFFFFFFF0
2FFFFFFFD0
0BFFFFFF40
01BFFFE800
ENDCHAR
STARTCHAR Eth
ENCODING 208
SWIDTH 578 0
DWIDTH 19 0
BBX 19 22 0 0
BITMAP
0015555000
06FFFFFD00
1FC0001F80
3FC15547E0
BFC7FFD3F0
FFC7FFD3F4
FFC7FFD3F8
FF86FFD3F8
FF00FFD3F8
FFC7FFD3F8
FFC7FFD3F8
FFC7FFD3F8
FFC7FFD3F8
FFC15547F8
FFD0001FF8
FFFFFFFFF8
FFFFFFFFF8
FFFFFFFFF4
7FFFFFFFF0
2FFFFFFFD0
0BFFFFFF40
01BFFFE800
ENDCHAR
STARTCHAR Ntilde
ENCODING 209
SWIDTH 578 0
DWIDTH 19 0
BBX 19 31 0 0
BITMAP
0000540000
001BFF9000
00BFFFF400
02FFFFFD00
03FFFFFF00
07FFFFFF40
07FEFEBF40
07F0187F40
07E290BF00
02FFFFFE00
06FFFFFD00
1FD4001F80
3FC1554BE0
BFC7FFC7F0
FFC7FFC7F4
FFC7FFC7F8
FFC7FFC7F8
FFC7FFC7F8
FFC7FFC7F8
FFC7FFC7F8
FFC7FFC7F8
FFC7FFC7F8
FFC7FFC7F8
FFC7FFC7F8
FFFFFFFFF8
FFFFFFFFF8
FFFFFFFFF4
7FFFFFFFF0
2FFFFFFFD0
0BFFFFFF40
01BFFFE800
ENDCHAR
STARTCHAR Ograve
ENCODING 210
SWIDTH 578 0
DWIDTH 19 0
BBX 19 31 0 0
BITMAP
001AA00000
00BFFD0000
02FFFE0000
02F87F0000
02FD3F4000
00FE2F8000
00BF5FC000
003F8FC000
001FEFC000
001FFFD000
06FFFFFD00
1FF4001F80
3FD15547E0
BFC7FFD3F0
FFC7FFD3F4
FFC7FFD3F8
FFC7FFD3F8
FFC7FFD3F8
FFC7FFD3F8
FFC7FFD3F8
FFC7FFD3F8
FFC7FFC3F8
FFD15547F8
FFF4001FF8
FFFFFFFFF8
FFFFFFFFF8
FFFFFFFFF4
7FFFFFFFF0
2FFFFFFFD0
0BFFFFFF40
01BFFFE800
ENDCHAR
STARTCHAR Oacute
ENCODING 211
SWIDTH 578 0
DWIDTH 19 0
BBX 19 31 0 0
BITMAP
00002A9000
0000FFFC00
0002FFFE00
0003F4BF00
0007F1FE00
000BF2FD00
000BE3F800
000FDBF000
000FEFD000
001FFFD000
06FFFFFD00
1FF4001F80
3FD15547E0
BFC7FFD3F0
FFC7FFD3F4
FFC7FFD3F8
FFC7FFD3F8
FFC7FFD3F8
FFC7FFD3F8
FFC7FFD3F8
FFC7FFD3F8
FFC7FFC3F8
FFD15547F8
FFF4001FF8
FFFFFFFFF8
FFFFFFFFF8
FFFFFFFFF4
7FFFFFFFF0
2FFFFFFFD0
0BFFFFFF40
01BFFFE800
ENDCHAR
STARTCHAR Ocircumflex
ENCODING 212
SWIDTH 578 0
DWIDTH 19 0
BBX 19 32 0 0
BITMAP
0000540000
0002FF8000
000BFFD000
000FEBE000
001FC3F400
003F56F800
007F29FC00
00BE3CFD00
00BD7DBE00
00BFFFFE00
00BFFFFD00
06FFFFFD00
1FF4001F80
3FD15547E0
BFC7FFD3F0
FFC7FFD3F4
FFC7FFD3F8
FFC7FFD3F8
FFC7FFD3F8
FFC7FFD3F8
FFC7FFD3F8
FFC7FFD3F8
FFC7FFC3F8
FFD15547F8
FFF4001FF8
FFFFFFFFF8
FFFFFFFFF8
FFFFFFFFF4
7FFFFFFFF0
2FFFFFFFD0
0BFFFFFF40
01BFFFE800
ENDCHAR
STARTCHAR Otilde
ENCODING 213
SWIDTH 578 0
DWIDTH 19 0
BBX 19 31 0 0
BITMAP
0000140000
000BFFE000
007FFFFC00
00FFFFFF00
02FFFFFF40
02FFFFFF80
03FEFFBFC0
03F8093F80
02F4D03F80
01FFFFFF00
06FFFFFE00
1FF4001F80
3FD15547E0
BFC7FFD3F0
FFC7FFD3F4
FFC7FFD3F8
FFC7FFD3F8
FFC7FFD3F8
FFC7FFD3F8
FFC7FFD3F8
FFC7FFD3F8
FFC7FFC3F8
FFD15547F8
FFF4001FF8
FFFFFFFFF8
FFFFFFFFF8
FFFFFFFFF4
7FFFFFFFF0
2FFFFFFFD0
0BFFFFFF40
01BFFFE800
ENDCHAR
STARTCHAR Odieresis
ENCODING 214
SWIDTH 578 0
DWIDTH 19 0
BBX 19 30 0 0
BITMAP
0000140000
0007FFD000
003FFFF800
00BFFFFE00
00FEBEBF00
01F87C3F40
01F97D7F00
00FFFFFE00
007FFFFC00
06FFFFFD00
1FF4001F80
3FD15547E0
BFC7FFD3F0
FFC7FFD3F4
FFC7FFD3F8
FFC7FFD3F8
FFC7FFD3F8
FFC7FFD3F8
FFC7FFD3F8
FFC7FFD3F8
FFC7FFC3F8
FFD15547F8
FFF4001FF8
FFFFFFFFF8
FFFFFFFFF8
FFFFFFFFF4
7FFFFFFFF0
2FFFFFFFD0
0BFFFFFF40
01BFFFE800
ENDCHAR
STARTCHAR multiply
ENCODING 215
SWIDTH 578 0
DWIDTH 19 0
BBX 19 22 0 0
BITMAP
0015555000
06FFFFFD00
1FFFFFFF80
3FFFFFFFE0
BFFFFFFFF0
FFFEFEBFF4
FFFD387FF8
FFFF41FFF8
FFFF83FFF8
FFFE14FFF8
FFFC7D7FF8
FFFFFFFFF8
FFFFFFFFF8
FFFFFFFFF8
FFFFFFFFF8
FFFFFFFFF8
FFFFFFFFF8
FFFFFFFFF4
7FFFFFFFF0
2FFFFFFFD0
0BFFFFFF40
01BFFFE800
ENDCHAR
STARTCHAR Oslash
ENCODING 216
SWIDTH 578 0
DWIDTH 19 0
BBX 19 22 0 0
BITMAP
0015555000
06FFFFFD00
1FE0001F80
3FC15507E0
BFC7FE07F0
FFC7FC47F4
FFC7F4C7F8
FFC7E2C7F8
FFC7C7C7F8
FFC74FC7F8
FFC62FC7F8
FFC47FC7F8
FFC0FFC7F8
FFC0550BF8
FFF5005FF8
FFFFFFFFF8
FFFFFFFFF8
FFFFFFFFF4
7FFFFFFFF0
2FFFFFFFD0
0BFFFFFF40
01BFFFE800
ENDCHAR
STARTCHAR Ugrave
ENCODING 217
SWIDTH 578 0
DWIDTH 19 0
BBX 19 31 0 0
BITMAP
001AA40000
00BFFD0000
02FFFE0000
02FC7F0000
01FD3F4000
00FF2F8000
007F5FC000
003F8FD000
001FEFC000
001FFFD000
06FFFFFD00
1FC7FFC780
3FC7FFC7E0
BFC7FFC7F0
FFC7FFC7F4
FFC7FFC7F8
FFC7FFC7F8
FFC7FFC7F8
FFC7FFC7F8
FFC7FFC7F8
FFC7FFC7F8
FFC7FFC7F8
FFD15507F8
FFF4001FF8
FFFFFFFFF8
FFFFFFFFF8
FFFFFFFFF4
7FFFFFFFF0
2FFFFFFFD0
0BFFFFFF40
01BFFFE800
ENDCHAR
STARTCHAR Uacute
ENCODING 218
SWIDTH 578 0
DWIDTH 19 0
BBX 19 31 0 0
BITMAP
00001A9000
0000FFFD00
0001FFFF00
0002F8BF00
0003F4FE00
0007F2FD00
000BE3F800
000FD7F400
000FFFE000
001BFFD000
06FFFFFD00
1FC7FFC780
3FC7FFC7E0
BFC7FFC7F0
FFC7FFC7F4
FFC7FFC7F8
FFC7FFC7F8
FFC7FFC7F8
FFC7FFC7F8
FFC7FFC7F8
FFC7FFC7F8
FFC7FFC7F8
FFD15507F8
FFF4001FF8
FFFFFFFFF8
FFFFFFFFF8
FFFFFFFFF4
7FFFFFFFF0
2FFFFFFFD0
0BFFFFFF40
01BFFFE800
ENDCHAR
STARTCHAR Ucircumflex
ENCODING 219
SWIDTH 578 0
DWIDTH 19 0
BBX 19 32 0 0
BITMAP
0000550000
0002FF8000
0007FFD000
000FEBF000
001FC3F400
002F96F800
003F69FC00
007E3CBD00
00BD7D7E00
00BFFFFE00
007FFFFD00
06FFFFFD00
1FC7FFC780
3FC7FFC7E0
BFC7FFC7F0
FFC7FFC7F4
FFC7FFC7F8
FFC7FFC7F8
FFC7FFC7F8
FFC7FFC7F8
FFC7FFC7F8
FFC7FFC7F8
FFC7FFC7F8
FFD15507F8
FFF4001FF8
FFFFFFFFF8
FFFFFFFFF8
FFFFFFFFF4
7FFFFFFFF0
2FFFFFFFD0
0BFFFFFF40
01BFFFE800
ENDCHAR
STARTCHAR Udieresis
ENCODING 220
SWIDTH 578 0
DWIDTH 19 0
BBX 19 30 0 0
BITMAP
0000140000
0007FFD000
002FFFFC00
00BFFFFE00
00FEBEBF40
01FC3C3F40
00FD7D7F40
00BFFFFF00
007FFFFD00
06FFFFFD00
1FC7FFC780
3FC7FFC7E0
BFC7FFC7F0
FFC7FFC7F4
FFC7FFC7F8
FFC7FFC7F8
FFC7FFC7F8
FFC7FFC7F8
FFC7FFC7F8
FFC7FFC7F8
FFC7FFC7F8
FFD15507F8
FFF4001FF8
FFFFFFFFF8
FFFFFFFFF8
FFFFFFFFF4
7FFFFFFFF0
2FFFFFFFD0
0BFFFFFF40
01BFFFE800
ENDCHAR
STARTCHAR Yacute
ENCODING 221
SWIDTH 578 0
DWIDTH 19 0
BBX 19 31 0 0
BITMAP
00001A9000
0000FFFD00
0002FFFE00
0003F4BF00
0007F4FE00
0007F2FD00
000BE3F800
000FDBF000
000FFFE000
001FFFD000
06FFFFFD00
1FD2FF8780
3FF1FF4FE0
BFF4FE1FF0
FFF87D2FF4
FFFC3C7FF8
FFFE28BFF8
FFFF10FFF8
FFFF41FFF8
FFFF83FFF8
FFFFC7FFF8
FFFFC7FFF8
FFFFC7FFF8
FFFFD7FFF8
FFFFFFFFF8
FFFFFFFFF8
FFFFFFFFF4
7FFFFFFFF0
2FFFFFFFD0
0BFFFFFF40
01BFFFE800
ENDCHAR
STARTCHAR Thorn
ENCODING 222
SWIDTH 578 0
DWIDTH 19 0
BBX 19 22 0 0
BITMAP
0015555000
06FAFFFD00
1FF1FFFF80
3FF1FFFFE0
BFF0556FF0
FFF0000BF4
FFF1FF8BF8
FFF1FFC7F8
FFF1FFC7F8
FFF1AA4BF8
FFF0000FF8
FFF1AABFF8
FFF1FFFFF8
FFF1FFFFF8
FFF2FFFFF8
FFFFFFFFF8
FFFFFFFFF8
FFFFFFFFF4
7FFFFFFFF0
2FFFFFFFD0
0BFFFFFF40
01BFFFE800
ENDCHAR
STARTCHAR germandbls
ENCODING 223
SWIDTH 578 0
DWIDTH 19 0
BBX 19 22 0 0
BITMAP
0015555000
06FFFFFD00
1FF4006F80
3FD1550FE0
BFC7FF4FF0
FFC7FF4FF4
FFC7FF5FF8
FFC7F82FF8
FFC7F80BF8
FFC7FFC7F8
FFC7FFC7F8
FFC7FFC7F8
FFC7FFC7F8
FFC79507F8
FFC7801FF8
FFFFFFFFF8
FFFFFFFFF8
FFFFFFFFF4
7FFFFFFFF0
2FFFFFFFD0
0BFFFFFF40
01BFFFE800
ENDCHAR
STARTCHAR agrave
ENCODING 224
SWIDTH 578 0
DWIDTH 19 0
BBX 19 31 0 0
BITMAP
001AA40000
00BFFD0000
02FFFE0000
02FC7F0000
02FD3F4000
00FE2F8000
007F5FC000
003F8FC000
001FEFC000
001FFFD000
06FFFFFD00
1FE0007F80
3FF5551FE0
BFFFFF1FF0
FFFFFF1FF4
FFFFFF1FF8
FFFFFF1FF8
FFE4011FF8
FF81541FF8
FF8BFF1FF8
FF8BFF1FF8
FF8BFF1FF8
FF81551FF8
FFE4015FF8
FFFFFFFFF8
FFFFFFFFF8
FFFFFFFFF4
7FFFFFFFF0
2FFFFFFFD0
0BFFFFFF40
01BFFFE800
ENDCHAR
STARTCHAR aacute
ENCODING 225
SWIDTH 578 0
DWIDTH 19 0
BBX 19 31 0 0
BITMAP
00001A9000
0000FFFD00
0002FFFE00
0003F8BF00
0003F4FE00
0007F2FD00
000BE3F800
000FD7F000
000FFFE000
001BFFD000
06FFFFFD00
1FE0007F80
3FF5551FE0
BFFFFF1FF0
FFFFFF1FF4
FFFFFF1FF8
FFFFFF1FF8
FFE4011FF8
FF81541FF8
FF8BFF1FF8
FF8BFF1FF8
FF8BFF1FF8
FF81551FF8
FFE4015FF8
FFFFFFFFF8
FFFFFFFFF8
FFFFFFFFF4
7FFFFFFFF0
2FFFFFFFD0
0BFFFFFF40
01BFFFE800
ENDCHAR
STARTCHAR acircumflex
ENCODING 226
SWIDTH 578 0
DWIDTH 19 0
BBX 19 32 0 0
BITMAP
0000550000
0002FF8000
0007FFD000
000FEBE000
001FC3F400
002F96F800
007F29FC00
00BE3CFD00
00BD7DBE00
00BFFFFE00
00BFFFFD00
06FFFFFD00
1FE0007F80
3FF5551FE0
BFFFFF1FF0
FFFFFF1FF4
FFFFFF1FF8
FFFFFF1FF8
FFE4011FF8
FF81541FF8
FF8BFF1FF8
FF8BFF1FF8
FF8BFF1FF8
FF81551FF8
FFE4015FF8
FFFFFFFFF8
FFFFFFFFF8
FFFFFFFFF4
7FFFFFFFF0
2FFFFFFFD0
0BFFFFFF40
01BFFFE800
ENDCHAR
STARTCHAR atilde
ENCODING 227
SWIDTH 578 0
DWIDTH 19 0
BBX 19 31 0 0
BITMAP
0000140000
000BFFE000
003FFFFD00
00FFFFFF00
01FFFFFF40
02FFFFFF80
03FEFFBFC0
02F8092FC0
02F4D03F80
00FFFFFF00
06FFFFFF00
1FE0007F80
3FF5551FE0
BFFFFF1FF0
FFFFFF1FF4
FFFFFF1FF8
FFFFFF1FF8
FFE4011FF8
FF81541FF8
FF8BFF1FF8
FF8BFF1FF8
FF8BFF1FF8
FF81551FF8
FFE4015FF8
FFFFFFFFF8
FFFFFFFFF8
FFFFFFFFF4
7FFFFFFFF0
2FFFFFFFD0
0BFFFFFF40
01BFFFE800
ENDCHAR
STARTCHAR adieresis
ENCODING 228
SWIDTH 578 0
DWIDTH 19 0
BBX 19 30 0 0
BITMAP
0000140000
0007FFD000
002FFFF800
00BFFFFE00
00FEBEBF00
01F83C3F40
00FD7D7F00
00BFFFFE00
007FFFFD00
06FFFFFD00
1FE0007F80
3FF5551FE0
BFFFFF1FF0
FFFFFF1FF4
FFFFFF1FF8
FFFFFF1FF8
FFE4011FF8
FF81541FF8
FF8BFF1FF8
FF8BFF1FF8
FF8BFF1FF8
FF81551FF8
FFE4015FF8
FFFFFFFFF8
FFFFFFFFF8
FFFFFFFFF4
7FFFFFFFF0
2FFFFFFFD0
0BFFFFFF40
01BFFFE800
ENDCHAR
STARTCHAR aring
ENCODING 229
SWIDTH 578 0
DWIDTH 19 0
BBX 19 30 0 0
BITMAP
0002BE4000
001FFFE000
003FFFF800
00BE01FD00
00FD78BE00
00FDBDBE00
00FD68BE00
00FF41FE00
00BFFFFD00
06FFFFFD00
1FE0007F80
3FF5551FE0
BFFFFF1FF0
FFFFFF1FF4
FFFFFF1FF8
FFFFFF1FF8
FFE4011FF8
FF81541FF8
FF8BFF1FF8
FF8BFF1FF8
FF8BFF1FF8
FF81551FF8
FFE4015FF8
FFFFFFFFF8
FFFFFFFFF8
FFFFFFFFF4
7FFFFFFFF0
2FFFFFFFD0
0BFFFFFF40
01BFFFE800
ENDCHAR
STARTCHAR ae
ENCODING 230
SWIDTH 578 0
DWIDTH 19 0
BBX 19 22 0 0
BITMAP
0015555000
06FFFFFD00
1FE4000780
3FC1415BE0
BFC7C7FFF0
FFC7C7FFF4
FF8BC7FFF8
FF8BC6ABF8
FF8BC007F8
FF4FC6AFF8
FF4FC7FFF8
FF4007FFF8
FF0547FFF8
FF1FC157F8
FF6FD557F8
FFFFFFFFF8
FFFFFFFFF8
FFFFFFFFF4
7FFFFFFFF0
2FFFFFFFD0
0BFFFFFF40
01BFFFE800
ENDCHAR
STARTCHAR ccedilla
ENCODING 231
SWIDTH 578 0
DWIDTH 19 0
BBX 19 22 0 0
BITMAP
0015555000
06FFFFFD00
1FE0003F80
3FC1557FE0
BFC7FFFFF0
FFC7FFFFF4
FFC7FFFFF8
FFC7FFFFF8
FFC7FFFFF8
FFC7FFFFF8
FFC7FFFFF8
FFC7FFFFF8
FFC7FFFFF8
FFC1553FF8
FFE4007FF8
FFFF4BFFF8
FFFD1BFFF8
FFFCBFFFF4
7FFC5FFFF0
2FFE4BFFD0
0BFFFFFF40
01BFFFE800
ENDCHAR
STARTCHAR egrave
ENCODING 232
SWIDTH 578 0
DWIDTH 19 0
BBX 19 31 0 0
BITMAP
001AA00000
00BFFD0000
02FFFE0000
03F87F0000
02FD3F4000
01FE2F8000
00BF2F8000
003F9FC000
001FEFC000
001FFFD000
06FFFFFD00
1FE0007F80
3FC1551FE0
BF8BFF1FF0
FF8BFF1FF4
FF86AA1FF8
FF80001FF8
FF86AAAFF8
FF8BFFFFF8
FF8BFFFFF8
FF8BFFFFF8
FFC6AABFF8
FFD0003FF8
FFFAAABFF8
FFFFFFFFF8
FFFFFFFFF8
FFFFFFFFF4
7FFFFFFFF0
2FFFFFFFD0
0BFFFFFF40
01BFFFE800
ENDCHAR
STARTCHAR eacute
ENCODING 233
SWIDTH 578 0
DWIDTH 19 0
BBX 19 31 0 0
BITMAP
00006A9000
0001FFF800
0003FFFD00
0007F0FE00
000BE2FD00
000FE3FC00
000FD7F400
001FCFE000
001FFFC000
001FFFD000
06FFFFFD00
1FE0007F80
3FC1551FE0
BF8BFF1FF0
FF8BFF1FF4
FF86AA1FF8
FF80001FF8
FF86AAAFF8
FF8BFFFFF8
FF8BFFFFF8
FF8BFFFFF8
FFC6AABFF8
FFD0003FF8
FFFAAABFF8
FFFFFFFFF8
FFFFFFFFF8
FFFFFFFFF4
7FFFFFFFF0
2FFFFFFFD0
0BFFFFFF40
01BFFFE800
ENDCHAR
STARTCHAR ecircumflex
ENCODING 234
SWIDTH 578 0
DWIDTH 19 0
BBX 19 32 0 0
BITMAP
0000540000
0007FE0000
000FFF8000
002FAFC000
003F4BE000
007F27F000
00FD73F400
01FCB6F800
01F8F9FC00
01FFFFFC00
00FFFFF800
06FFFFFD00
1FE0007F80
3FC1551FE0
BF8BFF1FF0
FF8BFF1FF4
FF86AA1FF8
FF80001FF8
FF86AAAFF8
FF8BFFFFF8
FF8BFFFFF8
FF8BFFFFF8
FFC6AABFF8
FFD0003FF8
FFFAAABFF8
FFFFFFFFF8
FFFFFFFFF8
FFFFFFFFF4
7FFFFFFFF0
2FFFFFFFD0
0BFFFFFF40
01BFFFE800
ENDCHAR
STARTCHAR edieresis
ENCODING 235
SWIDTH 578 0
DWIDTH 19 0
BBX 19 30 0 0
BITMAP
0000500000
001BFF8000
00BFFFF000
02FFFFFC00
03FAFAFD00
03F0F0FD00
03F5F5FD00
02FFFFFC00
00FFFFF400
06FFFFFD00
1FE0007F80
3FC1551FE0
BF8BFF1FF0
FF8BFF1FF4
FF86AA1FF8
FF80001FF8
FF86AAAFF8
FF8BFFFFF8
FF8BFFFFF8
FF8BFFFFF8
FFC6AABFF8
FFD0003FF8
FFFAAABFF8
FFFFFFFFF8
FFFFFFFFF8
FFFFFFFFF4
7FFFFFFFF0
2FFFFFFFD0
0BFFFFFF40
01BFFFE800
ENDCHAR
STARTCHAR igrave
ENCODING 236
SWIDTH 578 0
DWIDTH 19 0
BBX 19 31 0 0
BITMAP
001AA40000
00BFFD0000
02FFFE0000
02FC7F0000
01FD3F4000
00FF2F8000
007F5FC000
002F8FD000
001FEFD000
001FFFD000
06FFFFFD00
1FE0000780
3FE5415BE0
BFFFD3FFF0
FFFFD3FFF4
FFFFD3FFF8
FFFFD3FFF8
FFFFD3FFF8
FFFFD3FFF8
FFFFD3FFF8
FFFFD3FFF8
FFFFD3FFF8
FFE5415BF8
FFE00007F8
FFFFFFFFF8
FFFFFFFFF8
FFFFFFFFF4
7FFFFFFFF0
2FFFFFFFD0
0BFFFFFF40
01BFFFE800
ENDCHAR
STARTCHAR iacute
ENCODING 237
SWIDTH 578 0
DWIDTH 19 0
BBX 19 31 0 0
BITMAP
00001A9000
0000FFFD00
0001FFFF00
0002F8BF00
0003F4FE00
0007F2FD00
000BE3F800
000FD7F400
000BFFE000
001BFFD000
06FFFFFD00
1FE0000780
3FE5415BE0
BFFFD3FFF0
FFFFD3FFF4
FFFFD3FFF8
FFFFD3FFF8
FFFFD3FFF8
FFFFD3FFF8
FFFFD3FFF8
FFFFD3FFF8
FFFFD3FFF8
FFE5415BF8
FFE00007F8
FFFFFFFFF8
FFFFFFFFF8
FFFFFFFFF4
7FFFFFFFF0
2FFFFFFFD0
0BFFFFFF40
01BFFFE800
ENDCHAR
STARTCHAR icircumflex
ENCODING 238
SWIDTH 578 0
DWIDTH 19 0
BBX 19 32 0 0
BITMAP
0000550000
0002FF8000
0007FFD000
000FEBF000
001FC3F400
002F96F800
003F69FC00
007E3CBD00
00BD7D7E00
00BFFFFE00
007FFFFD00
06FFFFFD00
1FE0000780
3FE5415BE0
BFFFD3FFF0
FFFFD3FFF4
FFFFD3FFF8
FFFFD3FFF8
FFFFD3FFF8
FFFFD3FFF8
FFFFD3FFF8
FFFFD3FFF8
FFFFD3FFF8
FFE5415BF8
FFE00007F8
FFFFFFFFF8
FFFFFFFFF8
FFFFFFFFF4
7FFFFFFFF0
2FFFFFFFD0
0BFFFFFF40
01BFFFE800
ENDCHAR
STARTCHAR idieresis
ENCODING 239
SWIDTH 578 0
DWIDTH 19 0
BBX 19 30 0 0
BITMAP
0000140000
0006FFD000
002FFFFC00
00BFFFFE00
00FEBEBF40
00FC3C3F40
00FD7D7F40
00BFFFFF00
007FFFFD00
06FFFFFD00
1FE0000780
3FE5415BE0
BFFFD3FFF0
FFFFD3FFF4
FFFFD3FFF8
FFFFD3FFF8
FFFFD3FFF8
FFFFD3FFF8
FFFFD3FFF8
FFFFD3FFF8
FFFFD3FFF8
FFE5415BF8
FFE00007F8
FFFFFFFFF8
FFFFFFFFF8
FFFFFFFFF4
7FFFFFFFF0
2FFFFFFFD0
0BFFFFFF40
01BFFFE800
ENDCHAR
STARTCHAR eth
ENCODING 240
SWIDTH 578 0
DWIDTH 19 0
BBX 19 22 0 0
BITMAP
0015555000
06FFFFFD00
1FC0001F80
3FC15547E0
BFC7FFD3F0
FFC7FFD3F4
FFC7FFD3F8
FF86FFD3F8
FF00FFD3F8
FFC7FFD3F8
FFC7FFD3F8
FFC7FFD3F8
FFC7FFD3F8
FFC15547F8
FFD0001FF8
FFFFFFFFF8
FFFFFFFFF8
FFFFFFFFF4
7FFFFFFFF0
2FFFFFFFD0
0BFFFFFF40
01BFFFE800
ENDCHAR
STARTCHAR ntilde
ENCODING 241
SWIDTH 578 0
DWIDTH 19 0
BBX 19 32 0 0
BITMAP
0000540000
001BFF9000
00BFFFF400
02FFFFFD00
03FFFFFF00
07FFFFFF00
0BFEFEBF40
07F0187F40
07E290BF00
02FFFFFD00
00FFFFF800
06FFFFFD00
1FD4001F80
3FC1554BE0
BFC7FFC7F0
FFC7FFC7F4
FFC7FFC7F8
FFC7FFC7F8
FFC7FFC7F8
FFC7FFC7F8
FFC7FFC7F8
FFC7FFC7F8
FFC7FFC7F8
FFC7FFC7F8
FFC7FFC7F8
FFFFFFFFF8
FFFFFFFFF8
FFFFFFFFF4
7FFFFFFFF0
2FFFFFFFD0
0BFFFFFF40
01BFFFE800
ENDCHAR
STARTCHAR oacute
ENCODING 243
SWIDTH 578 0
DWIDTH 19 0
BBX 19 31 0 0
BITMAP
00006A9000
0001FFF800
0003FFFD00
0007F0FE00
000BF1FD00
000BE3FC00
000FD7F400
001FCFE000
001FFFD000
001FFFD000
06FFFFFD00
1FF4001F80
3FD15547E0
BFC7FFD3F0
FFC7FFD3F4
FFC7FFD3F8
FFC7FFD3F8
FFC7FFD3F8
FFC7FFD3F8
FFC7FFD3F8
FFC7FFD3F8
FFC7FFC3F8
FFD15547F8
FFF4001FF8
FFFFFFFFF8
FFFFFFFFF8
FFFFFFFFF4
7FFFFFFFF0
2FFFFFFFD0
0BFFFFFF40
01BFFFE800
ENDCHAR
STARTCHAR ocircumflex
ENCODING 244
SWIDTH 578 0
DWIDTH 19 0
BBX 19 32 0 0
BITMAP
0000550000
0002FF8000
0007FFD000
000FEBE000
001FC3F400
002F96F800
003F29FC00
007E3CFD00
00BD7DBE00
00BFFFFE00
00BFFFFD00
06FFFFFD00
1FF4001F80
3FD15547E0
BFC7FFD3F0
FFC7FFD3F4
FFC7FFD3F8
FFC7FFD3F8
FFC7FFD3F8
FFC7FFD3F8
FFC7FFD3F8
FFC7FFD3F8
FFC7FFC3F8
FFD15547F8
FFF4001FF8
FFFFFFFFF8
FFFFFFFFF8
FFFFFFFFF4
7FFFFFFFF0
2FFFFFFFD0
0BFFFFFF40
01BFFFE800
ENDCHAR
STARTCHAR otilde
ENCODING 245
SWIDTH 578 0
DWIDTH 19 0
BBX 19 31 0 0
BITMAP
0000540000
000BFFD000
007FFFF800
00FFFFFE00
02FFFFFF40
03FFFFFF80
03FEFEBF80
03F4093F80
02F1D07F40
01FFFFFF00
06FFFFFE00
1FF4001F80
3FD15547E0
BFC7FFD3F0
FFC7FFD3F4
FFC7FFD3F8
FFC7FFD3F8
FFC7FFD3F8
FFC7FFD3F8
FFC7FFD3F8
FFC7FFD3F8
FFC7FFC3F8
FFD15547F8
FFF4001FF8
FFFFFFFFF8
FFFFFFFFF8
FFFFFFFFF4
7FFFFFFFF0
2FFFFFFFD0
0BFFFFFF40
01BFFFE800
ENDCHAR
STARTCHAR odieresis
ENCODING 246
SWIDTH 578 0
DWIDTH 19 0
BBX 19 30 0 0
BITMAP
0000140000
0007FFD000
002FFFFC00
00BFFFFE00
00FEBEBF40
01FC3C3F40
00FD7D7F40
00BFFFFF00
007FFFFD00
06FFFFFD00
1FF4001F80
3FD15547E0
BFC7FFD3F0
FFC7FFD3F4
FFC7FFD3F8
FFC7FFD3F8
FFC7FFD3F8
FFC7FFD3F8
FFC7FFD3F8
FFC7FFD3F8
FFC7FFC3F8
FFD15547F8
FFF4001FF8
FFFFFFFFF8
FFFFFFFFF8
FFFFFFFFF4
7FFFFFFFF0
2FFFFFFFD0
0BFFFFFF40
01BFFFE800
ENDCHAR
STARTCHAR divide
ENCODING 247
SWIDTH 428 0
DWIDTH 14 0
BBX 14 22 0 0
BITMAP
00154000
06FFF800
1FFFFF00
3FF5FF80
BFE0FFD0
FFFAFFE0
FF001FE0
FF555FE0
FFF6FFE0
FFE0FFE0
FFFAFFE0
FFFFFFE0
FFFFFFE0
FFFFFFE0
FFFFFFE0
FFFFFFE0
FFFFFFE0
FFFFFFE0
7FFFFFD0
2FFFFF80
0BFFFE00
01BFE000
ENDCHAR
STARTCHAR oslash
ENCODING 248
SWIDTH 578 0
DWIDTH 19 0
BBX 19 22 0 0
BITMAP
0015555000
06FFFFFD00
1FE0001F80
3FC15507E0
BFC7FE07F0
FFC7FC47F4
FFC7F4C7F8
FFC7E2C7F8
FFC7C7C7F8
FFC74FC7F8
FFC62FC7F8
FFC47FC7F8
FFC0FFC7F8
FFC0550BF8
FFF5005FF8
FFFFFFFFF8
FFFFFFFFF8
FFFFFFFFF4
7FFFFFFFF0
2FFFFFFFD0
0BFFFFFF40
01BFFFE800
ENDCHAR
STARTCHAR ugrave
ENCODING 249
SWIDTH 578 0
DWIDTH 19 0
BBX 19 31 0 0
BITMAP
001AA40000
00BFFD0000
02FFFE0000
02FC7F0000
01FD3F4000
00FF2F8000
007F5FC000
002F8FD000
001FEFD000
001FFFD000
06FFFFFD00
1FC7FFC780
3FC7FFC7E0
BFC7FFC7F0
FFC7FFC7F4
FFC7FFC7F8
FFC7FFC7F8
FFC7FFC7F8
FFC7FFC7F8
FFC7FFC7F8
FFC7FFC7F8
FFC7FFC7F8
FFD15507F8
FFF4001FF8
FFFFFFFFF8
FFFFFFFFF8
FFFFFFFFF4
7FFFFFFFF0
2FFFFFFFD0
0BFFFFFF40
01BFFFE800
ENDCHAR
STARTCHAR uacute
ENCODING 250
SWIDTH 578 0
DWIDTH 19 0
BBX 19 31 0 0
BITMAP
00001A9000
0000FFFD00
0001FFFF00
0002F8BF00
0003F4FE00
0007F2FD00
000BE3F800
000FD7F400
000BFFE000
001BFFD000
06FFFFFD00
1FC7FFC780
3FC7FFC7E0
BFC7FFC7F0
FFC7FFC7F4
FFC7FFC7F8
FFC7FFC7F8
FFC7FFC7F8
FFC7FFC7F8
FFC7FFC7F8
FFC7FFC7F8
FFC7FFC7F8
FFD15507F8
FFF4001FF8
FFFFFFFFF8
FFFFFFFFF8
FFFFFFFFF4
7FFFFFFFF0
2FFFFFFFD0
0BFFFFFF40
01BFFFE800
ENDCHAR
STARTCHAR ucircumflex
ENCODING 251
SWIDTH 578 0
DWIDTH 19 0
BBX 19 32 0 0
BITMAP
0000550000
0002FF8000
0007FFD000
000FEBF000
001FC3F400
002F96F800
003F69FC00
007E3CBD00
00BD7D7E00
00BFFFFE00
007FFFFD00
06FFFFFD00
1FC7FFC780
3FC7FFC7E0
BFC7FFC7F0
FFC7FFC7F4
FFC7FFC7F8
FFC7FFC7F8
FFC7FFC7F8
FFC7FFC7F8
FFC7FFC7F8
FFC7FFC7F8
FFC7FFC7F8
FFD15507F8
FFF4001FF8
FFFFFFFFF8
FFFFFFFFF8
FFFFFFFFF4
7FFFFFFFF0
2FFFFFFFD0
0BFFFFFF40
01BFFFE800
ENDCHAR
STARTCHAR udieresis
ENCODING 252
SWIDTH 578 0
DWIDTH 19 0
BBX 19 30 0 0
BITMAP
0000140000
0006FFD000
002FFFFC00
00BFFFFE00
00FEBEBF40
00FC3C3F40
00FD7D7F40
00BFFFFF00
007FFFFD00
06FFFFFD00
1FC7FFC780
3FC7FFC7E0
BFC7FFC7F0
FFC7FFC7F4
FFC7FFC7F8
FFC7FFC7F8
FFC7FFC7F8
FFC7FFC7F8
FFC7FFC7F8
FFC7FFC7F8
FFC7FFC7F8
FFD15507F8
FFF4001FF8
FFFFFFFFF8
FFFFFFFFF8
FFFFFFFFF4
7FFFFFFFF0
2FFFFFFFD0
0BFFFFFF40
01BFFFE800
ENDCHAR
STARTCHAR yacute
ENCODING 253
SWIDTH 578 0
DWIDTH 19 0
BBX 19 31 0 0
BITMAP
00001A9000
0000FFFD00
0002FFFE00
0003F4BF00
0007F4FE00
0007F2FD00
000BE3F800
000FDBF000
000FFFE000
001FFFD000
06FFFFFD00
1FD2FF8780
3FF1FF4FE0
BFF4FE1FF0
FFF87D2FF4
FFFC3C7FF8
FFFE28BFF8
FFFF10FFF8
FFFF41FFF8
FFFF83FFF8
FFFFC7FFF8
FFFFC7FFF8
FFFFC7FFF8
FFFFD7FFF8
FFFFFFFFF8
FFFFFFFFF8
FFFFFFFFF4
7FFFFFFFF0
2FFFFFFFD0
0BFFFFFF40
01BFFFE800
ENDCHAR
STARTCHAR thorn
ENCODING 254
SWIDTH 578 0
DWIDTH 19 0
BBX 19 22 0 0
BITMAP
0015555000
06FAFFFD00
1FF1FFFF80
3FF1FFFFE0
BFF0556FF0
FFF0000BF4
FFF1FF8BF8
FFF1FFC7F8
FFF1FFC7F8
FFF1AA4BF8
FFF0000FF8
FFF1AABFF8
FFF1FFFFF8
FFF1FFFFF8
FFF2FFFFF8
FFFFFFFFF8
FFFFFFFFF8
FFFFFFFFF4
7FFFFFFFF0
2FFFFFFFD0
0BFFFFFF40
01BFFFE800
ENDCHAR
STARTCHAR ydieresis
ENCODING 255
SWIDTH 578 0
DWIDTH 19 0
BBX 19 30 0 0
BITMAP
0000140000
0007FFD000
002FFFF800
00BFFFFE00
00FEBEBF00
01F83C3F40
00FD7D7F00
00BFFFFE00
007FFFFD00
06FFFFFD00
1FD2FF8780
3FF1FF4FE0
BFF4FE1FF0
FFF87D2FF4
FFFC3C7FF8
FFFE28BFF8
FFFF10FFF8
FFFF41FFF8
FFFF83FFF8
FFFFC7FFF8
FFFFC7FFF8
FFFFC7FFF8
FFFFD7FFF8
FFFFFFFFF8
FFFFFFFFF8
FFFFFFFFF4
7FFFFFFFF0
2FFFFFFFD0
0BFFFFFF40
01BFFFE800
ENDCHAR
STARTCHAR Amacron
ENCODING 256
SWIDTH 578 0
DWIDTH 19 0
BBX 19 30 0 0
BITMAP
0000550000
001BFFE000
00BFFFFD00
02FFFFFF00
03FFFFFF40
03F800BF80
03F955BF80
02FFFFFF40
01FFFFFE00
06FFFFFD00
1FF9007F80
3FF0551FE0
BFE2FF1FF0
FFE2FF0FF4
FFE2FF4FF8
FFD3FF4FF8
FFD2AA4BF8
FFD0000BF8
FFC3FF8BF8
FFC7FF87F8
FFC7FFC7F8
FF87FFC7F8
FF8BFFC7F8
FFFFFFFFF8
FFFFFFFFF8
FFFFFFFFF4
7FFFFFFFF0
2FFFFFFFD0
0BFFFFFF40
01BFFFE800
ENDCHAR
STARTCHAR amacron
ENCODING 257
SWIDTH 578 0
DWIDTH 19 0
BBX 19 30 0 0
BITMAP
0000550000
001BFFE400
007FFFFD00
01FFFFFF40
02FFFFFF80
03FC007FC0
02FD557F80
01FFFFFF80
00FFFFFF00
06FFFFFE00
1FE0007F80
3FF5551FE0
BFFFFF1FF0
FFFFFF1FF4
FFFFFF1FF8
FFFFFF1FF8
FFE4011FF8
FF81541FF8
FF8BFF1FF8
FF8BFF1FF8
FF8BFF1FF8
FF81551FF8
FFE4015FF8
FFFFFFFFF8
FFFFFFFFF8
FFFFFFFFF4
7FFFFFFFF0
2FFFFFFFD0
0BFFFFFF40
01BFFFE800
ENDCHAR
STARTCHAR Abreve
ENCODING 258
SWIDTH 578 0
DWIDTH 19 0
BBX 19 30 0 0
BITMAP
0000550000
001BFFE000
00BFFFFD00
02FFFFFF00
03FFFFFF40
03FDBDBF80
03FC64BF80
02FE01FF40
01FFFFFE00
06FFFFFD00
1FF9007F80
3FF0551FE0
BFE2FF1FF0
FFE2FF0FF4
FFE2FF4FF8
FFD3FF4FF8
FFD2AA4BF8
FFD0000BF8
FFC3FF8BF8
FFC7FF87F8
FFC7FFC7F8
FF87FFC7F8
FF8BFFC7F8
FFFFFFFFF8
FFFFFFFFF8
FFFFFFFFF4
7FFFFFFFF0
2FFFFFFFD0
0BFFFFFF40
01BFFFE800
ENDCHAR
STARTCHAR abreve
ENCODING 259
SWIDTH 578 0
DWIDTH 19 0
BBX 19 30 0 0
BITMAP
0000550000
001BFFE400
007FFFFD00
01FFFFFF40
02FFFFFF80
03FDBE7FC0
02FD287F80
01FF41BF80
00FFFFFF00
06FFFFFE00
1FE0007F80
3FF5551FE0
BFFFFF1FF0
FFFFFF1FF4
FFFFFF1FF8
FFFFFF1FF8
FFE4011FF8
FF81541FF8
FF8BFF1FF8
FF8BFF1FF8
FF8BFF1FF8
FF81551FF8
FFE4015FF8
FFFFFFFFF8
FFFFFFFFF8
FFFFFFFFF4
7FFFFFFFF0
2FFFFFFFD0
0BFFFFFF40
01BFFFE800
ENDCHAR
STARTCHAR Aogonek
ENCODING 260
SWIDTH 578 0
DWIDTH 19 0
BBX 19 22 0 0
BITMAP
0015555000
06FFFFFD00
1FF9007F80
3FF0551FE0
BFE2FF1FF0
FFE2FF0FF4
FFE2FF4FF8
FFD3FF4FF8
FFD2AA4BF8
FFD0000BF8
FFC3FF8BF8
FFC7FF87F8
FFC7FFC7F8
FF87FFC7F8
FF8BFFC7F8
FFFFFF8BF8
FFFFFE2FF8
FFFFFD3FF4
7FFFFE1BF0
2FFFFF47D0
0BFFFFFF40
01BFFFE800
ENDCHAR
STARTCHAR aogonek
ENCODING 261
SWIDTH 578 0
DWIDTH 19 0
BBX 19 22 0 0
BITMAP
0015555000
06FFFFFD00
1FE0007F80
3FF5551FE0
BFFFFF1FF0
FFFFFF1FF4
FFFFFF1FF8
FFFFFF1FF8
FFE4011FF8
FF81541FF8
FF8BFF1FF8
FF8BFF1FF8
FF8BFF1FF8
FF81551FF8
FFE4005FF8
FFFF8BFFF8
FFFF1FFFF8
FFFE3FFFF4
7FFE17FFF0
2FFF93FFD0
0BFFFFFF40
01BFFFE800
ENDCHAR
STARTCHAR Cacute
ENCODING 262
SWIDTH 578 0
DWIDTH 19 0
BBX 19 31 0 0
BITMAP
00001A9000
0000BFFD00
0001FFFF00
0002F8BF00
0003F4FF00
0007F1FD00
000BE3FC00
000BD7F400
000BFFE000
001BFFD000
06FFFFFD00
1FE0003F80
3FC1557FE0
BFC7FFFFF0
FFC7FFFFF4
FFC7FFFFF8
FFC7FFFFF8
FFC7FFFFF8
FFC7FFFFF8
FFC7FFFFF8
FFC7FFFFF8
FFC7FFFFF8
FFC1553FF8
FFE4007FF8
FFFFFFFFF8
FFFFFFFFF8
FFFFFFFFF4
7FFFFFFFF0
2FFFFFFFD0
0BFFFFFF40
01BFFFE800
ENDCHAR
STARTCHAR cacute
ENCODING 263
SWIDTH 578 0
DWIDTH 19 0
BBX 19 31 0 0
BITMAP
00001A9000
0000FFFD00
0001FFFF00
0002F8BF00
0003F4FE00
0007F2FD00
000BE3F800
000FD7F400
000FFFE000
001BFFD000
06FFFFFD00
1FE0003F80
3FC1557FE0
BFC7FFFFF0
FFC7FFFFF4
FFC7FFFFF8
FFC7FFFFF8
FFC7FFFFF8
FFC7FFFFF8
FFC7FFFFF8
FFC7FFFFF8
FFC7FFFFF8
FFC1553FF8
FFE4007FF8
FFFFFFFFF8
FFFFFFFFF8
FFFFFFFFF4
7FFFFFFFF0
2FFFFFFFD0
0BFFFFFF40
01BFFFE800
ENDCHAR
STARTCHAR Ccircumflex
ENCODING 264
SWIDTH 578 0
DWIDTH 19 0
BBX 19 32 0 0
BITMAP
0000540000
0003FF4000
000BFFC000
000FEBE000
002F87F000
003F63F400
007F35FC00
00BE78FD00
00FDBCBD00
00FFFFFD00
00BFFFFC00
06FFFFFD00
1FE0003F80
3FC1557FE0
BFC7FFFFF0
FFC7FFFFF4
FFC7FFFFF8
FFC7FFFFF8
FFC7FFFFF8
FFC7FFFFF8
FFC7FFFFF8
FFC7FFFFF8
FFC7FFFFF8
FFC1553FF8
FFE4007FF8
FFFFFFFFF8
FFFFFFFFF8
FFFFFFFFF4
7FFFFFFFF0
2FFFFFFFD0
0BFFFFFF40
01BFFFE800
ENDCHAR
STARTCHAR ccircumflex
ENCODING 265
SWIDTH 578 0
DWIDTH 19 0
BBX 19 32 0 0
BITMAP
0000540000
0003FF4000
000BFFC000
001FEFE000
002F87F000
003F63F400
007F36F800
00BD78FC00
00FDBCBD00
00FFFFFD00
00BFFFFC00
06FFFFFD00
1FE0003F80
3FC1557FE0
BFC7FFFFF0
FFC7FFFFF4
FFC7FFFFF8
FFC7FFFFF8
FFC7FFFFF8
FFC7FFFFF8
FFC7FFFFF8
FFC7FFFFF8
FFC7FFFFF8
FFC1553FF8
FFE4007FF8
FFFFFFFFF8
FFFFFFFFF8
FFFFFFFFF4
7FFFFFFFF0
2FFFFFFFD0
0BFFFFFF40
01BFFFE800
ENDCHAR
STARTCHAR Cdotaccent
ENCODING 266
SWIDTH 578 0
DWIDTH 19 0
BBX 19 30 0 0
BITMAP
0001540000
006FFF9000
01FFFFF400
07FFFFFD00
0BFFFFFE00
0FFF0FFF00
0FFF0FFF00
0BFFFFFE00
07FFFFFD00
07FFFFFD00
1FE0003F80
3FC1557FE0
BFC7FFFFF0
FFC7FFFFF4
FFC7FFFFF8
FFC7FFFFF8
FFC7FFFFF8
FFC7FFFFF8
FFC7FFFFF8
FFC7FFFFF8
FFC7FFFFF8
FFC1553FF8
FFE4007FF8
FFFFFFFFF8
FFFFFFFFF8
FFFFFFFFF4
7FFFFFFFF0
2FFFFFFFD0
0BFFFFFF40
01BFFFE800
ENDCHAR
STARTCHAR cdotaccent
ENCODING 267
SWIDTH 578 0
DWIDTH 19 0
BBX 19 30 0 0
BITMAP
0001540000
002FFF9000
01FFFFF800
03FFFFFE00
07FFFFFF00
0BFF4BFF40
0BFF4BFF00
07FFFFFF00
03FFFFFE00
07FFFFFE00
1FE0003F80
3FC1557FE0
BFC7FFFFF0
FFC7FFFFF4
FFC7FFFFF8
FFC7FFFFF8
FFC7FFFFF8
FFC7FFFFF8
FFC7FFFFF8
FFC7FFFFF8
FFC7FFFFF8
FFC1553FF8
FFE4007FF8
FFFFFFFFF8
FFFFFFFFF8
FFFFFFFFF4
7FFFFFFFF0
2FFFFFFFD0
0BFFFFFF40
01BFFFE800
ENDCHAR
STARTCHAR Ccaron
ENCODING 268
SWIDTH 578 0
DWIDTH 19 0
BBX 19 31 0 0
BITMAP
0015054000
00BFEFF000
02FFFFF800
02FAFAF800
02F8F2F800
01FDA3F800
00FE57F400
00BF0BF000
00BFAFE000
007FFFE000
06FFFFFD00
1FE0003F80
3FC1557FE0
BFC7FFFFF0
FFC7FFFFF4
FFC7FFFFF8
FFC7FFFFF8
FFC7FFFFF8
FFC7FFFFF8
FFC7FFFFF8
FFC7FFFFF8
FFC7FFFFF8
FFC1553FF8
FFE4007FF8
FFFFFFFFF8
FFFFFFFFF8
FFFFFFFFF4
7FFFFFFFF0
2FFFFFFFD0
0BFFFFFF40
01BFFFE800
ENDCHAR
STARTCHAR ccaron
ENCODING 269
SWIDTH 578 0
DWIDTH 19 0
BBX 19 31 0 0
BITMAP
0015454000
00BFEFF400
01FFFFFC00
01F9F9FC00
01FCB5FC00
00FD72F800
00FF23F800
00BF5BF400
007F9FF000
003FFFE000
06FFFFFD00
1FE0003F80
3FC1557FE0
BFC7FFFFF0
FFC7FFFFF4
FFC7FFFFF8
FFC7FFFFF8
FFC7FFFFF8
FFC7FFFFF8
FFC7FFFFF8
FFC7FFFFF8
FFC7FFFFF8
FFC1553FF8
FFE4007FF8
FFFFFFFFF8
FFFFFFFFF8
FFFFFFFFF4
7FFFFFFFF0
2FFFFFFFD0
0BFFFFFF40
01BFFFE800
ENDCHAR
STARTCHAR Dcaron
ENCODING 270
SWIDTH 578 0
DWIDTH 19 0
BBX 19 31 0 0
BITMAP
0015054000
00BFEFF400
01FFFFF800
01F9F9FC00
01FCF5FC00
01FDB3F800
00FE67F400
00BF1BF400
007F9FF000
003FFFE000
06FFFFFD00
1FC0001F80
3FC15547E0
BFC7FFD3F0
FFC7FFD3F4
FFC7FFD3F8
FFC7FFD3F8
FFC7FFD3F8
FFC7FFD3F8
FFC7FFD3F8
FFC7FFD3F8
FFC7FFD3F8
FFC15547F8
FFD0001FF8
FFFFFFFFF8
FFFFFFFFF8
FFFFFFFFF4
7FFFFFFFF0
2FFFFFFFD0
0BFFFFFF40
01BFFFE800
ENDCHAR
STARTCHAR dcaron
ENCODING 271
SWIDTH 578 0
DWIDTH 19 0
BBX 19 22 0 0
BITMAP
0015555000
06FFFFFD00
1F0001D180
3F155451E0
BF2FFD32F0
FF2FFD37F4
FF2FFD3FF8
FF2FFD3FF8
FF2FFD3FF8
FF2FFD3FF8
FF2FFD3FF8
FF2FFD3FF8
FF2FFD3FF8
FF05547FF8
FF0001FFF8
FFFFFFFFF8
FFFFFFFFF8
FFFFFFFFF4
7FFFFFFFF0
2FFFFFFFD0
0BFFFFFF40
01BFFFE800
ENDCHAR
STARTCHAR Dcroat
ENCODING 272
SWIDTH 578 0
DWIDTH 19 0
BBX 19 22 0 0
BITMAP
0015555000
06FFFFFD00
1FC0001F80
3FC15547E0
BFC7FFD3F0
FFC7FFD3F4
FFC7FFD3F8
FD003FD3F8
FD417FD3F8
FFC7FFD3F8
FFC7FFD3F8
FFC7FFD3F8
FFC7FFD3F8
FFC15547F8
FFD0001FF8
FFFFFFFFF8
FFFFFFFFF8
FFFFFFFFF4
7FFFFFFFF0
2FFFFFFFD0
0BFFFFFF40
01BFFFE800
ENDCHAR
STARTCHAR dcroat
ENCODING 273
SWIDTH 578 0
DWIDTH 19 0
BBX 19 22 0 0
BITMAP
0015555000
06FFFFFD00
1FC0001F80
3FC15547E0
BFC7FFD3F0
FFC7FFD3F4
FFC7FFD3F8
FD003FD3F8
FD417FD3F8
FFC7FFD3F8
FFC7FFD3F8
FFC7FFD3F8
FFC7FFD3F8
FFC15547F8
FFD0001FF8
FFFFFFFFF8
FFFFFFFFF8
FFFFFFFFF4
7FFFFFFFF0
2FFFFFFFD0
0BFFFFFF40
01BFFFE800
ENDCHAR
STARTCHAR Emacron
ENCODING 274
SWIDTH 578 0
DWIDTH 19 0
BBX 19 30 0 0
BITMAP
0000550000
001BFFE400
007FFFFD00
01FFFFFF40
02FFFFFF80
02FC007FC0
02FD557FC0
01FFFFFF80
00FFFFFF00
06FFFFFE00
1FF4000F80
3FF4555FE0
BFF4FFFFF0
FFF4FFFFF4
FFF4FFFFF8
FFF4AABFF8
FFF4003FF8
FFF4AABFF8
FFF4FFFFF8
FFF4FFFFF8
FFF4FFFFF8
FFF4555FF8
FFF4000FF8
FFFFFFFFF8
FFFFFFFFF8
FFFFFFFFF4
7FFFFFFFF0
2FFFFFFFD0
0BFFFFFF40
01BFFFE800
ENDCHAR
STARTCHAR emacron
ENCODING 275
SWIDTH 578 0
DWIDTH 19 0
BBX 19 30 0 0
BITMAP
0001540000
002FFF9000
01FFFFF800
03FFFFFE00
07FFFFFF00
0BF000FF00
0BF555FF00
07FFFFFE00
02FFFFFD00
06FFFFFD00
1FE0007F80
3FC1551FE0
BF8BFF1FF0
FF8BFF1FF4
FF86AA1FF8
FF80001FF8
FF86AAAFF8
FF8BFFFFF8
FF8BFFFFF8
FF8BFFFFF8
FFC6AABFF8
FFD0003FF8
FFFAAABFF8
FFFFFFFFF8
FFFFFFFFF8
FFFFFFFFF4
7FFFFFFFF0
2FFFFFFFD0
0BFFFFFF40
01BFFFE800
ENDCHAR
STARTCHAR Ebreve
ENCODING 276
SWIDTH 578 0
DWIDTH 19 0
BBX 19 30 0 0
BITMAP
0000550000
001BFFE400
007FFFFD00
01FFFFFF40
02FFFFFF80
02FDBE7FC0
02FD297FC0
01FF40BF80
00FFFFFF00
06FFFFFE00
1FF4000F80
3FF4555FE0
BFF4FFFFF0
FFF4FFFFF4
FFF4FFFFF8
FFF4AABFF8
FFF4003FF8
FFF4AABFF8
FFF4FFFFF8
FFF4FFFFF8
FFF4FFFFF8
FFF4555FF8
FFF4000FF8
FFFFFFFFF8
FFFFFFFFF8
FFFFFFFFF4
7FFFFFFFF0
2FFFFFFFD0
0BFFFFFF40
01BFFFE800
ENDCHAR
STARTCHAR ebreve
ENCODING 277
SWIDTH 578 0
DWIDTH 19 0
BBX 19 30 0 0
BITMAP
0001540000
002FFF9000
01FFFFF800
03FFFFFE00
07FFFFFF00
0BF9F9FF00
0BF8A4FF00
07FD02FE00
02FFFFFD00
06FFFFFD00
1FE0007F80
3FC1551FE0
BF8BFF1FF0
FF8BFF1FF4
FF86AA1FF8
FF80001FF8
FF86AAAFF8
FF8BFFFFF8
FF8BFFFFF8
FF8BFFFFF8
FFC6AABFF8
FFD0003FF8
FFFAAABFF8
FFFFFFFFF8
FFFFFFFFF8
FFFFFFFFF4
7FFFFFFFF0
2FFFFFFFD0
0BFFFFFF40
01BFFFE800
ENDCHAR
STARTCHAR Edotaccent
ENCODING 278
SWIDTH 578 0
DWIDTH 19 0
BBX 19 31 0 0
BITMAP
0000550000
001BFFE400
007FFFFD00
01FFFFFF40
02FFFFFF80
02FFC3FFC0
02FFC3FFC0
02FFFFFF80
01FFFFFF40
00BFFFFA00
06FFFFFD00
1FF4000F80
3FF4555FE0
BFF4FFFFF0
FFF4FFFFF4
FFF4FFFFF8
FFF4AABFF8
FFF4003FF8
FFF4AABFF8
FFF4FFFFF8
FFF4FFFFF8
FFF4FFFFF8
FFF4555FF8
FFF4000FF8
FFFFFFFFF8
FFFFFFFFF8
FFFFFFFFF4
7FFFFFFFF0
2FFFFFFFD0
0BFFFFFF40
01BFFFE800
ENDCHAR
STARTCHAR edotaccent
ENCODING 279
SWIDTH 578 0
DWIDTH 19 0
BBX 19 30 0 0
BITMAP
0001540000
002FFF9000
01FFFFF800
03FFFFFE00
07FFFFFF00
0BFF4BFF00
0BFF4BFF00
07FFFFFF00
03FFFFFD00
07FFFFFD00
1FE0007F80
3FC1551FE0
BF8BFF1FF0
FF8BFF1FF4
FF86AA1FF8
FF80001FF8
FF86AAAFF8
FF8BFFFFF8
FF8BFFFFF8
FF8BFFFFF8
FFC6AABFF8
FFD0003FF8
FFFAAABFF8
FFFFFFFFF8
FFFFFFFFF8
FFFFFFFFF4
7FFFFFFFF0
2FFFFFFFD0
0BFFFFFF40
01BFFFE800
ENDCHAR
STARTCHAR Eogonek
ENCODING 280
SWIDTH 578 0
DWIDTH 19 0
BBX 19 22 0 0
BITMAP
0015555000
06FFFFFD00
1FF4000F80
3FF4555FE0
BFF4FFFFF0
FFF4FFFFF4
FFF4FFFFF8
FFF4AABFF8
FFF4003FF8
FFF4AABFF8
FFF4FFFFF8
FFF4FFFFF8
FFF4FFFFF8
FFF4555FF8
FFF4000FF8
FFFFFE1FF8
FFFFFC7FF8
FFFFF8BFF4
7FFFFC5FF0
2FFFFE4FD0
0BFFFFFF40
01BFFFE800
ENDCHAR
STARTCHAR eogonek
ENCODING 281
SWIDTH 578 0
DWIDTH 19 0
BBX 19 22 0 0
BITMAP
0015555000
06FFFFFD00
1FE0007F80
3FC1551FE0
BF8BFF1FF0
FF8BFF1FF4
FF86AA1FF8
FF80001FF8
FF86AAAFF8
FF8BFFFFF8
FF8BFFFFF8
FF8BFFFFF8
FFC6AABFF8
FFD0003FF8
FFFA91BFF8
FFFF87FFF8
FFFF4FFFF8
FFFF4FFFF4
7FFF81FFF0
2FFFEAFFD0
0BFFFFFF40
01BFFFE800
ENDCHAR
STARTCHAR Ecaron
ENCODING 282
SWIDTH 578 0
DWIDTH 19 0
BBX 19 31 0 0
BITMAP
0005415000
002FFBFD00
007FFFFE00
00BE7E7F00
00BF3DBE00
007F6CFE00
003F99FD00
002FC6FC00
001FE7F800
001FFFF400
06FFFFFD00
1FF4000F80
3FF4555FE0
BFF4FFFFF0
FFF4FFFFF4
FFF4FFFFF8
FFF4AABFF8
FFF4003FF8
FFF4AABFF8
FFF4FFFFF8
FFF4FFFFF8
FFF4FFFFF8
FFF4555FF8
FFF4000FF8
FFFFFFFFF8
FFFFFFFFF8
FFFFFFFFF4
7FFFFFFFF0
2FFFFFFFD0
0BFFFFFF40
01BFFFE800
ENDCHAR
STARTCHAR ecaron
ENCODING 283
SWIDTH 578 0
DWIDTH 19 0
BBX 19 31 0 0
BITMAP
0015054000
00BFEFF400
01FFFFF800
01F9F9FC00
01FCF5FC00
01FDB3F800
00FE67F400
00BF1BF400
007F9FF000
003FFFE000
06FFFFFD00
1FE0007F80
3FC1551FE0
BF8BFF1FF0
FF8BFF1FF4
FF86AA1FF8
FF80001FF8
FF86AAAFF8
FF8BFFFFF8
FF8BFFFFF8
FF8BFFFFF8
FFC6AABFF8
FFD0003FF8
FFFAAABFF8
FFFFFFFFF8
FFFFFFFFF8
FFFFFFFFF4
7FFFFFFFF0
2FFFFFFFD0
0BFFFFFF40
01BFFFE800
ENDCHAR
STARTCHAR Gcircumflex
ENCODING 284
SWIDTH 578 0
DWIDTH 19 0
BBX 19 32 0 0
BITMAP
0000540000
0007FF4000
000BFFC000
001FEFD000
002F87F000
007F23F400
00BE36F800
00FD79FC00
00FCBCFD00
00FFFFFD00
00FFFFFC00
06FFFFFD00
1FF4000F80
3FE1555FE0
BFD3FFFFF0
FFD3FFFFF4
FFD3FFFFF8
FFD3FFFFF8
FFD3F957F8
FFD3F403F8
FFD3FFD3F8
FFD3FFD3F8
FFD3FFC3F8
FFE05547F8
FFF4001FF8
FFFFFFFFF8
FFFFFFFFF8
FFFFFFFFF4
7FFFFFFFF0
2FFFFFFFD0
0BFFFFFF40
01BFFFE800
ENDCHAR
STARTCHAR gcircumflex
ENCODING 285
SWIDTH 578 0
DWIDTH 19 0
BBX 19 32 0 0
BITMAP
0000540000
0007FF4000
000BFFC000
001FEFD000
002F87F000
007F23F400
00BE36F800
00FD79FC00
00FCBCFD00
00FFFFFD00
00FFFFFC00
06FFFFFD00
1FF4000F80
3FE1555FE0
BFD3FFFFF0
FFD3FFFFF4
FFD3FFFFF8
FFD3FFFFF8
FFD3F957F8
FFD3F403F8
FFD3FFD3F8
FFD3FFD3F8
FFD3FFC3F8
FFE05547F8
FFF4001FF8
FFFFFFFFF8
FFFFFFFFF8
FFFFFFFFF4
7FFFFFFFF0
2FFFFFFFD0
0BFFFFFF40
01BFFFE800
ENDCHAR
STARTCHAR Gbreve
ENCODING 286
SWIDTH 578 0
DWIDTH 19 0
BBX 19 31 0 0
BITMAP
0000540000
001FFFD000
00BFFFFC00
02FFFFFE00
03FFFFFF40
07FDFDBF40
07FC64BF40
03FE01FF00
01FFFFFD00
007FFFF400
06FFFFFD00
1FF4000F80
3FE1555FE0
BFD3FFFFF0
FFD3FFFFF4
FFD3FFFFF8
FFD3FFFFF8
FFD3F957F8
FFD3F403F8
FFD3FFD3F8
FFD3FFD3F8
FFD3FFC3F8
FFE05547F8
FFF4001FF8
FFFFFFFFF8
FFFFFFFFF8
FFFFFFFFF4
7FFFFFFFF0
2FFFFFFFD0
0BFFFFFF40
01BFFFE800
ENDCHAR
STARTCHAR gbreve
ENCODING 287
SWIDTH 578 0
DWIDTH 19 0
BBX 19 30 0 0
BITMAP
0001540000
002FFF9000
01FFFFF800
03FFFFFE00
07FFFFFF00
0BF9F9FF00
0BF8A4FF00
07FD02FE00
02FFFFFD00
06FFFFFD00
1FF4000F80
3FE1555FE0
BFD3FFFFF0
FFD3FFFFF4
FFD3FFFFF8
FFD3FFFFF8
FFD3F957F8
FFD3F403F8
FFD3FFD3F8
FFD3FFD3F8
FFD3FFC3F8
FFE05547F8
FFF4001FF8
FFFFFFFFF8
FFFFFFFFF8
FFFFFFFFF4
7FFFFFFFF0
2FFFFFFFD0
0BFFFFFF40
01BFFFE800
ENDCHAR
STARTCHAR Gdotaccent
ENCODING 288
SWIDTH 578 0
DWIDTH 19 0
BBX 19 30 0 0
BITMAP
0001540000
002FFF9000
01FFFFF800
03FFFFFE00
07FFFFFF00
0BFF4BFF00
0BFF4BFF00
07FFFFFF00
03FFFFFD00
07FFFFFD00
1FF4000F80
3FE1555FE0
BFD3FFFFF0
FFD3FFFFF4
FFD3FFFFF8
FFD3FFFFF8
FFD3F957F8
FFD3F403F8
FFD3FFD3F8
FFD3FFD3F8
FFD3FFC3F8
FFE05547F8
FFF4001FF8
FFFFFFFFF8
FFFFFFFFF8
FFFFFFFFF4
7FFFFFFFF0
2FFFFFFFD0
0BFFFFFF40
01BFFFE800
ENDCHAR
STARTCHAR gdotaccent
ENCODING 289
SWIDTH 578 0
DWIDTH 19 0
BBX 19 30 0 0
BITMAP
0001540000
002FFF9000
01FFFFF800
03FFFFFE00
07FFFFFF00
0BFF4BFF00
0BFF4BFF00
07FFFFFF00
03FFFFFD00
07FFFFFD00
1FF4000F80
3FE1555FE0
BFD3FFFFF0
FFD3FFFFF4
FFD3FFFFF8
FFD3FFFFF8
FFD3F957F8
FFD3F403F8
FFD3FFD3F8
FFD3FFD3F8
FFD3FFC3F8
FFE05547F8
FFF4001FF8
FFFFFFFFF8
FFFFFFFFF8
FFFFFFFFF4
7FFFFFFFF0
2FFFFFFFD0
0BFFFFFF40
01BFFFE800
ENDCHAR
STARTCHAR Gcommaaccent
ENCODING 290
SWIDTH 578 0
DWIDTH 19 0
BBX 19 22 0 0
BITMAP
0015555000
06FFFFFD00
1FF4000F80
3FE1555FE0
BFD3FFFFF0
FFD3FFFFF4
FFD3FFFFF8
FFD3FFFFF8
FFD3F957F8
FFD3F403F8
FFD3FFD3F8
FFD3FFD3F8
FFD3FFC3F8
FFE05547F8
FFF4001FF8
FFFFFFFFF8
FFFFC2FFF8
FFFFC2FFF4
7FFFE2FFF0
2FFFE7FFD0
0BFFFFFF40
01BFFFE800
ENDCHAR
STARTCHAR gcommaaccent
ENCODING 291
SWIDTH 578 0
DWIDTH 19 0
BBX 19 22 0 0
BITMAP
0015555000
06FFFFFD00
1FF4000F80
3FE1555FE0
BFD3FFFFF0
FFD3FFFFF4
FFD3FFFFF8
FFD3FFFFF8
FFD3F957F8
FFD3F403F8
FFD3FFD3F8
FFD3FFD3F8
FFD3FFC3F8
FFE05547F8
FFF4001FF8
FFFFFFFFF8
FFFFC2FFF8
FFFFC2FFF4
7FFFE2FFF0
2FFFE7FFD0
0BFFFFFF40
01BFFFE800
ENDCHAR
STARTCHAR Hcircumflex
ENCODING 292
SWIDTH 578 0
DWIDTH 19 0
BBX 19 32 0 0
BITMAP
0000540000
0003FF4000
000BFFC000
001FEFD000
002F87F000
003F63F400
007E36F800
00BD78FC00
00FCBCBD00
00FFFFFD00
00FFFFFC00
06FFFFFD00
1FC7FFD380
3FC7FFD3E0
BFC7FFD3F0
FFC7FFD3F4
FFC7FFD3F8
FFC15543F8
FFC00003F8
FFC7FFD3F8
FFC7FFD3F8
FFC7FFD3F8
FFC7FFD3F8
FFC7FFD3F8
FFD7FFD3F8
FFFFFFFFF8
FFFFFFFFF8
FFFFFFFFF4
7FFFFFFFF0
2FFFFFFFD0
0BFFFFFF40
01BFFFE800
ENDCHAR
STARTCHAR hcircumflex
ENCODING 293
SWIDTH 578 0
DWIDTH 19 0
BBX 19 32 0 0
BITMAP
0000540000
0002FF4000
000BFFC000
000FEBE000
002F87F000
003F62F400
007F35FC00
00BE78FD00
00FDBCBD00
00FFFFFD00
00BFFFFC00
06FFFFFD00
1FC7FFD380
3FC7FFD3E0
BFC7FFD3F0
FFC7FFD3F4
FFC7FFD3F8
FFC15543F8
FFC00003F8
FFC7FFD3F8
FFC7FFD3F8
FFC7FFD3F8
FFC7FFD3F8
FFC7FFD3F8
FFD7FFD3F8
FFFFFFFFF8
FFFFFFFFF8
FFFFFFFFF4
7FFFFFFFF0
2FFFFFFFD0
0BFFFFFF40
01BFFFE800
ENDCHAR
STARTCHAR Hbar
ENCODING 294
SWIDTH 578 0
DWIDTH 19 0
BBX 19 31 0 0
BITMAP
0000540000
001FFFD000
00BFFFFC00
02FFFFFE00
03FFFFFF40
07F400BF40
07F955BF40
03FFFFFF00
01FFFFFD00
007FFFF400
06FFFFFD00
1FC7FFD380
3FC7FFD3E0
BFC7FFD3F0
FFC7FFD3F4
FFC7FFD3F8
FFC15543F8
FFC00003F8
FFC7FFD3F8
FFC7FFD3F8
FFC7FFD3F8
FFC7FFD3F8
FFC7FFD3F8
FFD7FFD3F8
FFFFFFFFF8
FFFFFFFFF8
FFFFFFFFF4
7FFFFFFFF0
2FFFFFFFD0
0BFFFFFF40
01BFFFE800
ENDCHAR
STARTCHAR hbar
ENCODING 295
SWIDTH 578 0
DWIDTH 19 0
BBX 19 22 0 0
BITMAP
0015555000
06FFFFFD00
1FC7FFD380
3FC7FFD3E0
BF400001F0
FF815542F4
FFC7FFD3F8
FFC15543F8
FFC00003F8
FFC7FFD3F8
FFC7FFD3F8
FFC7FFD3F8
FFC7FFD3F8
FFC7FFD3F8
FFD7FFD3F8
FFFFFFFFF8
FFFFFFFFF8
FFFFFFFFF4
7FFFFFFFF0
2FFFFFFFD0
0BFFFFFF40
01BFFFE800
ENDCHAR
STARTCHAR Itilde
ENCODING 296
SWIDTH 578 0
DWIDTH 19 0
BBX 19 31 0 0
BITMAP
0000150000
0007FFE000
002FFFFD00
00BFFFFF00
01FFFFFF80
02FFFFFFC0
02FFFFAFC0
02F8052FC0
01F4A03F80
00FFFFFF40
06FFFFFF00
1FE0000780
3FE5415BE0
BFFFD3FFF0
FFFFD3FFF4
FFFFD3FFF8
FFFFD3FFF8
FFFFD3FFF8
FFFFD3FFF8
FFFFD3FFF8
FFFFD3FFF8
FFFFD3FFF8
FFE5415BF8
FFE00007F8
FFFFFFFFF8
FFFFFFFFF8
FFFFFFFFF4
7FFFFFFFF0
2FFFFFFFD0
0BFFFFFF40
01BFFFE800
ENDCHAR
STARTCHAR itilde
ENCODING 297
SWIDTH 578 0
DWIDTH 19 0
BBX 19 31 0 0
BITMAP
0000150000
0007FFE000
003FFFFD00
00BFFFFF00
01FFFFFF80
02FFFFFFC0
02FFFFBFC0
02F8092FC0
02F4E03F80
00FFFFFF40
06FFFFFF00
1FE0000780
3FE5415BE0
BFFFD3FFF0
FFFFD3FFF4
FFFFD3FFF8
FFFFD3FFF8
FFFFD3FFF8
FFFFD3FFF8
FFFFD3FFF8
FFFFD3FFF8
FFFFD3FFF8
FFE5415BF8
FFE00007F8
FFFFFFFFF8
FFFFFFFFF8
FFFFFFFFF4
7FFFFFFFF0
2FFFFFFFD0
0BFFFFFF40
01BFFFE800
ENDCHAR
STARTCHAR Imacron
ENCODING 298
SWIDTH 578 0
DWIDTH 19 0
BBX 19 30 0 0
BITMAP
0000550000
001BFFE400
007FFFFD00
01FFFFFF40
02FFFFFF80
03F8007FC0
02FD557F80
02FFFFFF40
00FFFFFE00
06FFFFFE00
1FE0000780
3FE5415BE0
BFFFD3FFF0
FFFFD3FFF4
FFFFD3FFF8
FFFFD3FFF8
FFFFD3FFF8
FFFFD3FFF8
FFFFD3FFF8
FFFFD3FFF8
FFFFD3FFF8
FFE5415BF8
FFE00007F8
FFFFFFFFF8
FFFFFFFFF8
FFFFFFFFF4
7FFFFFFFF0
2FFFFFFFD0
0BFFFFFF40
01BFFFE800
ENDCHAR
STARTCHAR imacron
ENCODING 299
SWIDTH 578 0
DWIDTH 19 0
BBX 19 30 0 0
BITMAP
0000550000
001BFFE000
00BFFFFD00
01FFFFFF40
02FFFFFF80
03F8007F80
03F955BF80
02FFFFFF40
00FFFFFE00
06FFFFFE00
1FE0000780
3FE5415BE0
BFFFD3FFF0
FFFFD3FFF4
FFFFD3FFF8
FFFFD3FFF8
FFFFD3FFF8
FFFFD3FFF8
FFFFD3FFF8
FFFFD3FFF8
FFFFD3FFF8
FFE5415BF8
FFE00007F8
FFFFFFFFF8
FFFFFFFFF8
FFFFFFFFF4
7FFFFFFFF0
2FFFFFFFD0
0BFFFFFF40
01BFFFE800
ENDCHAR
STARTCHAR Ibreve
ENCODING 300
SWIDTH 578 0
DWIDTH 19 0
BBX 19 30 0 0
BITMAP
0000550000
000BFFE400
007FFFFE00
00FFFFFF40
02FFFFFFC0
02FE7E7FC0
02FD293FC0
01FF40BF80
00BFFFFF00
06FFFFFE00
1FE0000780
3FE5415BE0
BFFFD3FFF0
FFFFD3FFF4
FFFFD3FFF8
FFFFD3FFF8
FFFFD3FFF8
FFFFD3FFF8
FFFFD3FFF8
FFFFD3FFF8
FFFFD3FFF8
FFE5415BF8
FFE00007F8
FFFFFFFFF8
FFFFFFFFF8
FFFFFFFFF4
7FFFFFFFF0
2FFFFFFFD0
0BFFFFFF40
01BFFFE800
ENDCHAR
STARTCHAR ibreve
ENCODING 301
SWIDTH 578 0
DWIDTH 19 0
BBX 19 30 0 0
BITMAP
0000550000
001BFFE400
007FFFFE00
01FFFFFF40
02FFFFFF80
02FEBE7FC0
02FD293FC0
01FF40BF80
00FFFFFF00
06FFFFFE00
1FE0000780
3FE5415BE0
BFFFD3FFF0
FFFFD3FFF4
FFFFD3FFF8
FFFFD3FFF8
FFFFD3FFF8
FFFFD3FFF8
FFFFD3FFF8
FFFFD3FFF8
FFFFD3FFF8
FFE5415BF8
FFE00007F8
FFFFFFFFF8
FFFFFFFFF8
FFFFFFFFF4
7FFFFFFFF0
2FFFFFFFD0
0BFFFFFF40
01BFFFE800
ENDCHAR
STARTCHAR Iogonek
ENCODING 302
SWIDTH 578 0
DWIDTH 19 0
BBX 19 22 0 0
BITMAP
0015555000
06FFFFFD00
1FE0000780
3FE5415BE0
BFFFD3FFF0
FFFFD3FFF4
FFFFD3FFF8
FFFFD3FFF8
FFFFD3FFF8
FFFFD3FFF8
FFFFD3FFF8
FFFFD3FFF8
FFFFD3FFF8
FFE5415BF8
FFE00007F8
FFFFFF4FF8
FFFFFE2FF8
FFFFFD7FF4
7FFFFD1BF0
2FFFFF47D0
0BFFFFFF40
01BFFFE800
ENDCHAR
STARTCHAR iogonek
ENCODING 303
SWIDTH 578 0
DWIDTH 19 0
BBX 19 22 0 0
BITMAP
0015555000
06FFFFFD00
1FE0000780
3FE5415BE0
BFFFD3FFF0
FFFFD3FFF4
FFFFD3FFF8
FFFFD3FFF8
FFFFD3FFF8
FFFFD3FFF8
FFFFD3FFF8
FFFFD3FFF8
FFFFD3FFF8
FFE5415BF8
FFE00007F8
FFFFFF8FF8
FFFFFE2FF8
FFFFFD7FF4
7FFFFD1BF0
2FFFFF47D0
0BFFFFFF40
01BFFFE800
ENDCHAR
STARTCHAR Idotaccent
ENCODING 304
SWIDTH 578 0
DWIDTH 19 0
BBX 19 30 0 0
BITMAP
0000540000
001FFFE000
00BFFFFC00
02FFFFFE00
03FFFFFF40
07FF87FF40
07FF87FF40
03FFFFFF40
02FFFFFE00
06FFFFFE00
1FE0000780
3FE5415BE0
BFFFD3FFF0
FFFFD3FFF4
FFFFD3FFF8
FFFFD3FFF8
FFFFD3FFF8
FFFFD3FFF8
FFFFD3FFF8
FFFFD3FFF8
FFFFD3FFF8
FFE5415BF8
FFE00007F8
FFFFFFFFF8
FFFFFFFFF8
FFFFFFFFF4
7FFFFFFFF0
2FFFFFFFD0
0BFFFFFF40
01BFFFE800
ENDCHAR
STARTCHAR dotlessi
ENCODING 305
SWIDTH 578 0
DWIDTH 19 0
BBX 19 22 0 0
BITMAP
0015555000
06FFFFFD00
1FE0000780
3FE5415BE0
BFFFD3FFF0
FFFFD3FFF4
FFFFD3FFF8
FFFFD3FFF8
FFFFD3FFF8
FFFFD3FFF8
FFFFD3FFF8
FFFFD3FFF8
FFFFD3FFF8
FFE5415BF8
FFE00007F8
FFFFFFFFF8
FFFFFFFFF8
FFFFFFFFF4
7FFFFFFFF0
2FFFFFFFD0
0BFFFFFF40
01BFFFE800
ENDCHAR
STARTCHAR IJ
ENCODING 306
SWIDTH 578 0
DWIDTH 19 0
BBX 19 22 0 0
BITMAP
0015555000
06FFFFFD00
18002FF280
3D416FF2E0
BFD3FFF2F0
FFD3FFF2F4
FFD3FFF2F8
FFD3FFF2F8
FFD3FFF2F8
FFD3FFF2F8
FFD3FFF2F8
FFD3FFF2F8
FFD3FFE2F8
FD416542F8
F8002417F8
FFFFFFFFF8
FFFFFFFFF8
FFFFFFFFF4
7FFFFFFFF0
2FFFFFFFD0
0BFFFFFF40
01BFFFE800
ENDCHAR
STARTCHAR ij
ENCODING 307
SWIDTH 578 0
DWIDTH 19 0
BBX 19 22 0 0
BITMAP
0015555000
06FFFFFD00
18002FF280
3D416FF2E0
BFD3FFF2F0
FFD3FFF2F4
FFD3FFF2F8
FFD3FFF2F8
FFD3FFF2F8
FFD3FFF2F8
FFD3FFF2F8
FFD3FFF2F8
FFD3FFE2F8
FD416542F8
F8002417F8
FFFFFFFFF8
FFFFFFFFF8
FFFFFFFFF4
7FFFFFFFF0
2FFFFFFFD0
0BFFFFFF40
01BFFFE800
ENDCHAR
STARTCHAR Jcircumflex
ENCODING 308
SWIDTH 578 0
DWIDTH 19 0
BBX 19 32 0 0
BITMAP
0000540000
0002FF8000
000BFFD000
000FEBE000
001FC3F400
003F56F800
007F29FC00
00BE3CFD00
00BD7DBE00
00BFFFFE00
00BFFFFD00
06FFFFFD00
1FFFF8BF80
3FFFF8BFE0
BFFFF8BFF0
FFFFF8BFF4
FFFFF8BFF8
FFFFF8BFF8
FFFFF8BFF8
FFFFF8BFF8
FFFFF8BFF8
FFFFF8BFF8
FFFFF8BFF8
FFFD50BFF8
FFFC06FFF8
FFFFFFFFF8
FFFFFFFFF8
FFFFFFFFF4
7FFFFFFFF0
2FFFFFFFD0
0BFFFFFF40
01BFFFE800
ENDCHAR
STARTCHAR jcircumflex
ENCODING 309
SWIDTH 578 0
DWIDTH 19 0
BBX 19 32 0 0
BITMAP
0000540000
0002FF8000
000BFFD000
000FEBE000
001FC3F400
003F56F800
007F29FC00
00BE3CFD00
00BD7DBE00
00BFFFFE00
00BFFFFD00
06FFFFFD00
1FFFF8BF80
3FFFF8BFE0
BFFFF8BFF0
FFFFF8BFF4
FFFFF8BFF8
FFFFF8BFF8
FFFFF8BFF8
FFFFF8BFF8
FFFFF8BFF8
FFFFF8BFF8
FFFFF8BFF8
FFFD50BFF8
FFFC06FFF8
FFFFFFFFF8
FFFFFFFFF8
FFFFFFFFF4
7FFFFFFFF0
2FFFFFFFD0
0BFFFFFF40
01BFFFE800
ENDCHAR
STARTCHAR Kcommaaccent
ENCODING 310
SWIDTH 578 0
DWIDTH 19 0
BBX 19 22 0 0
BITMAP
0015555000
06FFFFF900
1FF4FFE280
3FF4FF43E0
BFF4FD0FF0
FFF4F47FF4
FFF4D1FFF8
FFF447FFF8
FFF407FFF8
FFF452FFF8
FFF4F0BFF8
FFF4F82FF8
FFF4FE0FF8
FFF4FF87F8
FFF4FFD7F8
FFFFFFFFF8
FFFFC2FFF8
FFFFC2FFF4
7FFFE2FFF0
2FFFE7FFD0
0BFFFFFF40
01BFFFE800
ENDCHAR
STARTCHAR kcommaaccent
ENCODING 311
SWIDTH 578 0
DWIDTH 19 0
BBX 19 22 0 0
BITMAP
0015555000
06FFFFF900
1FF4FFE280
3FF4FF43E0
BFF4FD0FF0
FFF4F47FF4
FFF4D1FFF8
FFF447FFF8
FFF407FFF8
FFF452FFF8
FFF4F0BFF8
FFF4F82FF8
FFF4FE0FF8
FFF4FF87F8
FFF4FFD7F8
FFFFFFFFF8
FFFFC2FFF8
FFFFC2FFF4
7FFFE2FFF0
2FFFE7FFD0
0BFFFFFF40
01BFFFE800
ENDCHAR
STARTCHAR kgreenlandic
ENCODING 312
SWIDTH 578 0
DWIDTH 19 0
BBX 19 22 0 0
BITMAP
0015555000
06FFFFF900
1FF4FFE280
3FF4FF43E0
BFF4FD0FF0
FFF4F47FF4
FFF4D1FFF8
FFF447FFF8
FFF407FFF8
FFF452FFF8
FFF4F0BFF8
FFF4F82FF8
FFF4FE0FF8
FFF4FF87F8
FFF4FFD7F8
FFFFFFFFF8
FFFFFFFFF8
FFFFFFFFF4
7FFFFFFFF0
2FFFFFFFD0
0BFFFFFF40
01BFFFE800
ENDCHAR
STARTCHAR Lacute
ENCODING 313
SWIDTH 578 0
DWIDTH 19 0
BBX 19 31 0 0
BITMAP
0001A90000
000BFFD000
001FFFF000
002F87F400
003F4FF000
007F1FE000
007F2FC000
00BE7F4000
00BFFE0000
007FFE5000
06FFFFFD00
1FFC7FFF80
3FFC7FFFE0
BFFC7FFFF0
FFFC7FFFF4
FFFC7FFFF8
FFFC7FFFF8
FFFC7FFFF8
FFFC7FFFF8
FFFC7FFFF8
FFFC7FFFF8
FFFC7FFFF8
FFFC156FF8
FFFC002FF8
FFFFFFFFF8
FFFFFFFFF8
FFFFFFFFF4
7FFFFFFFF0
2FFFFFFFD0
0BFFFFFF40
01BFFFE800
ENDCHAR
STARTCHAR lacute
ENCODING 314
SWIDTH 578 0
DWIDTH 19 0
BBX 19 31 0 0
BITMAP
0001A90000
000BFFD000
001FFFF000
002F87F400
003F4FF000
007F1FE000
007F2FC000
00BE7F4000
00BFFE0000
007FFE5000
06FFFFFD00
1FFC7FFF80
3FFC7FFFE0
BFFC7FFFF0
FFFC7FFFF4
FFFC7FFFF8
FFFC7FFFF8
FFFC7FFFF8
FFFC7FFFF8
FFFC7FFFF8
FFFC7FFFF8
FFFC7FFFF8
FFFC156FF8
FFFC002FF8
FFFFFFFFF8
FFFFFFFFF8
FFFFFFFFF4
7FFFFFFFF0
2FFFFFFFD0
0BFFFFFF40
01BFFFE800
ENDCHAR
STARTCHAR Lcommaaccent
ENCODING 315
SWIDTH 578 0
DWIDTH 19 0
BBX 19 22 0 0
BITMAP
0015555000
06FFFFFD00
1FFC7FFF80
3FFC7FFFE0
BFFC7FFFF0
FFFC7FFFF4
FFFC7FFFF8
FFFC7FFFF8
FFFC7FFFF8
FFFC7FFFF8
FFFC7FFFF8
FFFC7FFFF8
FFFC7FFFF8
FFFC156FF8
FFFC002FF8
FFFFFFFFF8
FFFFC2FFF8
FFFFC2FFF4
7FFFE2FFF0
2FFFE7FFD0
0BFFFFFF40
01BFFFE800
ENDCHAR
STARTCHAR lcommaaccent
ENCODING 316
SWIDTH 578 0
DWIDTH 19 0
BBX 19 22 0 0
BITMAP
0015555000
06FFFFFD00
1FFC7FFF80
3FFC7FFFE0
BFFC7FFFF0
FFFC7FFFF4
FFFC7FFFF8
FFFC7FFFF8
FFFC7FFFF8
FFFC7FFFF8
FFFC7FFFF8
FFFC7FFFF8
FFFC7FFFF8
FFFC156FF8
FFFC002FF8
FFFFFFFFF8
FFFFC2FFF8
FFFFC2FFF4
7FFFE2FFF0
2FFFE7FFD0
0BFFFFFF40
01BFFFE800
ENDCHAR
STARTCHAR Lcaron
ENCODING 317
SWIDTH 578 0
DWIDTH 19 0
BBX 19 22 0 0
BITMAP
0015555000
06FFFFFD00
1FFC783F80
3FFC783FE0
BFFC7E3FF0
FFFC7DBFF4
FFFC7FFFF8
FFFC7FFFF8
FFFC7FFFF8
FFFC7FFFF8
FFFC7FFFF8
FFFC7FFFF8
FFFC7FFFF8
FFFC156FF8
FFFC002FF8
FFFFFFFFF8
FFFFFFFFF8
FFFFFFFFF4
7FFFFFFFF0
2FFFFFFFD0
0BFFFFFF40
01BFFFE800
ENDCHAR
STARTCHAR lcaron
ENCODING 318
SWIDTH 578 0
DWIDTH 19 0
BBX 19 22 0 0
BITMAP
0015555000
06FFFFFD00
1FFC783F80
3FFC783FE0
BFFC7E3FF0
FFFC7DBFF4
FFFC7FFFF8
FFFC7FFFF8
FFFC7FFFF8
FFFC7FFFF8
FFFC7FFFF8
FFFC7FFFF8
FFFC7FFFF8
FFFC156FF8
FFFC002FF8
FFFFFFFFF8
FFFFFFFFF8
FFFFFFFFF4
7FFFFFFFF0
2FFFFFFFD0
0BFFFFFF40
01BFFFE800
ENDCHAR
STARTCHAR Ldot
ENCODING 319
SWIDTH 578 0
DWIDTH 19 0
BBX 19 22 0 0
BITMAP
0015555000
06FFFFFD00
1FFC7FFF80
3FFC7FFFE0
BFFC7FFFF0
FFFC7FFFF4
FFFC70FFF8
FFFC70FFF8
FFFC7FFFF8
FFFC7FFFF8
FFFC7FFFF8
FFFC7FFFF8
FFFC7FFFF8
FFFC156FF8
FFFC002FF8
FFFFFFFFF8
FFFFFFFFF8
FFFFFFFFF4
7FFFFFFFF0
2FFFFFFFD0
0BFFFFFF40
01BFFFE800
ENDCHAR
STARTCHAR ldot
ENCODING 320
SWIDTH 578 0
DWIDTH 19 0
BBX 19 22 0 0
BITMAP
0015555000
06FFFFFD00
1FFC7FFF80
3FFC7FFFE0
BFFC7FFFF0
FFFC7FFFF4
FFFC70FFF8
FFFC70FFF8
FFFC7FFFF8
FFFC7FFFF8
FFFC7FFFF8
FFFC7FFFF8
FFFC7FFFF8
FFFC156FF8
FFFC002FF8
FFFFFFFFF8
FFFFFFFFF8
FFFFFFFFF4
7FFFFFFFF0
2FFFFFFFD0
0BFFFFFF40
01BFFFE800
ENDCHAR
STARTCHAR Lslash
ENCODING 321
SWIDTH 578 0
DWIDTH 19 0
BBX 19 22 0 0
BITMAP
0015555000
06FFFFFD00
1FFC7FFF80
3FFC7FFFE0
BFFC7FFFF0
FFFC7FFFF4
FFFC5BFFF8
FFFC1FFFF8
FFE07FFFF8
FFE87FFFF8
FFFC7FFFF8
FFFC7FFFF8
FFFC7FFFF8
FFFC156FF8
FFFC002FF8
FFFFFFFFF8
FFFFFFFFF8
FFFFFFFFF4
7FFFFFFFF0
2FFFFFFFD0
0BFFFFFF40
01BFFFE800
ENDCHAR
STARTCHAR lslash
ENCODING 322
SWIDTH 578 0
DWIDTH 19 0
BBX 19 22 0 0
BITMAP
0015555000
06FFFFFD00
1FFC7FFF80
3FFC7FFFE0
BFFC7FFFF0
FFFC7FFFF4
FFFC5BFFF8
FFFC1FFFF8
FFE07FFFF8
FFE87FFFF8
FFFC7FFFF8
FFFC7FFFF8
FFFC7FFFF8
FFFC156FF8
FFFC002FF8
FFFFFFFFF8
FFFFFFFFF8
FFFFFFFFF4
7FFFFFFFF0
2FFFFFFFD0
0BFFFFFF40
01BFFFE800
ENDCHAR
STARTCHAR Nacute
ENCODING 323
SWIDTH 578 0
DWIDTH 19 0
BBX 19 31 0 0
BITMAP
00006A9000
0001FFF800
0003FFFD00
0007F0FE00
000BE2FD00
000FE3FC00
000FD7F400
001FCFE000
001FFFC000
001FFFD000
06FFFFFD00
1FD4001F80
3FC1554BE0
BFC7FFC7F0
FFC7FFC7F4
FFC7FFC7F8
FFC7FFC7F8
FFC7FFC7F8
FFC7FFC7F8
FFC7FFC7F8
FFC7FFC7F8
FFC7FFC7F8
FFC7FFC7F8
FFC7FFC7F8
FFFFFFFFF8
FFFFFFFFF8
FFFFFFFFF4
7FFFFFFFF0
2FFFFFFFD0
0BFFFFFF40
01BFFFE800
ENDCHAR
STARTCHAR nacute
ENCODING 324
SWIDTH 578 0
DWIDTH 19 0
BBX 19 31 0 0
BITMAP
00006A9000
0001FFF800
0003FFFD00
0007F0FE00
000BE2FD00
000FE3FC00
000FD7F400
001FCFE000
001FFFC000
001FFFD000
06FFFFFD00
1FD4001F80
3FC1554BE0
BFC7FFC7F0
FFC7FFC7F4
FFC7FFC7F8
FFC7FFC7F8
FFC7FFC7F8
FFC7FFC7F8
FFC7FFC7F8
FFC7FFC7F8
FFC7FFC7F8
FFC7FFC7F8
FFC7FFC7F8
FFFFFFFFF8
FFFFFFFFF8
FFFFFFFFF4
7FFFFFFFF0
2FFFFFFFD0
0BFFFFFF40
01BFFFE800
ENDCHAR
STARTCHAR Ncommaaccent
ENCODING 325
SWIDTH 578 0
DWIDTH 19 0
BBX 19 22 0 0
BITMAP
0015555000
06FFFFFD00
1FD4001F80
3FC1554BE0
BFC7FFC7F0
FFC7FFC7F4
FFC7FFC7F8
FFC7FFC7F8
FFC7FFC7F8
FFC7FFC7F8
FFC7FFC7F8
FFC7FFC7F8
FFC7FFC7F8
FFC7FFC7F8
FFC7FFC7F8
FFFFFFFFF8
FFFFC2FFF8
FFFFC2FFF4
7FFFE2FFF0
2FFFE7FFD0
0BFFFFFF40
01BFFFE800
ENDCHAR
STARTCHAR ncommaaccent
ENCODING 326
SWIDTH 578 0
DWIDTH 19 0
BBX 19 22 0 0
BITMAP
0015555000
06FFFFFD00
1FD4001F80
3FC1554BE0
BFC7FFC7F0
FFC7FFC7F4
FFC7FFC7F8
FFC7FFC7F8
FFC7FFC7F8
FFC7FFC7F8
FFC7FFC7F8
FFC7FFC7F8
FFC7FFC7F8
FFC7FFC7F8
FFC7FFC7F8
FFFFFFFFF8
FFFFC2FFF8
FFFFC2FFF4
7FFFE2FFF0
2FFFE7FFD0
0BFFFFFF40
01BFFFE800
ENDCHAR
STARTCHAR Ncaron
ENCODING 327
SWIDTH 578 0
DWIDTH 19 0
BBX 19 31 0 0
BITMAP
0015054000
00BFEFF400
01FFFFF800
01F9F9FC00
01FCF5FC00
01FDB3F800
00FE67F400
00BF1BF400
007F9FF000
003FFFE000
06FFFFFD00
1FD4001F80
3FC1554BE0
BFC7FFC7F0
FFC7FFC7F4
FFC7FFC7F8
FFC7FFC7F8
FFC7FFC7F8
FFC7FFC7F8
FFC7FFC7F8
FFC7FFC7F8
FFC7FFC7F8
FFC7FFC7F8
FFC7FFC7F8
FFFFFFFFF8
FFFFFFFFF8
FFFFFFFFF4
7FFFFFFFF0
2FFFFFFFD0
0BFFFFFF40
01BFFFE800
ENDCHAR
STARTCHAR ncaron
ENCODING 328
SWIDTH 578 0
DWIDTH 19 0
BBX 19 31 0 0
BITMAP
0015054000
00BFEFF400
01FFFFF800
01F9F9FC00
01FCF5FC00
01FDB3F800
00FE67F400
00BF1BF400
007F9FF000
003FFFE000
06FFFFFD00
1FD4001F80
3FC1554BE0
BFC7FFC7F0
FFC7FFC7F4
FFC7FFC7F8
FFC7FFC7F8
FFC7FFC7F8
FFC7FFC7F8
FFC7FFC7F8
FFC7FFC7F8
FFC7FFC7F8
FFC7FFC7F8
FFC7FFC7F8
FFFFFFFFF8
FFFFFFFFF8
FFFFFFFFF4
7FFFFFFFF0
2FFFFFFFD0
0BFFFFFF40
01BFFFE800
ENDCHAR
STARTCHAR napostrophe
ENCODING 329
SWIDTH 578 0
DWIDTH 19 0
BBX 19 22 0 0
BITMAP
0015555000
06FFFFFD00
1FD4001F80
25C1554BE0
A0C7FFC7F0
E4C7FFC7F4
F5C7FFC7F8
FBC7FFC7F8
FFC7FFC7F8
FFC7FFC7F8
FFC7FFC7F8
FFC7FFC7F8
FFC7FFC7F8
FFC7FFC7F8
FFC7FFC7F8
FFFFFFFFF8
FFFFFFFFF8
FFFFFFFFF4
7FFFFFFFF0
2FFFFFFFD0
0BFFFFFF40
01BFFFE800
ENDCHAR
STARTCHAR Eng
ENCODING 330
SWIDTH 578 0
DWIDTH 19 0
BBX 19 22 0 0
BITMAP
0015555000
06FFFFFD00
1FD4001F80
3FC1554BE0
BFC7FFC7F0
FFC7FFC7F4
FFC7FFC7F8
FFC7FFC7F8
FFC7FFC7F8
FFC7FFC7F8
FFC7FFC7F8
FFC7FFC7F8
FFC7FFC7F8
FFC7FFC7F8
FFC7FFC7F8
FFFFFFC7F8
FFFFFFC7F8
FFFFFF87F4
7FFFD00BF0
2FFFEABFD0
0BFFFFFF40
01BFFFE800
ENDCHAR
STARTCHAR eng
ENCODING 331
SWIDTH 578 0
DWIDTH 19 0
BBX 19 22 0 0
BITMAP
0015555000
06FFFFFD00
1FD4001F80
3FC1554BE0
BFC7FFC7F0
FFC7FFC7F4
FFC7FFC7F8
FFC7FFC7F8
FFC7FFC7F8
FFC7FFC7F8
FFC7FFC7F8
FFC7FFC7F8
FFC7FFC7F8
FFC7FFC7F8
FFC7FFC7F8
FFFFFFC7F8
FFFFFFC7F8
FFFFFF87F4
7FFFD00BF0
2FFFEABFD0
0BFFFFFF40
01BFFFE800
ENDCHAR
STARTCHAR Omacron
ENCODING 332
SWIDTH 578 0
DWIDTH 19 0
BBX 19 30 0 0
BITMAP
0000550000
001BFFE400
007FFFFD00
01FFFFFF40
02FFFFFF80
03F8007FC0
03FD55BF80
02FFFFFF40
00FFFFFE00
06FFFFFE00
1FF4001F80
3FD15547E0
BFC7FFD3F0
FFC7FFD3F4
FFC7FFD3F8
FFC7FFD3F8
FFC7FFD3F8
FFC7FFD3F8
FFC7FFD3F8
FFC7FFD3F8
FFC7FFC3F8
FFD15547F8
FFF4001FF8
FFFFFFFFF8
FFFFFFFFF8
FFFFFFFFF4
7FFFFFFFF0
2FFFFFFFD0
0BFFFFFF40
01BFFFE800
ENDCHAR
STARTCHAR omacron
ENCODING 333
SWIDTH 578 0
DWIDTH 19 0
BBX 19 30 0 0
BITMAP
0000550000
001BFFE400
007FFFFD00
01FFFFFF40
02FFFFFF80
03F8007FC0
03FD55BF80
02FFFFFF40
00FFFFFE00
06FFFFFE00
1FF4001F80
3FD15547E0
BFC7FFD3F0
FFC7FFD3F4
FFC7FFD3F8
FFC7FFD3F8
FFC7FFD3F8
FFC7FFD3F8
FFC7FFD3F8
FFC7FFD3F8
FFC7FFC3F8
FFD15547F8
FFF4001FF8
FFFFFFFFF8
FFFFFFFFF8
FFFFFFFFF4
7FFFFFFFF0
2FFFFFFFD0
0BFFFFFF40
01BFFFE800
ENDCHAR
STARTCHAR Obreve
ENCODING 334
SWIDTH 578 0
DWIDTH 19 0
BBX 19 30 0 0
BITMAP
0000550000
001BFFE400
007FFFFD00
01FFFFFF40
02FFFFFF80
03FDBE7FC0
03FD287F80
02FE41FF40
00FFFFFE00
06FFFFFE00
1FF4001F80
3FD15547E0
BFC7FFD3F0
FFC7FFD3F4
FFC7FFD3F8
FFC7FFD3F8
FFC7FFD3F8
FFC7FFD3F8
FFC7FFD3F8
FFC7FFD3F8
FFC7FFC3F8
FFD15547F8
FFF4001FF8
FFFFFFFFF8
FFFFFFFFF8
FFFFFFFFF4
7FFFFFFFF0
2FFFFFFFD0
0BFFFFFF40
01BFFFE800
ENDCHAR
STARTCHAR obreve
ENCODING 335
SWIDTH 578 0
DWIDTH 19 0
BBX 19 30 0 0
BITMAP
0000550000
001BFFE400
007FFFFD00
01FFFFFF40
02FFFFFF80
03FDBE7FC0
03FD287F80
02FE41FF40
00FFFFFE00
06FFFFFE00
1FF4001F80
3FD15547E0
BFC7FFD3F0
FFC7FFD3F4
FFC7FFD3F8
FFC7FFD3F8
FFC7FFD3F8
FFC7FFD3F8
FFC7FFD3F8
FFC7FFD3F8
FFC7FFC3F8
FFD15547F8
FFF4001FF8
FFFFFFFFF8
FFFFFFFFF8
FFFFFFFFF4
7FFFFFFFF0
2FFFFFFFD0
0BFFFFFF40
01BFFFE800
ENDCHAR
STARTCHAR Ohungarumlaut
ENCODING 336
SWIDTH 578 0
DWIDTH 19 0
BBX 19 31 0 0
BITMAP
00002FEF40
0000BFFFC0
0001FFFFD0
0003F8F5F0
0007F2E3F4
000FD7CBF0
002FCF9FD0
003F6F7F80
003FBFFF00
003FFFFD00
06FFFFFD00
1FF4001F80
3FD15547E0
BFC7FFD3F0
FFC7FFD3F4
FFC7FFD3F8
FFC7FFD3F8
FFC7FFD3F8
FFC7FFD3F8
FFC7FFD3F8
FFC7FFD3F8
FFC7FFC3F8
FFD15547F8
FFF4001FF8
FFFFFFFFF8
FFFFFFFFF8
FFFFFFFFF4
7FFFFFFFF0
2FFFFFFFD0
0BFFFFFF40
01BFFFE800
ENDCHAR
STARTCHAR ohungarumlaut
ENCODING 337
SWIDTH 578 0
DWIDTH 19 0
BBX 19 31 0 0
BITMAP
00002FEF40
0000BFFFC0
0001FFFFD0
0003F8F5F0
0007F2E3F4
000FD7CBF0
002FCF9FD0
003F6F7F80
003FBFFF00
003FFFFD00
06FFFFFD00
1FF4001F80
3FD15547E0
BFC7FFD3F0
FFC7FFD3F4
FFC7FFD3F8
FFC7FFD3F8
FFC7FFD3F8
FFC7FFD3F8
FFC7FFD3F8
FFC7FFD3F8
FFC7FFC3F8
FFD15547F8
FFF4001FF8
FFFFFFFFF8
FFFFFFFFF8
FFFFFFFFF4
7FFFFFFFF0
2FFFFFFFD0
0BFFFFFF40
01BFFFE800
ENDCHAR
STARTCHAR OE
ENCODING 338
SWIDTH 578 0
DWIDTH 19 0
BBX 19 22 0 0
BITMAP
0015555000
06FFFFFD00
1F40100380
3E054157E0
BE2FD3FFF0
FE2FD3FFF4
FE2FD3FFF8
FE2FD2ABF8
FE2FD007F8
FE2FD2ABF8
FE2FD3FFF8
FE2FD3FFF8
FE2FD3FFF8
FE054156F8
FF901402F8
FFFFFFFFF8
FFFFFFFFF8
FFFFFFFFF4
7FFFFFFFF0
2FFFFFFFD0
0BFFFFFF40
01BFFFE800
ENDCHAR
STARTCHAR oe
ENCODING 339
SWIDTH 578 0
DWIDTH 19 0
BBX 19 22 0 0
BITMAP
0015555000
06FFFFFD00
1F40100380
3E054157E0
BE2FD3FFF0
FE2FD3FFF4
FE2FD3FFF8
FE2FD2ABF8
FE2FD007F8
FE2FD2ABF8
FE2FD3FFF8
FE2FD3FFF8
FE2FD3FFF8
FE054156F8
FF901402F8
FFFFFFFFF8
FFFFFFFFF8
FFFFFFFFF4
7FFFFFFFF0
2FFFFFFFD0
0BFFFFFF40
01BFFFE800
ENDCHAR
STARTCHAR Racute
ENCODING 340
SWIDTH 578 0
DWIDTH 19 0
BBX 19 31 0 0
BITMAP
00006A9000
0001FFF800
0003FFFD00
0007F0FE00
000BE2FD00
000FE3FC00
000FD7F400
001FCFE000
001FFFC000
001FFFD000
06FFFFFD00
1FD0007F80
3FD1551FE0
BFD3FF4FF0
FFD3FF4FF4
FFD3FF4FF8
FFD3FF1FF8
FFD000BFF8
FFD1542FF8
FFD3FF4FF8
FFD3FF4FF8
FFD3FF4FF8
FFD3FF4FF8
FFD3FF4FF8
FFFFFFFFF8
FFFFFFFFF8
FFFFFFFFF4
7FFFFFFFF0
2FFFFFFFD0
0BFFFFFF40
01BFFFE800
ENDCHAR
STARTCHAR racute
ENCODING 341
SWIDTH 578 0
DWIDTH 19 0
BBX 19 31 0 0
BITMAP
00006A9000
0001FFF800
0003FFFD00
0007F0FE00
000BE2FD00
000FE3FC00
000FD7F400
001FCFE000
001FFFC000
001FFFD000
06FFFFFD00
1FD0007F80
3FD1551FE0
BFD3FF4FF0
FFD3FF4FF4
FFD3FF4FF8
FFD3FF1FF8
FFD000BFF8
FFD1542FF8
FFD3FF4FF8
FFD3FF4FF8
FFD3FF4FF8
FFD3FF4FF8
FFD3FF4FF8
FFFFFFFFF8
FFFFFFFFF8
FFFFFFFFF4
7FFFFFFFF0
2FFFFFFFD0
0BFFFFFF40
01BFFFE800
ENDCHAR
STARTCHAR Rcommaaccent
ENCODING 342
SWIDTH 578 0
DWIDTH 19 0
BBX 19 22 0 0
BITMAP
0015555000
06FFFFFD00
1FD0007F80
3FD1551FE0
BFD3FF4FF0
FFD3FF4FF4
FFD3FF4FF8
FFD3FF1FF8
FFD000BFF8
FFD1542FF8
FFD3FF4FF8
FFD3FF4FF8
FFD3FF4FF8
FFD3FF4FF8
FFD3FF4FF8
FFFFFFFFF8
FFFFC2FFF8
FFFFC2FFF4
7FFFE2FFF0
2FFFE7FFD0
0BFFFFFF40
01BFFFE800
ENDCHAR
STARTCHAR rcommaaccent
ENCODING 343
SWIDTH 578 0
DWIDTH 19 0
BBX 19 22 0 0
BITMAP
0015555000
06FFFFFD00
1FD0007F80
3FD1551FE0
BFD3FF4FF0
FFD3FF4FF4
FFD3FF4FF8
FFD3FF1FF8
FFD000BFF8
FFD1542FF8
FFD3FF4FF8
FFD3FF4FF8
FFD3FF4FF8
FFD3FF4FF8
FFD3FF4FF8
FFFFFFFFF8
FFFFC2FFF8
FFFFC2FFF4
7FFFE2FFF0
2FFFE7FFD0
0BFFFFFF40
01BFFFE800
ENDCHAR
STARTCHAR Rcaron
ENCODING 344
SWIDTH 578 0
DWIDTH 19 0
BBX 19 31 0 0
BITMAP
0015054000
00BFEFF400
01FFFFF800
01F9F9FC00
01FCF5FC00
01FDB3F800
00FE67F400
00BF1BF400
007F9FF000
003FFFE000
06FFFFFD00
1FD0007F80
3FD1551FE0
BFD3FF4FF0
FFD3FF4FF4
FFD3FF4FF8
FFD3FF1FF8
FFD000BFF8
FFD1542FF8
FFD3FF4FF8
FFD3FF4FF8
FFD3FF4FF8
FFD3FF4FF8
FFD3FF4FF8
FFFFFFFFF8
FFFFFFFFF8
FFFFFFFFF4
7FFFFFFFF0
2FFFFFFFD0
0BFFFFFF40
01BFFFE800
ENDCHAR
STARTCHAR rcaron
ENCODING 345
SWIDTH 578 0
DWIDTH 19 0
BBX 19 31 0 0
BITMAP
0015054000
00BFEFF400
01FFFFF800
01F9F9FC00
01FCF5FC00
01FDB3F800
00FE67F400
00BF1BF400
007F9FF000
003FFFE000
06FFFFFD00
1FD0007F80
3FD1551FE0
BFD3FF4FF0
FFD3FF4FF4
FFD3FF4FF8
FFD3FF1FF8
FFD000BFF8
FFD1542FF8
FFD3FF4FF8
FFD3FF4FF8
FFD3FF4FF8
FFD3FF4FF8
FFD3FF4FF8
FFFFFFFFF8
FFFFFFFFF8
FFFFFFFFF4
7FFFFFFFF0
2FFFFFFFD0
0BFFFFFF40
01BFFFE800
ENDCHAR
STARTCHAR Sacute
ENCODING 346
SWIDTH 578 0
DWIDTH 19 0
BBX 19 31 0 0
BITMAP
00001A9000
0000BFFD00
0001FFFF00
0002F87F00
0003F4FF00
0007F1FD00
000BE3FC00
000BE7F400
000BFFE000
001BFFD000
06FFFFFD00
1FF4000F80
3FE0555FE0
BFD3FFFFF0
FFD3FFFFF4
FFD3FFFFF8
FFE1AABFF8
FFF4000BF8
FFFFAA87F8
FFFFFFC7F8
FFFFFFC7F8
FFFFFFC7F8
FFF5550BF8
FFF4001FF8
FFFFFFFFF8
FFFFFFFFF8
FFFFFFFFF4
7FFFFFFFF0
2FFFFFFFD0
0BFFFFFF40
01BFFFE800
ENDCHAR
STARTCHAR sacute
ENCODING 347
SWIDTH 578 0
DWIDTH 19 0
BBX 19 31 0 0
BITMAP
00001A9000
0000BFFD00
0001FFFF00
0002F87F00
0003F4FF00
0007F1FD00
000BE3FC00
000BE7F400
000BFFE000
001BFFD000
06FFFFFD00
1FF4000F80
3FE0555FE0
BFD3FFFFF0
FFD3FFFFF4
FFD3FFFFF8
FFE1AABFF8
FFF4000BF8
FFFFAA87F8
FFFFFFC7F8
FFFFFFC7F8
FFFFFFC7F8
FFF5550BF8
FFF4001FF8
FFFFFFFFF8
FFFFFFFFF8
FFFFFFFFF4
7FFFFFFFF0
2FFFFFFFD0
0BFFFFFF40
01BFFFE800
ENDCHAR
STARTCHAR Scircumflex
ENCODING 348
SWIDTH 578 0
DWIDTH 19 0
BBX 19 32 0 0
BITMAP
0000150000
0002FF8000
0007FFE000
000BEBF000
001FC2F400
002F99FC00
003F6CFD00
007F3CBE00
00BE7E7F00
00BFFFFF00
007FFFFE00
06FFFFFD00
1FF4000F80
3FE0555FE0
BFD3FFFFF0
FFD3FFFFF4
FFD3FFFFF8
FFE1AABFF8
FFF4000BF8
FFFFAA87F8
FFFFFFC7F8
FFFFFFC7F8
FFFFFFC7F8
FFF5550BF8
FFF4001FF8
FFFFFFFFF8
FFFFFFFFF8
FFFFFFFFF4
7FFFFFFFF0
2FFFFFFFD0
0BFFFFFF40
01BFFFE800
ENDCHAR
STARTCHAR scircumflex
ENCODING 349
SWIDTH 578 0
DWIDTH 19 0
BBX 19 32 0 0
BITMAP
0000150000
0002FF8000
0007FFE000
000BEBF000
001FC2F400
002F99FC00
003F6CFD00
007F3CBE00
00BE7E7F00
00BFFFFF00
007FFFFE00
06FFFFFD00
1FF4000F80
3FE0555FE0
BFD3FFFFF0
FFD3FFFFF4
FFD3FFFFF8
FFE1AABFF8
FFF4000BF8
FFFFAA87F8
FFFFFFC7F8
FFFFFFC7F8
FFFFFFC7F8
FFF5550BF8
FFF4001FF8
FFFFFFFFF8
FFFFFFFFF8
FFFFFFFFF4
7FFFFFFFF0
2FFFFFFFD0
0BFFFFFF40
01BFFFE800
ENDCHAR
STARTCHAR Scedilla
ENCODING 350
SWIDTH 578 0
DWIDTH 19 0
BBX 19 22 0 0
BITMAP
0015555000
06FFFFFD00
1FF4000F80
3FE0555FE0
BFD3FFFFF0
FFD3FFFFF4
FFD3FFFFF8
FFE1AABFF8
FFF4000BF8
FFFFAA87F8
FFFFFFC7F8
FFFFFFC7F8
FFFFFFC7F8
FFF5550BF8
FFF4001FF8
FFFF97FFF8
FFFE07FFF8
FFFE3FFFF4
7FFE1BFFF0
2FFF47FFD0
0BFFFFFF40
01BFFFE800
ENDCHAR
STARTCHAR scedilla
ENCODING 351
SWIDTH 578 0
DWIDTH 19 0
BBX 19 22 0 0
BITMAP
0015555000
06FFFFFD00
1FF4000F80
3FE0555FE0
BFD3FFFFF0
FFD3FFFFF4
FFD3FFFFF8
FFE1AABFF8
FFF4000BF8
FFFFAA87F8
FFFFFFC7F8
FFFFFFC7F8
FFFFFFC7F8
FFF5550BF8
FFF4001FF8
FFFF97FFF8
FFFE07FFF8
FFFE3FFFF4
7FFE1BFFF0
2FFF47FFD0
0BFFFFFF40
01BFFFE800
ENDCHAR
STARTCHAR Scaron
ENCODING 352
SWIDTH 578 0
DWIDTH 19 0
BBX 19 31 0 0
BITMAP
0005415000
002FFBFD00
007FFFFE00
007E7E7F00
007F2D7F00
003F5CBE00
003F89FE00
002FC6FD00
001FE7FC00
001FFFF800
06FFFFFD00
1FF4000F80
3FE0555FE0
BFD3FFFFF0
FFD3FFFFF4
FFD3FFFFF8
FFE1AABFF8
FFF4000BF8
FFFFAA87F8
FFFFFFC7F8
FFFFFFC7F8
FFFFFFC7F8
FFF5550BF8
FFF4001FF8
FFFFFFFFF8
FFFFFFFFF8
FFFFFFFFF4
7FFFFFFFF0
2FFFFFFFD0
0BFFFFFF40
01BFFFE800
ENDCHAR
STARTCHAR scaron
ENCODING 353
SWIDTH 578 0
DWIDTH 19 0
BBX 19 31 0 0
BITMAP
0005415000
002FFBFD00
007FFFFE00
007E7E7F00
007F2D7F00
003F5CBE00
003F89FE00
002FC6FD00
001FE7FC00
001FFFF800
06FFFFFD00
1FF4000F80
3FE0555FE0
BFD3FFFFF0
FFD3FFFFF4
FFD3FFFFF8
FFE1AABFF8
FFF4000BF8
FFFFAA87F8
FFFFFFC7F8
FFFFFFC7F8
FFFFFFC7F8
FFF5550BF8
FFF4001FF8
FFFFFFFFF8
FFFFFFFFF8
FFFFFFFFF4
7FFFFFFFF0
2FFFFFFFD0
0BFFFFFF40
01BFFFE800
ENDCHAR
STARTCHAR Tcommaaccent
ENCODING 354
SWIDTH 578 0
DWIDTH 19 0
BBX 19 22 0 0
BITMAP
0015555000
06FFFFFD00
1FE0000780
3FE5415BE0
BFFFD3FFF0
FFFFD3FFF4
FFFFD3FFF8
FFFFD3FFF8
FFFFD3FFF8
FFFFD3FFF8
FFFFD3FFF8
FFFFD3FFF8
FFFFD3FFF8
FFFFD3FFF8
FFFFD3FFF8
FFFFFFFFF8
FFFFC2FFF8
FFFFC2FFF4
7FFFE2FFF0
2FFFE7FFD0
0BFFFFFF40
01BFFFE800
ENDCHAR
STARTCHAR tcommaaccent
ENCODING 355
SWIDTH 578 0
DWIDTH 19 0
BBX 19 22 0 0
BITMAP
0015555000
06FFFFFD00
1FE0000780
3FE5415BE0
BFFFD3FFF0
FFFFD3FFF4
FFFFD3FFF8
FFFFD3FFF8
FFFFD3FFF8
FFFFD3FFF8
FFFFD3FFF8
FFFFD3FFF8
FFFFD3FFF8
FFFFD3FFF8
FFFFD3FFF8
FFFFFFFFF8
FFFFC2FFF8
FFFFC2FFF4
7FFFE2FFF0
2FFFE7FFD0
0BFFFFFF40
01BFFFE800
ENDCHAR
STARTCHAR Tcaron
ENCODING 356
SWIDTH 578 0
DWIDTH 19 0
BBX 19 31 0 0
BITMAP
0005415000
003FEFF800
00BFFFFD00
00FDBDBE00
00BE7CFD00
00BF39FD00
007F66FC00
003F93F800
002FDBF400
002FFFF000
06FFFFFD00
1FE0000780
3FE5415BE0
BFFFD3FFF0
FFFFD3FFF4
FFFFD3FFF8
FFFFD3FFF8
FFFFD3FFF8
FFFFD3FFF8
FFFFD3FFF8
FFFFD3FFF8
FFFFD3FFF8
FFFFD3FFF8
FFFFD3FFF8
FFFFFFFFF8
FFFFFFFFF8
FFFFFFFFF4
7FFFFFFFF0
2FFFFFFFD0
0BFFFFFF40
01BFFFE800
ENDCHAR
STARTCHAR tcaron
ENCODING 357
SWIDTH 578 0
DWIDTH 19 0
BBX 19 22 0 0
BITMAP
0015555000
06FFFFFD00
1FE0000780
3FE5415BE0
BFFFD3ABF0
FFFFD347F4
FFFFD387F8
FFFFD3CBF8
FFFFD3EFF8
FFFFD3FFF8
FFFFD3FFF8
FFFFD3FFF8
FFFFD3FFF8
FFFFD3FFF8
FFFFD3FFF8
FFFFFFFFF8
FFFFFFFFF8
FFFFFFFFF4
7FFFFFFFF0
2FFFFFFFD0
0BFFFFFF40
01BFFFE800
ENDCHAR
STARTCHAR Tbar
ENCODING 358
SWIDTH 578 0
DWIDTH 19 0
BBX 19 22 0 0
BITMAP
0015555000
06FFFFFD00
1FE0000780
3FE5415BE0
BFFFD3FFF0
FFFFD3FFF4
FFFFD3FFF8
FFFFD3FFF8
FFFC003FF8
FFFE82BFF8
FFFFD3FFF8
FFFFD3FFF8
FFFFD3FFF8
FFFFD3FFF8
FFFFD3FFF8
FFFFFFFFF8
FFFFFFFFF8
FFFFFFFFF4
7FFFFFFFF0
2FFFFFFFD0
0BFFFFFF40
01BFFFE800
ENDCHAR
STARTCHAR tbar
ENCODING 359
SWIDTH 578 0
DWIDTH 19 0
BBX 19 22 0 0
BITMAP
0015555000
06FFFFFD00
1FE0000780
3FE5415BE0
BFFFD3FFF0
FFFFD3FFF4
FFFFD3FFF8
FFFFD3FFF8
FFFC003FF8
FFFE82BFF8
FFFFD3FFF8
FFFFD3FFF8
FFFFD3FFF8
FFFFD3FFF8
FFFFD3FFF8
FFFFFFFFF8
FFFFFFFFF8
FFFFFFFFF4
7FFFFFFFF0
2FFFFFFFD0
0BFFFFFF40
01BFFFE800
ENDCHAR
STARTCHAR Utilde
ENCODING 360
SWIDTH 578 0
DWIDTH 19 0
BBX 19 31 0 0
BITMAP
0000140000
000BFFE000
003FFFFD00
00FFFFFF00
01FFFFFF80
02FFFFFF80
03FFFFBFC0
02F8092FC0
02F4E03F80
00FFFFFF40
06FFFFFF00
1FC7FFC780
3FC7FFC7E0
BFC7FFC7F0
FFC7FFC7F4
FFC7FFC7F8
FFC7FFC7F8
FFC7FFC7F8
FFC7FFC7F8
FFC7FFC7F8
FFC7FFC7F8
FFC7FFC7F8
FFD15507F8
FFF4001FF8
FFFFFFFFF8
FFFFFFFFF8
FFFFFFFFF4
7FFFFFFFF0
2FFFFFFFD0
0BFFFFFF40
01BFFFE800
ENDCHAR
STARTCHAR utilde
ENCODING 361
SWIDTH 578 0
DWIDTH 19 0
BBX 19 31 0 0
BITMAP
0000150000
0007FFE000
003FFFFD00
00BFFFFF00
01FFFFFF80
02FFFFFFC0
02FFFFBFC0
02F8092FC0
02F4E03F80
00FFFFFF40
06FFFFFF00
1FC7FFC780
3FC7FFC7E0
BFC7FFC7F0
FFC7FFC7F4
FFC7FFC7F8
FFC7FFC7F8
FFC7FFC7F8
FFC7FFC7F8
FFC7FFC7F8
FFC7FFC7F8
FFC7FFC7F8
FFD15507F8
FFF4001FF8
FFFFFFFFF8
FFFFFFFFF8
FFFFFFFFF4
7FFFFFFFF0
2FFFFFFFD0
0BFFFFFF40
01BFFFE800
ENDCHAR
STARTCHAR Umacron
ENCODING 362
SWIDTH 578 0
DWIDTH 19 0
BBX 19 30 0 0
BITMAP
0000550000
001BFFE400
007FFFFD00
01FFFFFF40
02FFFFFF80
02FC007FC0
02FD557FC0
01FFFFFF80
00FFFFFF00
06FFFFFE00
1FC7FFC780
3FC7FFC7E0
BFC7FFC7F0
FFC7FFC7F4
FFC7FFC7F8
FFC7FFC7F8
FFC7FFC7F8
FFC7FFC7F8
FFC7FFC7F8
FFC7FFC7F8
FFC7FFC7F8
FFD15507F8
FFF4001FF8
FFFFFFFFF8
FFFFFFFFF8
FFFFFFFFF4
7FFFFFFFF0
2FFFFFFFD0
0BFFFFFF40
01BFFFE800
ENDCHAR
STARTCHAR umacron
ENCODING 363
SWIDTH 578 0
DWIDTH 19 0
BBX 19 30 0 0
BITMAP
0000550000
001BFFE400
007FFFFD00
01FFFFFF40
02FFFFFF80
02FC007FC0
02FD557FC0
01FFFFFF80
00FFFFFF00
06FFFFFE00
1FC7FFC780
3FC7FFC7E0
BFC7FFC7F0
FFC7FFC7F4
FFC7FFC7F8
FFC7FFC7F8
FFC7FFC7F8
FFC7FFC7F8
FFC7FFC7F8
FFC7FFC7F8
FFC7FFC7F8
FFD15507F8
FFF4001FF8
FFFFFFFFF8
FFFFFFFFF8
FFFFFFFFF4
7FFFFFFFF0
2FFFFFFFD0
0BFFFFFF40
01BFFFE800
ENDCHAR
STARTCHAR Ubreve
ENCODING 364
SWIDTH 578 0
DWIDTH 19 0
BBX 19 30 0 0
BITMAP
0000550000
001BFFE400
007FFFFD00
01FFFFFF40
02FFFFFF80
02FDBE7FC0
02FD297FC0
01FF40BF80
00FFFFFF00
06FFFFFE00
1FC7FFC780
3FC7FFC7E0
BFC7FFC7F0
FFC7FFC7F4
FFC7FFC7F8
FFC7FFC7F8
FFC7FFC7F8
FFC7FFC7F8
FFC7FFC7F8
FFC7FFC7F8
FFC7FFC7F8
FFD15507F8
FFF4001FF8
FFFFFFFFF8
FFFFFFFFF8
FFFFFFFFF4
7FFFFFFFF0
2FFFFFFFD0
0BFFFFFF40
01BFFFE800
ENDCHAR
STARTCHAR ubreve
ENCODING 365
SWIDTH 578 0
DWIDTH 19 0
BBX 19 30 0 0
BITMAP
0000550000
001BFFE400
007FFFFE00
01FFFFFF40
02FFFFFF80
02FEBE7FC0
02FD293FC0
01FF40BF80
00FFFFFF00
06FFFFFE00
1FC7FFC780
3FC7FFC7E0
BFC7FFC7F0
FFC7FFC7F4
FFC7FFC7F8
FFC7FFC7F8
FFC7FFC7F8
FFC7FFC7F8
FFC7FFC7F8
FFC7FFC7F8
FFC7FFC7F8
FFD15507F8
FFF4001FF8
FFFFFFFFF8
FFFFFFFFF8
FFFFFFFFF4
7FFFFFFFF0
2FFFFFFFD0
0BFFFFFF40
01BFFFE800
ENDCHAR
STARTCHAR Uring
ENCODING 366
SWIDTH 578 0
DWIDTH 19 0
BBX 19 30 0 0
BITMAP
0001BE4000
001FFFE000
003FFFF800
00BE01FD00
00FD78BE00
00FDBD7E00
00FD68BE00
00FF41FE00
00BFFFFD00
06FFFFFD00
1FC7FFC780
3FC7FFC7E0
BFC7FFC7F0
FFC7FFC7F4
FFC7FFC7F8
FFC7FFC7F8
FFC7FFC7F8
FFC7FFC7F8
FFC7FFC7F8
FFC7FFC7F8
FFC7FFC7F8
FFD15507F8
FFF4001FF8
FFFFFFFFF8
FFFFFFFFF8
FFFFFFFFF4
7FFFFFFFF0
2FFFFFFFD0
0BFFFFFF40
01BFFFE800
ENDCHAR
STARTCHAR uring
ENCODING 367
SWIDTH 578 0
DWIDTH 19 0
BBX 19 30 0 0
BITMAP
0001BE4000
001FFFE000
003FFFF800
00BE01FD00
00FD78BE00
00FDBD7E00
00FD68BF00
00FF41FE00
00BFFFFD00
06FFFFFD00
1FC7FFC780
3FC7FFC7E0
BFC7FFC7F0
FFC7FFC7F4
FFC7FFC7F8
FFC7FFC7F8
FFC7FFC7F8
FFC7FFC7F8
FFC7FFC7F8
FFC7FFC7F8
FFC7FFC7F8
FFD15507F8
FFF4001FF8
FFFFFFFFF8
FFFFFFFFF8
FFFFFFFFF4
7FFFFFFFF0
2FFFFFFFD0
0BFFFFFF40
01BFFFE800
ENDCHAR
STARTCHAR Uhungarumlaut
ENCODING 368
SWIDTH 581 0
DWIDTH 19 0
BBX 19 31 0 0
BITMAP
00002FEF80
0000BFFFC0
0001FFFFE0
0002F8F5F0
0007F2E3F8
000FE7DBF0
001FCF9FD0
002FAF7F80
003FBFFF00
003FFFFD00
06FFFFFD00
1FC7FFC780
3FC7FFC7E0
BFC7FFC7F0
FFC7FFC7F4
FFC7FFC7F8
FFC7FFC7F8
FFC7FFC7F8
FFC7FFC7F8
FFC7FFC7F8
FFC7FFC7F8
FFC7FFC7F8
FFD15507F8
FFF4001FF8
FFFFFFFFF8
FFFFFFFFF8
FFFFFFFFF4
7FFFFFFFF0
2FFFFFFFD0
0BFFFFFF40
01BFFFE800
ENDCHAR
STARTCHAR uhungarumlaut
ENCODING 369
SWIDTH 582 0
DWIDTH 19 0
BBX 19 31 0 0
BITMAP
00002FEF80
0000BFFFC0
0001FFFFE0
0002F8F5F0
0007F6E3F8
000BE7DBF0
001FCF9FD0
002FAF7F80
003FBFFF00
003FFFFD00
06FFFFFD00
1FC7FFC780
3FC7FFC7E0
BFC7FFC7F0
FFC7FFC7F4
FFC7FFC7F8
FFC7FFC7F8
FFC7FFC7F8
FFC7FFC7F8
FFC7FFC7F8
FFC7FFC7F8
FFC7FFC7F8
FFD15507F8
FFF4001FF8
FFFFFFFFF8
FFFFFFFFF8
FFFFFFFFF4
7FFFFFFFF0
2FFFFFFFD0
0BFFFFFF40
01BFFFE800
ENDCHAR
STARTCHAR Uogonek
ENCODING 370
SWIDTH 578 0
DWIDTH 19 0
BBX 19 22 0 0
BITMAP
0015555000
06FFFFFD00
1FC7FFC780
3FC7FFC7E0
BFC7FFC7F0
FFC7FFC7F4
FFC7FFC7F8
FFC7FFC7F8
FFC7FFC7F8
FFC7FFC7F8
FFC7FFC7F8
FFC7FFC7F8
FFC7FFC7F8
FFD15507F8
FFF4001FF8
FFFFE2FFF8
FFFF8BFFF8
FFFF8FFFF4
7FFF86FFF0
2FFFD1FFD0
0BFFFFFF40
01BFFFE800
ENDCHAR
STARTCHAR uogonek
ENCODING 371
SWIDTH 578 0
DWIDTH 19 0
BBX 19 22 0 0
BITMAP
0015555000
06FFFFFD00
1FC7FFC780
3FC7FFC7E0
BFC7FFC7F0
FFC7FFC7F4
FFC7FFC7F8
FFC7FFC7F8
FFC7FFC7F8
FFC7FFC7F8
FFC7FFC7F8
FFC7FFC7F8
FFC7FFC7F8
FFD15507F8
FFF4001FF8
FFFFE2FFF8
FFFF8BFFF8
FFFF8FFFF4
7FFF86FFF0
2FFFD1FFD0
0BFFFFFF40
01BFFFE800
ENDCHAR
STARTCHAR Wcircumflex
ENCODING 372
SWIDTH 578 0
DWIDTH 19 0
BBX 19 32 0 0
BITMAP
0000540000
0007FF4000
000BFFC000
001FEFD000
002F87F000
003F63F400
00BE36F800
00FD79FC00
00FCBCFD00
00FFFFFD00
00FFFFFC00
06FFFFFD00
1E2FEBF180
3E2F87F1E0
BE2F87F1F0
FE1F43E1F4
FF1F43E2F8
FF1F12E2F8
FF1F12E2F8
FF4E21D3F8
FF4E35D3F8
FF4D34D3F8
FF887487F8
FF847847F8
FFD1FD1FF8
FFFFFFFFF8
FFFFFFFFF8
FFFFFFFFF4
7FFFFFFFF0
2FFFFFFFD0
0BFFFFFF40
01BFFFE800
ENDCHAR
STARTCHAR wcircumflex
ENCODING 373
SWIDTH 578 0
DWIDTH 19 0
BBX 19 32 0 0
BITMAP
0000540000
0007FF4000
000BFFC000
001FEFD000
002F87F000
003F63F400
00BE36F800
00FD79FC00
00FCBCFD00
00FFFFFD00
00FFFFFC00
06FFFFFD00
1E2FEBF180
3E2F87F1E0
BE2F87F1F0
FE1F43E1F4
FF1F43E2F8
FF1F12E2F8
FF1F12E2F8
FF4E21D3F8
FF4E35D3F8
FF4D34D3F8
FF887487F8
FF847847F8
FFD1FD1FF8
FFFFFFFFF8
FFFFFFFFF8
FFFFFFFFF4
7FFFFFFFF0
2FFFFFFFD0
0BFFFFFF40
01BFFFE800
ENDCHAR
STARTCHAR Ycircumflex
ENCODING 374
SWIDTH 578 0
DWIDTH 19 0
BBX 19 32 0 0
BITMAP
0000550000
0002FF8000
0007FFD000
000FEBE000
001FC3F400
002F56F800
007F29FC00
00BE3CFD00
00BD7DBE00
00BFFFFE00
00BFFFFD00
06FFFFFD00
1FD2FF8780
3FF1FF4FE0
BFF4FE1FF0
FFF87D2FF4
FFFC3C7FF8
FFFE28BFF8
FFFF10FFF8
FFFF41FFF8
FFFF83FFF8
FFFFC7FFF8
FFFFC7FFF8
FFFFC7FFF8
FFFFD7FFF8
FFFFFFFFF8
FFFFFFFFF8
FFFFFFFFF4
7FFFFFFFF0
2FFFFFFFD0
0BFFFFFF40
01BFFFE800
ENDCHAR
STARTCHAR ycircumflex
ENCODING 375
SWIDTH 578 0
DWIDTH 19 0
BBX 19 32 0 0
BITMAP
0000550000
0002FF8000
0007FFD000
000FEBE000
001FC3F400
002F56F800
007F29FC00
00BE3CFD00
00BD7DBE00
00BFFFFE00
00BFFFFD00
06FFFFFD00
1FD2FF8780
3FF1FF4FE0
BFF4FE1FF0
FFF87D2FF4
FFFC3C7FF8
FFFE28BFF8
FFFF10FFF8
FFFF41FFF8
FFFF83FFF8
FFFFC7FFF8
FFFFC7FFF8
FFFFC7FFF8
FFFFD7FFF8
FFFFFFFFF8
FFFFFFFFF8
FFFFFFFFF4
7FFFFFFFF0
2FFFFFFFD0
0BFFFFFF40
01BFFFE800
ENDCHAR
STARTCHAR Ydieresis
ENCODING 376
SWIDTH 578 0
DWIDTH 19 0
BBX 19 30 0 0
BITMAP
0000140000
0007FFD000
002FFFF800
00BFFFFE00
00FEBEBF00
01F83C3F40
00FD7D7F00
00BFFFFE00
007FFFFD00
06FFFFFD00
1FD2FF8780
3FF1FF4FE0
BFF4FE1FF0
FFF87D2FF4
FFFC3C7FF8
FFFE28BFF8
FFFF10FFF8
FFFF41FFF8
FFFF83FFF8
FFFFC7FFF8
FFFFC7FFF8
FFFFC7FFF8
FFFFD7FFF8
FFFFFFFFF8
FFFFFFFFF8
FFFFFFFFF4
7FFFFFFFF0
2FFFFFFFD0
0BFFFFFF40
01BFFFE800
ENDCHAR
STARTCHAR Zacute
ENCODING 377
SWIDTH 578 0
DWIDTH 19 0
BBX 19 31 0 0
BITMAP
0000AA4000
0007FFF000
000BFFF800
000FD2F800
001FC7F800
002F8BF400
003F8FE000
003F6FC000
003FBF4000
003FFF5000
06FFFFFD00
1FF0003F80
3FF5542FE0
BFFFFC7FF0
FFFFF4BFF4
FFFFE1FFF8
FFFFD2FFF8
FFFF87FFF8
FFFF4FFFF8
FFFE2FFFF8
FFFC3FFFF8
FFF4BFFFF8
FFF0555FF8
FFF4001FF8
FFFFFFFFF8
FFFFFFFFF8
FFFFFFFFF4
7FFFFFFFF0
2FFFFFFFD0
0BFFFFFF40
01BFFFE800
ENDCHAR
STARTCHAR zacute
ENCODING 378
SWIDTH 578 0
DWIDTH 19 0
BBX 19 31 0 0
BITMAP
0000AA4000
0007FFF000
000BFFF800
000FD2F800
001FC7F800
002F8BF400
003F8FE000
003F6FC000
003FBF4000
003FFF5000
06FFFFFD00
1FF0003F80
3FF5542FE0
BFFFFC7FF0
FFFFF4BFF4
FFFFE1FFF8
FFFFD2FFF8
FFFF87FFF8
FFFF4FFFF8
FFFE2FFFF8
FFFC3FFFF8
FFF4BFFFF8
FFF0555FF8
FFF4001FF8
FFFFFFFFF8
FFFFFFFFF8
FFFFFFFFF4
7FFFFFFFF0
2FFFFFFFD0
0BFFFFFF40
01BFFFE800
ENDCHAR
STARTCHAR Zdotaccent
ENCODING 379
SWIDTH 578 0
DWIDTH 19 0
BBX 19 30 0 0
BITMAP
0001540000
002FFF9000
01FFFFF800
03FFFFFE00
07FFFFFF00
0BFF4BFF00
0BFF4BFF00
07FFFFFF00
03FFFFFD00
07FFFFFD00
1FF0003F80
3FF5542FE0
BFFFFC7FF0
FFFFF4BFF4
FFFFE1FFF8
FFFFD2FFF8
FFFF87FFF8
FFFF4FFFF8
FFFE2FFFF8
FFFC3FFFF8
FFF4BFFFF8
FFF0555FF8
FFF4001FF8
FFFFFFFFF8
FFFFFFFFF8
FFFFFFFFF4
7FFFFFFFF0
2FFFFFFFD0
0BFFFFFF40
01BFFFE800
ENDCHAR
STARTCHAR zdotaccent
ENCODING 380
SWIDTH 578 0
DWIDTH 19 0
BBX 19 30 0 0
BITMAP
0001540000
002FFF9000
01FFFFF800
03FFFFFE00
07FFFFFF00
0BFF4BFF00
0BFF4BFF00
07FFFFFF00
03FFFFFD00
07FFFFFD00
1FF0003F80
3FF5542FE0
BFFFFC7FF0
FFFFF4BFF4
FFFFE1FFF8
FFFFD2FFF8
FFFF87FFF8
FFFF4FFFF8
FFFE2FFFF8
FFFC3FFFF8
FFF4BFFFF8
FFF0555FF8
FFF4001FF8
FFFFFFFFF8
FFFFFFFFF8
FFFFFFFFF4
7FFFFFFFF0
2FFFFFFFD0
0BFFFFFF40
01BFFFE800
ENDCHAR
STARTCHAR Zcaron
ENCODING 381
SWIDTH 578 0
DWIDTH 19 0
BBX 19 31 0 0
BITMAP
0005455000
007FEFF400
00FFFFFC00
01FDFDFD00
00FDB9FC00
00FE76FC00
00BF33F800
007F57F400
003FDBF000
003FFFF000
06FFFFFD00
1FF0003F80
3FF5542FE0
BFFFFC7FF0
FFFFF4BFF4
FFFFE1FFF8
FFFFD2FFF8
FFFF87FFF8
FFFF4FFFF8
FFFE2FFFF8
FFFC3FFFF8
FFF4BFFFF8
FFF0555FF8
FFF4001FF8
FFFFFFFFF8
FFFFFFFFF8
FFFFFFFFF4
7FFFFFFFF0
2FFFFFFFD0
0BFFFFFF40
01BFFFE800
ENDCHAR
STARTCHAR zcaron
ENCODING 382
SWIDTH 578 0
DWIDTH 19 0
BBX 19 31 0 0
BITMAP
0005455000
007FEFF400
00FFFFFC00
01FDFDFD00
00FDB9FC00
00FE76FC00
00BF33F800
007F57F400
003FDBF000
003FFFF000
06FFFFFD00
1FF0003F80
3FF5542FE0
BFFFFC7FF0
FFFFF4BFF4
FFFFE1FFF8
FFFFD2FFF8
FFFF87FFF8
FFFF4FFFF8
FFFE2FFFF8
FFFC3FFFF8
FFF4BFFFF8
FFF0555FF8
FFF4001FF8
FFFFFFFFF8
FFFFFFFFF8
FFFFFFFFF4
7FFFFFFFF0
2FFFFFFFD0
0BFFFFFF40
01BFFFE800
ENDCHAR
STARTCHAR longs
ENCODING 383
SWIDTH 578 0
DWIDTH 19 0
BBX 19 22 0 0
BITMAP
0015555000
06FFFFFD00
1FFFEFFF80
3FFD00BFE0
BFF1BD2FF0
FFD7FF8FF4
FFCFFFDBF8
FF8FEFD7F8
FFCFCBD7F8
FFCBCBCBF8
FFE3CB5FF8
FFF5CA3FF8
FFFFCBFFF8
FFFFDBFFF8
FFFFFFFFF8
FFFFFFFFF8
FFFFFFFFF8
FFFFFFFFF4
7FFFFFFFF0
2FFFFFFFD0
0BFFFFFF40
01BFFFE800
ENDCHAR
STARTCHAR florin
ENCODING 402
SWIDTH 578 0
DWIDTH 19 0
BBX 19 22 0 0
BITMAP
0015555000
06FFFFFD00
1FFFC0BF80
3FFF15BFE0
BFFE2FFFF0
FFFE2FFFF4
FFFE2FFFF8
FFFA1AFFF8
FFF401FFF8
FFFE1FFFF8
FFFE2FFFF8
FFFE2FFFF8
FFFE2FFFF8
FFFE2FFFF8
FFFE2FFFF8
FFFE2FFFF8
FFE92FFFF8
FFE0BFFFF4
7FFFFFFFF0
2FFFFFFFD0
0BFFFFFF40
01BFFFE800
ENDCHAR
STARTCHAR uni01CD
ENCODING 461
SWIDTH 578 0
DWIDTH 19 0
BBX 19 31 0 0
BITMAP
0005415000
007FEFF800
00BFFFFD00
00FDBDBE00
00FE7CFD00
00BF39FD00
007F66FC00
003F93F800
002FDBF400
002FFFF000
06FFFFFD00
1FF9007F80
3FF0551FE0
BFE2FF1FF0
FFE2FF0FF4
FFE2FF4FF8
FFD3FF4FF8
FFD2AA4BF8
FFD0000BF8
FFC3FF8BF8
FFC7FF87F8
FFC7FFC7F8
FF87FFC7F8
FF8BFFC7F8
FFFFFFFFF8
FFFFFFFFF8
FFFFFFFFF4
7FFFFFFFF0
2FFFFFFFD0
0BFFFFFF40
01BFFFE800
ENDCHAR
STARTCHAR uni01CE
ENCODING 462
SWIDTH 578 0
DWIDTH 19 0
BBX 19 31 0 0
BITMAP
0005415000
002FFBFC00
007FFFFE00
00BE7E7E00
00BE3DBE00
007F6CFE00
003F99FD00
002FC6FC00
001FE7F800
001FFFF400
06FFFFFD00
1FE0007F80
3FF5551FE0
BFFFFF1FF0
FFFFFF1FF4
FFFFFF1FF8
FFFFFF1FF8
FFE4011FF8
FF81541FF8
FF8BFF1FF8
FF8BFF1FF8
FF8BFF1FF8
FF81551FF8
FFE4015FF8
FFFFFFFFF8
FFFFFFFFF8
FFFFFFFFF4
7FFFFFFFF0
2FFFFFFFD0
0BFFFFFF40
01BFFFE800
ENDCHAR
STARTCHAR uni01CF
ENCODING 463
SWIDTH 578 0
DWIDTH 19 0
BBX 19 31 0 0
BITMAP
0005415000
002FFBFD00
007FFFFE00
007E7E7F00
007F3D7F00
007F6CFE00
003F99FD00
002FC6FD00
001FE7FC00
001FFFF800
06FFFFFD00
1FE0000780
3FE5415BE0
BFFFD3FFF0
FFFFD3FFF4
FFFFD3FFF8
FFFFD3FFF8
FFFFD3FFF8
FFFFD3FFF8
FFFFD3FFF8
FFFFD3FFF8
FFFFD3FFF8
FFE5415BF8
FFE00007F8
FFFFFFFFF8
FFFFFFFFF8
FFFFFFFFF4
7FFFFFFFF0
2FFFFFFFD0
0BFFFFFF40
01BFFFE800
ENDCHAR
STARTCHAR uni01D0
ENCODING 464
SWIDTH 578 0
DWIDTH 19 0
BBX 19 31 0 0
BITMAP
0005415000
002FFBFD00
007FFFFE00
00BE7E7F00
007F3DBE00
007F6CFE00
003F99FD00
002FC6FC00
001FE7F800
001FFFF400
06FFFFFD00
1FE0000780
3FE5415BE0
BFFFD3FFF0
FFFFD3FFF4
FFFFD3FFF8
FFFFD3FFF8
FFFFD3FFF8
FFFFD3FFF8
FFFFD3FFF8
FFFFD3FFF8
FFFFD3FFF8
FFE5415BF8
FFE00007F8
FFFFFFFFF8
FFFFFFFFF8
FFFFFFFFF4
7FFFFFFFF0
2FFFFFFFD0
0BFFFFFF40
01BFFFE800
ENDCHAR
STARTCHAR uni01D1
ENCODING 465
SWIDTH 578 0
DWIDTH 19 0
BBX 19 31 0 0
BITMAP
0005415000
002FFFFC00
00BFFFFE00
00BEBEBE00
00BE3CBE00
007F28FD00
003F95FD00
003FC3FC00
002FEBF800
001FFFF400
06FFFFFD00
1FF4001F80
3FD15547E0
BFC7FFD3F0
FFC7FFD3F4
FFC7FFD3F8
FFC7FFD3F8
FFC7FFD3F8
FFC7FFD3F8
FFC7FFD3F8
FFC7FFD3F8
FFC7FFC3F8
FFD15547F8
FFF4001FF8
FFFFFFFFF8
FFFFFFFFF8
FFFFFFFFF4
7FFFFFFFF0
2FFFFFFFD0
0BFFFFFF40
01BFFFE800
ENDCHAR
STARTCHAR uni01D3
ENCODING 467
SWIDTH 578 0
DWIDTH 19 0
BBX 19 31 0 0
BITMAP
0005415000
002FFBFD00
007FFFFE00
00BE7E7F00
00BF3DBE00
007F6CFE00
003F99FD00
002FC6FC00
001FE7F800
001FFFF400
06FFFFFD00
1FC7FFC780
3FC7FFC7E0
BFC7FFC7F0
FFC7FFC7F4
FFC7FFC7F8
FFC7FFC7F8
FFC7FFC7F8
FFC7FFC7F8
FFC7FFC7F8
FFC7FFC7F8
FFC7FFC7F8
FFD15507F8
FFF4001FF8
FFFFFFFFF8
FFFFFFFFF8
FFFFFFFFF4
7FFFFFFFF0
2FFFFFFFD0
0BFFFFFF40
01BFFFE800
ENDCHAR
STARTCHAR uni01D4
ENCODING 468
SWIDTH 578 0
DWIDTH 19 0
BBX 19 31 0 0
BITMAP
0005415000
002FFBFD00
007FFFFE00
00BE7E7F00
007F3DBE00
007F6CFE00
003F99FD00
002FC6FC00
001FE7F800
001FFFF400
06FFFFFD00
1FC7FFC780
3FC7FFC7E0
BFC7FFC7F0
FFC7FFC7F4
FFC7FFC7F8
FFC7FFC7F8
FFC7FFC7F8
FFC7FFC7F8
FFC7FFC7F8
FFC7FFC7F8
FFC7FFC7F8
FFD15507F8
FFF4001FF8
FFFFFFFFF8
FFFFFFFFF8
FFFFFFFFF4
7FFFFFFFF0
2FFFFFFFD0
0BFFFFFF40
01BFFFE800
ENDCHAR
STARTCHAR uni0200
ENCODING 512
SWIDTH 578 0
DWIDTH 19 0
BBX 19 31 0 0
BITMAP
02FBF80000
03FFFE0000
0BFFFF4000
0F5F2F8000
2FCB8FD000
0FE7DBF000
07F6F3F400
02FDFAF800
00FFFEFC00
007FFFF800
06FFFFFD00
1FF9007F80
3FF0551FE0
BFE2FF1FF0
FFE2FF0FF4
FFE2FF4FF8
FFD3FF4FF8
FFD2AA4BF8
FFD0000BF8
FFC3FF8BF8
FFC7FF87F8
FFC7FFC7F8
FF87FFC7F8
FF8BFFC7F8
FFFFFFFFF8
FFFFFFFFF8
FFFFFFFFF4
7FFFFFFFF0
2FFFFFFFD0
0BFFFFFF40
01BFFFE800
ENDCHAR
STARTCHAR uni0201
ENCODING 513
SWIDTH 578 0
DWIDTH 19 0
BBX 19 31 0 0
BITMAP
02FBF80000
03FFFE0000
0BFFFF4000
0F5F2F8000
2FCB8FD000
0FE7DBF000
07F6F3F400
02FDFAF800
00FFFEFC00
007FFFF800
06FFFFFD00
1FE0007F80
3FF5551FE0
BFFFFF1FF0
FFFFFF1FF4
FFFFFF1FF8
FFFFFF1FF8
FFE4011FF8
FF81541FF8
FF8BFF1FF8
FF8BFF1FF8
FF8BFF1FF8
FF81551FF8
FFE4015FF8
FFFFFFFFF8
FFFFFFFFF8
FFFFFFFFF4
7FFFFFFFF0
2FFFFFFFD0
0BFFFFFF40
01BFFFE800
ENDCHAR
STARTCHAR uni0202
ENCODING 514
SWIDTH 578 0
DWIDTH 19 0
BBX 19 30 0 0
BITMAP
0001A94000
002FFFF400
00FFFFFD00
02FFFFFF40
03FFABFF80
03FD00BF80
03FC7C7F40
02FEFEBF00
00FFFFFD00
06FFFFFD00
1FF9007F80
3FF0551FE0
BFE2FF1FF0
FFE2FF0FF4
FFE2FF4FF8
FFD3FF4FF8
FFD2AA4BF8
FFD0000BF8
FFC3FF8BF8
FFC7FF87F8
FFC7FFC7F8
FF87FFC7F8
FF8BFFC7F8
FFFFFFFFF8
FFFFFFFFF8
FFFFFFFFF4
7FFFFFFFF0
2FFFFFFFD0
0BFFFFFF40
01BFFFE800
ENDCHAR
STARTCHAR uni0203
ENCODING 515
SWIDTH 578 0
DWIDTH 19 0
BBX 19 30 0 0
BITMAP
0001A94000
002FFFF400
00FFFFFD00
02FFFFFF40
03FFABFF80
03FD00BF80
03FC7C7F40
02FEFEBF00
00FFFFFD00
06FFFFFD00
1FE0007F80
3FF5551FE0
BFFFFF1FF0
FFFFFF1FF4
FFFFFF1FF8
FFFFFF1FF8
FFE4011FF8
FF81541FF8
FF8BFF1FF8
FF8BFF1FF8
FF8BFF1FF8
FF81551FF8
FFE4015FF8
FFFFFFFFF8
FFFFFFFFF8
FFFFFFFFF4
7FFFFFFFF0
2FFFFFFFD0
0BFFFFFF40
01BFFFE800
ENDCHAR
STARTCHAR uni0204
ENCODING 516
SWIDTH 578 0
DWIDTH 19 0
BBX 19 31 0 0
BITMAP
02FBF80000
03FFFE0000
0BFFFF4000
0F5F2F8000
2FCB8FD000
0FE7DBF000
07F6F3F400
02FDFAF800
00FFFEFC00
007FFFF800
06FFFFFD00
1FF4000F80
3FF4555FE0
BFF4FFFFF0
FFF4FFFFF4
FFF4FFFFF8
FFF4AABFF8
FFF4003FF8
FFF4AABFF8
FFF4FFFFF8
FFF4FFFFF8
FFF4FFFFF8
FFF4555FF8
FFF4000FF8
FFFFFFFFF8
FFFFFFFFF8
FFFFFFFFF4
7FFFFFFFF0
2FFFFFFFD0
0BFFFFFF40
01BFFFE800
ENDCHAR
STARTCHAR uni0205
ENCODING 517
SWIDTH 578 0
DWIDTH 19 0
BBX 19 31 0 0
BITMAP
02FBF80000
03FFFE0000
0BFFFF4000
0F5F2F8000
2FCB8FD000
0FE7DBF000
07F6F3F400
02FDFAF800
00FFFEFC00
007FFFF800
06FFFFFD00
1FE0007F80
3FC1551FE0
BF8BFF1FF0
FF8BFF1FF4
FF86AA1FF8
FF80001FF8
FF86AAAFF8
FF8BFFFFF8
FF8BFFFFF8
FF8BFFFFF8
FFC6AABFF8
FFD0003FF8
FFFAAABFF8
FFFFFFFFF8
FFFFFFFFF8
FFFFFFFFF4
7FFFFFFFF0
2FFFFFFFD0
0BFFFFFF40
01BFFFE800
ENDCHAR
STARTCHAR uni0206
ENCODING 518
SWIDTH 578 0
DWIDTH 19 0
BBX 19 30 0 0
BITMAP
0001A94000
002FFFF400
00FFFFFD00
02FFFFFF40
03FFABFF80
03FD00BF80
03FC7C7F40
02FEFEBF00
00FFFFFD00
06FFFFFD00
1FF4000F80
3FF4555FE0
BFF4FFFFF0
FFF4FFFFF4
FFF4FFFFF8
FFF4AABFF8
FFF4003FF8
FFF4AABFF8
FFF4FFFFF8
FFF4FFFFF8
FFF4FFFFF8
FFF4555FF8
FFF4000FF8
FFFFFFFFF8
FFFFFFFFF8
FFFFFFFFF4
7FFFFFFFF0
2FFFFFFFD0
0BFFFFFF40
01BFFFE800
ENDCHAR
STARTCHAR uni0207
ENCODING 519
SWIDTH 578 0
DWIDTH 19 0
BBX 19 30 0 0
BITMAP
0001A94000
002FFFF400
00FFFFFD00
02FFFFFF40
03FFABFF80
03FD00BF80
03FC7C7F40
02FEFEBF00
00FFFFFD00
06FFFFFD00
1FE0007F80
3FC1551FE0
BF8BFF1FF0
FF8BFF1FF4
FF86AA1FF8
FF80001FF8
FF86AAAFF8
FF8BFFFFF8
FF8BFFFFF8
FF8BFFFFF8
FFC6AABFF8
FFD0003FF8
FFFAAABFF8
FFFFFFFFF8
FFFFFFFFF8
FFFFFFFFF4
7FFFFFFFF0
2FFFFFFFD0
0BFFFFFF40
01BFFFE800
ENDCHAR
STARTCHAR uni0208
ENCODING 520
SWIDTH 578 0
DWIDTH 19 0
BBX 19 31 0 0
BITMAP
02FBF80000
03FFFE0000
0BFFFF4000
0F5F2F8000
2FCB8FD000
0FE7DBF000
07F6F3F400
02FDFAF800
00FFFEFC00
007FFFF800
06FFFFFD00
1FE0000780
3FE5415BE0
BFFFD3FFF0
FFFFD3FFF4
FFFFD3FFF8
FFFFD3FFF8
FFFFD3FFF8
FFFFD3FFF8
FFFFD3FFF8
FFFFD3FFF8
FFFFD3FFF8
FFE5415BF8
FFE00007F8
FFFFFFFFF8
FFFFFFFFF8
FFFFFFFFF4
7FFFFFFFF0
2FFFFFFFD0
0BFFFFFF40
01BFFFE800
ENDCHAR
STARTCHAR uni0209
ENCODING 521
SWIDTH 578 0
DWIDTH 19 0
BBX 19 31 0 0
BITMAP
02FBF80000
03FFFE0000
0BFFFF4000
0F5F2F8000
2FCB8FD000
0FE7DBF000
07F6F3F400
02FDFAF800
00FFFEFC00
007FFFF800
06FFFFFD00
1FE0000780
3FE5415BE0
BFFFD3FFF0
FFFFD3FFF4
FFFFD3FFF8
FFFFD3FFF8
FFFFD3FFF8
FFFFD3FFF8
FFFFD3FFF8
FFFFD3FFF8
FFFFD3FFF8
FFE5415BF8
FFE00007F8
FFFFFFFFF8
FFFFFFFFF8
FFFFFFFFF4
7FFFFFFFF0
2FFFFFFFD0
0BFFFFFF40
01BFFFE800
ENDCHAR
STARTCHAR uni020A
ENCODING 522
SWIDTH 578 0
DWIDTH 19 0
BBX 19 30 0 0
BITMAP
0001A94000
002FFFF400
00FFFFFD00
02FFFFFF40
03FFABFF80
03FD00BF80
03FC7C7F40
02FEFEBF00
00FFFFFD00
06FFFFFD00
1FE0000780
3FE5415BE0
BFFFD3FFF0
FFFFD3FFF4
FFFFD3FFF8
FFFFD3FFF8
FFFFD3FFF8
FFFFD3FFF8
FFFFD3FFF8
FFFFD3FFF8
FFFFD3FFF8
FFE5415BF8
FFE00007F8
FFFFFFFFF8
FFFFFFFFF8
FFFFFFFFF4
7FFFFFFFF0
2FFFFFFFD0
0BFFFFFF40
01BFFFE800
ENDCHAR
STARTCHAR uni020B
ENCODING 523
SWIDTH 578 0
DWIDTH 19 0
BBX 19 30 0 0
BITMAP
0001A94000
002FFFF400
00FFFFFD00
02FFFFFF40
03FFABFF80
03FD00BF80
03FC7C7F40
02FEFEBF00
00FFFFFD00
06FFFFFD00
1FE0000780
3FE5415BE0
BFFFD3FFF0
FFFFD3FFF4
FFFFD3FFF8
FFFFD3FFF8
FFFFD3FFF8
FFFFD3FFF8
FFFFD3FFF8
FFFFD3FFF8
FFFFD3FFF8
FFE5415BF8
FFE00007F8
FFFFFFFFF8
FFFFFFFFF8
FFFFFFFFF4
7FFFFFFFF0
2FFFFFFFD0
0BFFFFFF40
01BFFFE800
ENDCHAR
STARTCHAR uni020C
ENCODING 524
SWIDTH 578 0
DWIDTH 19 0
BBX 19 31 0 0
BITMAP
02FBF80000
03FFFE0000
0BFFFF4000
0F5F2F8000
2FCB8FD000
0FE7DBF000
07F6F3F400
02FDFAF800
00FFFEFC00
007FFFF800
06FFFFFD00
1FF4001F80
3FD15547E0
BFC7FFD3F0
FFC7FFD3F4
FFC7FFD3F8
FFC7FFD3F8
FFC7FFD3F8
FFC7FFD3F8
FFC7FFD3F8
FFC7FFD3F8
FFC7FFC3F8
FFD15547F8
FFF4001FF8
FFFFFFFFF8
FFFFFFFFF8
FFFFFFFFF4
7FFFFFFFF0
2FFFFFFFD0
0BFFFFFF40
01BFFFE800
ENDCHAR
STARTCHAR uni020D
ENCODING 525
SWIDTH 578 0
DWIDTH 19 0
BBX 19 31 0 0
BITMAP
02FBF80000
03FFFE0000
0BFFFF4000
0F5F2F8000
2FCB8FD000
0FE7DBF000
07F6F3F400
02FDFAF800
00FFFEFC00
007FFFF800
06FFFFFD00
1FF4001F80
3FD15547E0
BFC7FFD3F0
FFC7FFD3F4
FFC7FFD3F8
FFC7FFD3F8
FFC7FFD3F8
FFC7FFD3F8
FFC7FFD3F8
FFC7FFD3F8
FFC7FFC3F8
FFD15547F8
FFF4001FF8
FFFFFFFFF8
FFFFFFFFF8
FFFFFFFFF4
7FFFFFFFF0
2FFFFFFFD0
0BFFFFFF40
01BFFFE800
ENDCHAR
STARTCHAR uni020E
ENCODING 526
SWIDTH 578 0
DWIDTH 19 0
BBX 19 30 0 0
BITMAP
0001A94000
002FFFF400
00FFFFFD00
02FFFFFF40
03FFABFF80
03FD00BF80
03FC7C7F40
02FEFEBF00
00FFFFFD00
06FFFFFD00
1FF4001F80
3FD15547E0
BFC7FFD3F0
FFC7FFD3F4
FFC7FFD3F8
FFC7FFD3F8
FFC7FFD3F8
FFC7FFD3F8
FFC7FFD3F8
FFC7FFD3F8
FFC7FFC3F8
FFD15547F8
FFF4001FF8
FFFFFFFFF8
FFFFFFFFF8
FFFFFFFFF4
7FFFFFFFF0
2FFFFFFFD0
0BFFFFFF40
01BFFFE800
ENDCHAR
STARTCHAR uni020F
ENCODING 527
SWIDTH 578 0
DWIDTH 19 0
BBX 19 30 0 0
BITMAP
0001A94000
002FFFF400
00FFFFFD00
02FFFFFF40
03FFABFF80
03FD00BF80
03FC7C7F40
02FEFEBF00
00FFFFFD00
06FFFFFD00
1FF4001F80
3FD15547E0
BFC7FFD3F0
FFC7FFD3F4
FFC7FFD3F8
FFC7FFD3F8
FFC7FFD3F8
FFC7FFD3F8
FFC7FFD3F8
FFC7FFD3F8
FFC7FFC3F8
FFD15547F8
FFF4001FF8
FFFFFFFFF8
FFFFFFFFF8
FFFFFFFFF4
7FFFFFFFF0
2FFFFFFFD0
0BFFFFFF40
01BFFFE800
ENDCHAR
STARTCHAR uni0210
ENCODING 528
SWIDTH 578 0
DWIDTH 19 0
BBX 19 31 0 0
BITMAP
02FBF80000
03FFFE0000
0BFFFF4000
0F5F2F8000
2FCB8FD000
0FE7DBF000
07F6F3F400
02FDFAF800
00FFFEFC00
007FFFF800
06FFFFFD00
1FD0007F80
3FD1551FE0
BFD3FF4FF0
FFD3FF4FF4
FFD3FF4FF8
FFD3FF1FF8
FFD000BFF8
FFD1542FF8
FFD3FF4FF8
FFD3FF4FF8
FFD3FF4FF8
FFD3FF4FF8
FFD3FF4FF8
FFFFFFFFF8
FFFFFFFFF8
FFFFFFFFF4
7FFFFFFFF0
2FFFFFFFD0
0BFFFFFF40
01BFFFE800
ENDCHAR
STARTCHAR uni0211
ENCODING 529
SWIDTH 578 0
DWIDTH 19 0
BBX 19 31 0 0
BITMAP
02FBF80000
03FFFE0000
0BFFFF4000
0F5F2F8000
2FCB8FD000
0FE7DBF000
07F6F3F400
02FDFAF800
00FFFEFC00
007FFFF800
06FFFFFD00
1FD0007F80
3FD1551FE0
BFD3FF4FF0
FFD3FF4FF4
FFD3FF4FF8
FFD3FF1FF8
FFD000BFF8
FFD1542FF8
FFD3FF4FF8
FFD3FF4FF8
FFD3FF4FF8
FFD3FF4FF8
FFD3FF4FF8
FFFFFFFFF8
FFFFFFFFF8
FFFFFFFFF4
7FFFFFFFF0
2FFFFFFFD0
0BFFFFFF40
01BFFFE800
ENDCHAR
STARTCHAR uni0212
ENCODING 530
SWIDTH 578 0
DWIDTH 19 0
BBX 19 30 0 0
BITMAP
0001A94000
002FFFF400
00FFFFFD00
02FFFFFF40
03FFABFF80
03FD00BF80
03FC7C7F40
02FEFEBF00
00FFFFFD00
06FFFFFD00
1FD0007F80
3FD1551FE0
BFD3FF4FF0
FFD3FF4FF4
FFD3FF4FF8
FFD3FF1FF8
FFD000BFF8
FFD1542FF8
FFD3FF4FF8
FFD3FF4FF8
FFD3FF4FF8
FFD3FF4FF8
FFD3FF4FF8
FFFFFFFFF8
FFFFFFFFF8
FFFFFFFFF4
7FFFFFFFF0
2FFFFFFFD0
0BFFFFFF40
01BFFFE800
ENDCHAR
STARTCHAR uni0213
ENCODING 531
SWIDTH 578 0
DWIDTH 19 0
BBX 19 30 0 0
BITMAP
0001A94000
002FFFF400
00FFFFFD00
02FFFFFF40
03FFABFF80
03FD00BF80
03FC7C7F40
02FEFEBF00
00FFFFFD00
06FFFFFD00
1FD0007F80
3FD1551FE0
BFD3FF4FF0
FFD3FF4FF4
FFD3FF4FF8
FFD3FF1FF8
FFD000BFF8
FFD1542FF8
FFD3FF4FF8
FFD3FF4FF8
FFD3FF4FF8
FFD3FF4FF8
FFD3FF4FF8
FFFFFFFFF8
FFFFFFFFF8
FFFFFFFFF4
7FFFFFFFF0
2FFFFFFFD0
0BFFFFFF40
01BFFFE800
ENDCHAR
STARTCHAR uni0214
ENCODING 532
SWIDTH 578 0
DWIDTH 19 0
BBX 19 31 0 0
BITMAP
02FBF80000
03FFFE0000
0BFFFF4000
0F5F2F8000
2FCB8FD000
0FE7DBF000
07F6F3F400
02FDFAF800
00FFFEFC00
007FFFF800
06FFFFFD00
1FC7FFC780
3FC7FFC7E0
BFC7FFC7F0
FFC7FFC7F4
FFC7FFC7F8
FFC7FFC7F8
FFC7FFC7F8
FFC7FFC7F8
FFC7FFC7F8
FFC7FFC7F8
FFC7FFC7F8
FFD15507F8
FFF4001FF8
FFFFFFFFF8
FFFFFFFFF8
FFFFFFFFF4
7FFFFFFFF0
2FFFFFFFD0
0BFFFFFF40
01BFFFE800
ENDCHAR
STARTCHAR uni0215
ENCODING 533
SWIDTH 578 0
DWIDTH 19 0
BBX 19 31 0 0
BITMAP
02FBF80000
03FFFE0000
0BFFFF4000
0F5F2F8000
2FCB8FD000
0FE7DBF000
07F6F3F400
02FDFAF800
00FFFEFC00
007FFFF800
06FFFFFD00
1FC7FFC780
3FC7FFC7E0
BFC7FFC7F0
FFC7FFC7F4
FFC7FFC7F8
FFC7FFC7F8
FFC7FFC7F8
FFC7FFC7F8
FFC7FFC7F8
FFC7FFC7F8
FFC7FFC7F8
FFD15507F8
FFF4001FF8
FFFFFFFFF8
FFFFFFFFF8
FFFFFFFFF4
7FFFFFFFF0
2FFFFFFFD0
0BFFFFFF40
01BFFFE800
ENDCHAR
STARTCHAR uni0216
ENCODING 534
SWIDTH 578 0
DWIDTH 19 0
BBX 19 30 0 0
BITMAP
0001A94000
002FFFF400
00FFFFFD00
02FFFFFF40
03FFABFF80
03FD00BF80
03FC7C7F40
02FEFEBF00
00FFFFFD00
06FFFFFD00
1FC7FFC780
3FC7FFC7E0
BFC7FFC7F0
FFC7FFC7F4
FFC7FFC7F8
FFC7FFC7F8
FFC7FFC7F8
FFC7FFC7F8
FFC7FFC7F8
FFC7FFC7F8
FFC7FFC7F8
FFD15507F8
FFF4001FF8
FFFFFFFFF8
FFFFFFFFF8
FFFFFFFFF4
7FFFFFFFF0
2FFFFFFFD0
0BFFFFFF40
01BFFFE800
ENDCHAR
STARTCHAR uni0217
ENCODING 535
SWIDTH 578 0
DWIDTH 19 0
BBX 19 30 0 0
BITMAP
0001A94000
002FFFF400
00FFFFFD00
02FFFFFF40
03FFABFF80
03FD00BF80
03FC7C7F40
02FEFEBF00
00FFFFFD00
06FFFFFD00
1FC7FFC780
3FC7FFC7E0
BFC7FFC7F0
FFC7FFC7F4
FFC7FFC7F8
FFC7FFC7F8
FFC7FFC7F8
FFC7FFC7F8
FFC7FFC7F8
FFC7FFC7F8
FFC7FFC7F8
FFD15507F8
FFF4001FF8
FFFFFFFFF8
FFFFFFFFF8
FFFFFFFFF4
7FFFFFFFF0
2FFFFFFFD0
0BFFFFFF40
01BFFFE800
ENDCHAR
STARTCHAR uni0218
ENCODING 536
SWIDTH 578 0
DWIDTH 19 0
BBX 19 22 0 0
BITMAP
0015555000
06FFFFFD00
1FF4000F80
3FE0555FE0
BFD3FFFFF0
FFD3FFFFF4
FFD3FFFFF8
FFE1AABFF8
FFF4000BF8
FFFFAA87F8
FFFFFFC7F8
FFFFFFC7F8
FFFFFFC7F8
FFF5550BF8
FFF4001FF8
FFFFFFFFF8
FFFF83FFF8
FFFF83FFF4
7FFFE3FFF0
2FFFDBFFD0
0BFFFFFF40
01BFFFE800
ENDCHAR
STARTCHAR uni0219
ENCODING 537
SWIDTH 578 0
DWIDTH 19 0
BBX 19 22 0 0
BITMAP
0015555000
06FFFFFD00
1FF4000F80
3FE0555FE0
BFD3FFFFF0
FFD3FFFFF4
FFD3FFFFF8
FFE1AABFF8
FFF4000BF8
FFFFAA87F8
FFFFFFC7F8
FFFFFFC7F8
FFFFFFC7F8
FFF5550BF8
FFF4001FF8
FFFFFFFFF8
FFFF83FFF8
FFFF83FFF4
7FFFE3FFF0
2FFFDBFFD0
0BFFFFFF40
01BFFFE800
ENDCHAR
STARTCHAR uni021A
ENCODING 538
SWIDTH 578 0
DWIDTH 19 0
BBX 19 22 0 0
BITMAP
0015555000
06FFFFFD00
1FE0000780
3FE5415BE0
BFFFD3FFF0
FFFFD3FFF4
FFFFD3FFF8
FFFFD3FFF8
FFFFD3FFF8
FFFFD3FFF8
FFFFD3FFF8
FFFFD3FFF8
FFFFD3FFF8
FFFFD3FFF8
FFFFD3FFF8
FFFFFFFFF8
FFFFC2FFF8
FFFFC2FFF4
7FFFE2FFF0
2FFFE7FFD0
0BFFFFFF40
01BFFFE800
ENDCHAR
STARTCHAR uni021B
ENCODING 539
SWIDTH 578 0
DWIDTH 19 0
BBX 19 22 0 0
BITMAP
0015555000
06FFFFFD00
1FE0000780
3FE5415BE0
BFFFD3FFF0
FFFFD3FFF4
FFFFD3FFF8
FFFFD3FFF8
FFFFD3FFF8
FFFFD3FFF8
FFFFD3FFF8
FFFFD3FFF8
FFFFD3FFF8
FFFFD3FFF8
FFFFD3FFF8
FFFFFFFFF8
FFFFC2FFF8
FFFFC2FFF4
7FFFE2FFF0
2FFFE7FFD0
0BFFFFFF40
01BFFFE800
ENDCHAR
STARTCHAR circumflex
ENCODING 710
SWIDTH 355 0
DWIDTH 11 0
BBX 12 12 0 0
BITMAP
005400
03FF40
0BFFC0
1FEBE0
2F87F0
3F63F4
7F35F8
BE78FC
FDBCBD
FFFFFD
BFFFFC
155554
ENDCHAR
STARTCHAR caron
ENCODING 711
SWIDTH 355 0
DWIDTH 11 0
BBX 12 11 0 0
BITMAP
054150
7FEFF8
FFFFFD
FDBDBD
FD78FD
BE35FD
7F62FC
7F97F8
3FDBF4
2FFFF0
055550
ENDCHAR
STARTCHAR breve
ENCODING 728
SWIDTH 428 0
DWIDTH 14 0
BBX 14 10 0 0
BITMAP
00154000
06FFF800
2FFFFF40
7FFFFFC0
FFFFFFE0
FF6FAFE0
FF1A1FE0
BF807FD0
3FFFFF80
1FFFFE00
ENDCHAR
STARTCHAR dotaccent
ENCODING 729
SWIDTH 428 0
DWIDTH 14 0
BBX 14 10 0 0
BITMAP
00154000
06FFF800
2FFFFF40
7FFFFFC0
FFFFFFE0
FFE1FFE0
FFE1FFE0
BFFFFFD0
7FFFFFC0
2AAAAA40
ENDCHAR
STARTCHAR ring
ENCODING 730
SWIDTH 368 0
DWIDTH 12 0
BBX 12 10 0 0
BITMAP
01BE40
1FFFE0
3FFFF8
BE01FD
FD78BE
FDBD7E
FD68BE
FF41FE
BFFFFD
3FFFF8
ENDCHAR
STARTCHAR ogonek
ENCODING 731
SWIDTH 101 0
DWIDTH 3 0
BBX 4 5 0 -5
BITMAP
28
A0
D0
E8
6D
ENDCHAR
STARTCHAR tilde
ENCODING 732
SWIDTH 428 0
DWIDTH 14 0
BBX 14 11 0 0
BITMAP
00150000
02FFF400
1FFFFE00
3FFFFF80
BFFFFFD0
FFFFFFE0
FFBFAFE0
FD024FE0
BD741FD0
7FFFFFC0
1FFFFF40
ENDCHAR
STARTCHAR hungarumlaut
ENCODING 733
SWIDTH 419 0
DWIDTH 13 0
BBX 14 11 0 0
BITMAP
00BEBD00
02FFFF00
07FFFF40
0FE7CBC0
1FCB9FD0
3F5F2F80
BF3E7F40
FDBDFD00
FEFFF800
BFFFF000
15555000
ENDCHAR
STARTCHAR uni030F
ENCODING 783
SWIDTH 419 0
DWIDTH 13 0
BBX 14 11 0 0
BITMAP
0FEFD000
1FFFF400
3FFFF800
BCB8FD00
FE3DBF00
7F6F3F40
2FCF9FC0
0FEBDFD0
07FBFFD0
02FFFFD0
00555540
ENDCHAR
STARTCHAR mu
ENCODING 956
SWIDTH 578 0
DWIDTH 19 0
BBX 19 22 0 0
BITMAP
0015555000
06FFFFFD00
1FC7FFC780
3FC7FFC7E0
BFC7FFC7F0
FFC7FFC7F4
FFC7FFC7F8
FFC7FFC7F8
FFC7FFC7F8
FFC7FFC7F8
FFC7FFC7F8
FFC7FFC7F8
FFC7FFC7F8
FFC15507F8
FFC0001FF8
FFC7FFFFF8
FFFFFFFFF8
FFFFFFFFF4
7FFFFFFFF0
2FFFFFFFD0
0BFFFFFF40
01BFFFE800
ENDCHAR
STARTCHAR pi
ENCODING 960
SWIDTH 578 0
DWIDTH 19 0
BBX 19 22 0 0
BITMAP
0015555000
06FFFFFD00
1FF901BF80
3FD2FE4BE0
BF1E56E2F0
FD7868B8F4
F8F8FDBDB8
F5F9FD7E78
F6F5FD7F38
F6F4007F38
F6F6FE3F38
F9F2FE3E78
FCB2FE3CB8
FE3BFFB5F8
FF4BFFD7F8
FFE1A91FF8
FFFE56FFF8
FFFFFFFFF4
7FFFFFFFF0
2FFFFFFFD0
0BFFFFFF40
01BFFFE800
ENDCHAR
STARTCHAR uni1E60
ENCODING 7776
SWIDTH 578 0
DWIDTH 19 0
BBX 19 30 0 0
BITMAP
0000550000
000BFFE400
007FFFFE00
00FFFFFF40
02FFFFFFC0
02FFC2FFC0
02FFC2FFC0
01FFFFFFC0
00FFFFFF40
06FFFFFF00
1FF4000F80
3FE0555FE0
BFD3FFFFF0
FFD3FFFFF4
FFD3FFFFF8
FFE1AABFF8
FFF4000BF8
FFFFAA87F8
FFFFFFC7F8
FFFFFFC7F8
FFFFFFC7F8
FFF5550BF8
FFF4001FF8
FFFFFFFFF8
FFFFFFFFF8
FFFFFFFFF4
7FFFFFFFF0
2FFFFFFFD0
0BFFFFFF40
01BFFFE800
ENDCHAR
STARTCHAR uni1E8E
ENCODING 7822
SWIDTH 578 0
DWIDTH 19 0
BBX 19 30 0 0
BITMAP
0000550000
001BFFE400
007FFFFD00
01FFFFFF40
02FFFFFF80
03FFC3FFC0
03FFC3FFC0
02FFFFFF80
01FFFFFF40
06FFFFFF00
1FD2FF8780
3FF1FF4FE0
BFF4FE1FF0
FFF87D2FF4
FFFC3C7FF8
FFFE28BFF8
FFFF10FFF8
FFFF41FFF8
FFFF83FFF8
FFFFC7FFF8
FFFFC7FFF8
FFFFC7FFF8
FFFFD7FFF8
FFFFFFFFF8
FFFFFFFFF8
FFFFFFFFF4
7FFFFFFFF0
2FFFFFFFD0
0BFFFFFF40
01BFFFE800
ENDCHAR
STARTCHAR uni1E8F
ENCODING 7823
SWIDTH 578 0
DWIDTH 19 0
BBX 19 30 0 0
BITMAP
0000550000
001BFFE400
007FFFFD00
01FFFFFF40
02FFFFFF80
03FFC3FFC0
03FFC3FFC0
02FFFFFF80
01FFFFFF40
06FFFFFF00
1FD2FF8780
3FF1FF4FE0
BFF4FE1FF0
FFF87D2FF4
FFFC3C7FF8
FFFE28BFF8
FFFF10FFF8
FFFF41FFF8
FFFF83FFF8
FFFFC7FFF8
FFFFC7FFF8
FFFFC7FFF8
FFFFD7FFF8
FFFFFFFFF8
FFFFFFFFF8
FFFFFFFFF4
7FFFFFFFF0
2FFFFFFFD0
0BFFFFFF40
01BFFFE800
ENDCHAR
STARTCHAR uni1EBC
ENCODING 7868
SWIDTH 578 0
DWIDTH 19 0
BBX 19 31 0 0
BITMAP
0000140000
000BFFE000
003FFFFD00
00FFFFFF00
01FFFFFF80
02FFFFFF80
03FFFFBFC0
02F8092FC0
02F4E03F80
00FFFFFF40
06FFFFFF00
1FF4000F80
3FF4555FE0
BFF4FFFFF0
FFF4FFFFF4
FFF4FFFFF8
FFF4AABFF8
FFF4003FF8
FFF4AABFF8
FFF4FFFFF8
FFF4FFFFF8
FFF4FFFFF8
FFF4555FF8
FFF4000FF8
FFFFFFFFF8
FFFFFFFFF8
FFFFFFFFF4
7FFFFFFFF0
2FFFFFFFD0
0BFFFFFF40
01BFFFE800
ENDCHAR
STARTCHAR uni1EF8
ENCODING 7928
SWIDTH 578 0
DWIDTH 19 0
BBX 19 31 0 0
BITMAP
0000140000
000BFFE000
007FFFFC00
00FFFFFF00
01FFFFFF40
02FFFFFF80
03FEFFBFC0
03F8092F80
02F4D03F80
00FFFFFF00
06FFFFFE00
1FD2FF8780
3FF1FF4FE0
BFF4FE1FF0
FFF87D2FF4
FFFC3C7FF8
FFFE28BFF8
FFFF10FFF8
FFFF41FFF8
FFFF83FFF8
FFFFC7FFF8
FFFFC7FFF8
FFFFC7FFF8
FFFFD7FFF8
FFFFFFFFF8
FFFFFFFFF8
FFFFFFFFF4
7FFFFFFFF0
2FFFFFFFD0
0BFFFFFF40
01BFFFE800
ENDCHAR
STARTCHAR uni1EF9
ENCODING 7929
SWIDTH 578 0
DWIDTH 19 0
BBX 19 31 0 0
BITMAP
0000140000
000BFFE000
007FFFFC00
00FFFFFF00
01FFFFFF40
02FFFFFF80
03FEFFBFC0
03F8092F80
02F4D03F80
00FFFFFF00
06FFFFFE00
1FD2FF8780
3FF1FF4FE0
BFF4FE1FF0
FFF87D2FF4
FFFC3C7FF8
FFFE28BFF8
FFFF10FFF8
FFFF41FFF8
FFFF83FFF8
FFFFC7FFF8
FFFFC7FFF8
FFFFC7FFF8
FFFFD7FFF8
FFFFFFFFF8
FFFFFFFFF8
FFFFFFFFF4
7FFFFFFFF0
2FFFFFFFD0
0BFFFFFF40
01BFFFE800
ENDCHAR
STARTCHAR endash
ENCODING 8211
SWIDTH 428 0
DWIDTH 14 0
BBX 14 22 0 0
BITMAP
00154000
06FFF800
1FFFFF00
3FFFFF80
BFFFFFD0
FFFFFFE0
FF001FE0
FF555FE0
FFFFFFE0
FFFFFFE0
FFFFFFE0
FFFFFFE0
FFFFFFE0
FFFFFFE0
FFFFFFE0
FFFFFFE0
FFFFFFE0
FFFFFFE0
7FFFFFD0
2FFFFF80
0BFFFE00
01BFE000
ENDCHAR
STARTCHAR emdash
ENCODING 8212
SWIDTH 428 0
DWIDTH 14 0
BBX 14 22 0 0
BITMAP
00154000
06FFF800
1FFFFF00
3FFFFF80
BFFFFFD0
FFFFFFE0
00000000
55555550
FFFFFFE0
FFFFFFE0
FFFFFFE0
FFFFFFE0
FFFFFFE0
FFFFFFE0
FFFFFFE0
FFFFFFE0
FFFFFFE0
FFFFFFE0
7FFFFFD0
2FFFFF80
0BFFFE00
01BFE000
ENDCHAR
STARTCHAR quoteleft
ENCODING 8216
SWIDTH 428 0
DWIDTH 14 0
BBX 14 22 0 0
BITMAP
00154000
06FFF800
1FF9FF00
3FF2FF80
BFE0BFD0
FFE0BFE0
FFFFFFE0
FFFFFFE0
FFFFFFE0
FFFFFFE0
FFFFFFE0
FFFFFFE0
FFFFFFE0
FFFFFFE0
FFFFFFE0
FFFFFFE0
FFFFFFE0
FFFFFFE0
7FFFFFD0
2FFFFF80
0BFFFE00
01BFE000
ENDCHAR
STARTCHAR quoteright
ENCODING 8217
SWIDTH 428 0
DWIDTH 14 0
BBX 14 22 0 0
BITMAP
00154000
06FFF800
1FE0BF00
3FE0BF80
BFF8FFD0
FFF6FFE0
FFFFFFE0
FFFFFFE0
FFFFFFE0
FFFFFFE0
FFFFFFE0
FFFFFFE0
FFFFFFE0
FFFFFFE0
FFFFFFE0
FFFFFFE0
FFFFFFE0
FFFFFFE0
7FFFFFD0
2FFFFF80
0BFFFE00
01BFE000
ENDCHAR
STARTCHAR quotesinglbase
ENCODING 8218
SWIDTH 428 0
DWIDTH 14 0
BBX 14 22 0 0
BITMAP
00154000
06FFF800
1FFFFF00
3FFFFF80
BFFFFFD0
FFFFFFE0
FFFFFFE0
FFFFFFE0
FFFFFFE0
FFFFFFE0
FFFFFFE0
FFFFFFE0
FFFFFFE0
FFE0BFE0
FFF0BFE0
FFF8FFE0
FFFAFFE0
FFFFFFE0
7FFFFFD0
2FFFFF80
0BFFFE00
01BFE000
ENDCHAR
STARTCHAR quotedblleft
ENCODING 8220
SWIDTH 428 0
DWIDTH 14 0
BBX 14 22 0 0
BITMAP
00154000
06FFF800
1FCF7F00
3F5D7F80
BF442FD0
FF442FE0
FFFFFFE0
FFFFFFE0
FFFFFFE0
FFFFFFE0
FFFFFFE0
FFFFFFE0
FFFFFFE0
FFFFFFE0
FFFFFFE0
FFFFFFE0
FFFFFFE0
FFFFFFE0
7FFFFFD0
2FFFFF80
0BFFFE00
01BFE000
ENDCHAR
STARTCHAR quotedblright
ENCODING 8221
SWIDTH 428 0
DWIDTH 14 0
BBX 14 22 0 0
BITMAP
00154000
06FFF800
1F811F00
3F811F80
BFD75FD0
FFDB7FE0
FFFFFFE0
FFFFFFE0
FFFFFFE0
FFFFFFE0
FFFFFFE0
FFFFFFE0
FFFFFFE0
FFFFFFE0
FFFFFFE0
FFFFFFE0
FFFFFFE0
FFFFFFE0
7FFFFFD0
2FFFFF80
0BFFFE00
01BFE000
ENDCHAR
STARTCHAR quotedblbase
ENCODING 8222
SWIDTH 428 0
DWIDTH 14 0
BBX 14 22 0 0
BITMAP
00154000
06FFF800
1FFFFF00
3FFFFF80
BFFFFFD0
FFFFFFE0
FFFFFFE0
FFFFFFE0
FFFFFFE0
FFFFFFE0
FFFFFFE0
FFFFFFE0
FFFFFFE0
FF811FE0
FF811FE0
FFD75FE0
FFDB7FE0
FFFFFFE0
7FFFFFD0
2FFFFF80
0BFFFE00
01BFE000
ENDCHAR
STARTCHAR dagger
ENCODING 8224
SWIDTH 578 0
DWIDTH 19 0
BBX 19 22 0 0
BITMAP
0015555000
06FFFFFD00
1FFFD3FF80
3FFFD3FFE0
BFFE82BFF0
FFFD003FF4
FFFE92BFF8
FFFFD3FFF8
FFFFD3FFF8
FFFFD3FFF8
FFFFD3FFF8
FFFFD3FFF8
FFFFD3FFF8
FFFFD3FFF8
FFFFD3FFF8
FFFFFFFFF8
FFFFFFFFF8
FFFFFFFFF4
7FFFFFFFF0
2FFFFFFFD0
0BFFFFFF40
01BFFFE800
ENDCHAR
STARTCHAR daggerdbl
ENCODING 8225
SWIDTH 578 0
DWIDTH 19 0
BBX 19 22 0 0
BITMAP
0015555000
06FFFFFD00
1FFFD3FF80
3FFFD3FFE0
BFFE82BFF0
FFFD003FF4
FFFE92BFF8
FFFFD3FFF8
FFFFD3FFF8
FFFFD3FFF8
FFFFD3FFF8
FFFD003FF8
FFFD417FF8
FFFFD3FFF8
FFFFD3FFF8
FFFFFFFFF8
FFFFFFFFF8
FFFFFFFFF4
7FFFFFFFF0
2FFFFFFFD0
0BFFFFFF40
01BFFFE800
ENDCHAR
STARTCHAR bullet
ENCODING 8226
SWIDTH 578 0
DWIDTH 19 0
BBX 19 22 0 0
BITMAP
0015555000
06FFFFFD00
1FFFFFFF80
3FFE56BFE0
BFF0001FF0
FFD0000BF4
FFC00007F8
FFC00007F8
FFC00007F8
FFC00007F8
FFC00007F8
FFC00007F8
FFD0000BF8
FFF4002FF8
FFFFAAFFF8
FFFFFFFFF8
FFFFFFFFF8
FFFFFFFFF4
7FFFFFFFF0
2FFFFFFFD0
0BFFFFFF40
01BFFFE800
ENDCHAR
STARTCHAR ellipsis
ENCODING 8230
SWIDTH 578 0
DWIDTH 19 0
BBX 19 22 0 0
BITMAP
0015555000
06FFFFFD00
1FFFFFFF80
3FFFFFFFE0
BFFFFFFFF0
FFFFFFFFF4
FFFFFFFFF8
FFFFFFFFF8
FFFFFFFFF8
FFFFFFFFF8
FFFFFFFFF8
FFFFFFFFF8
FFFFFFFFF8
FF0F0F0FF8
FF0F0F0FF8
FFFFFFFFF8
FFFFFFFFF8
FFFFFFFFF4
7FFFFFFFF0
2FFFFFFFD0
0BFFFFFF40
01BFFFE800
ENDCHAR
STARTCHAR perthousand
ENCODING 8240
SWIDTH 640 0
DWIDTH 20 0
BBX 21 22 0 0
BITMAP
001555550000
06FFFFFFD000
1FFFFFFFF800
201F1FFFFE00
914A1FFFFF00
D3892FFFFF40
D1493FFFFF80
F01C7FFFFF80
FFF8BFFFFF80
FFF4D07E0780
FFF181181180
FFE28B48B480
FFD386186080
FFD7D02D0280
FFFFFAFFAF80
FFFFFFFFFF80
FFFFFFFFFF80
FFFFFFFFFF40
7FFFFFFFFF00
2FFFFFFFFD00
0BFFFFFFF400
01BFFFFE8000
ENDCHAR
STARTCHAR guilsinglleft
ENCODING 8249
SWIDTH 578 0
DWIDTH 19 0
BBX 19 22 0 0
BITMAP
0015555000
06FFFFFD00
1FFFFFFF80
3FFFFEFFE0
BFFFF8BFF0
FFFFF1FFF4
FFFFD7FFF8
FFFF4FFFF8
FFFE2FFFF8
FFFC7FFFF8
FFFE2FFFF8
FFFF4FFFF8
FFFFC7FFF8
FFFFE1FFF8
FFFFF8BFF8
FFFFFDFFF8
FFFFFFFFF8
FFFFFFFFF4
7FFFFFFFF0
2FFFFFFFD0
0BFFFFFF40
01BFFFE800
ENDCHAR
STARTCHAR guilsinglright
ENCODING 8250
SWIDTH 578 0
DWIDTH 19 0
BBX 19 22 0 0
BITMAP
0015555000
06FFFFFD00
1FFFFFFF80
3FFEBFFFE0
BFFD3FFFF0
FFFF5FFFF4
FFFF8BFFF8
FFFFE2FFF8
FFFFF4FFF8
FFFFF8BFF8
FFFFF4FFF8
FFFFE2FFF8
FFFFC7FFF8
FFFF5FFFF8
FFFE3FFFF8
FFFEBFFFF8
FFFFFFFFF8
FFFFFFFFF4
7FFFFFFFF0
2FFFFFFFD0
0BFFFFFF40
01BFFFE800
ENDCHAR
STARTCHAR fraction
ENCODING 8260
SWIDTH 428 0
DWIDTH 14 0
BBX 14 22 0 0
BITMAP
00154000
06FFF800
1FFC7F00
3FF87F80
BFF8BFD0
FFF4BFE0
FFF4FFE0
FFF0FFE0
FFF1FFE0
FFE1FFE0
FFE2FFE0
FFD2FFE0
FFD3FFE0
FFC3FFE0
FFC7FFE0
FFFFFFE0
FFFFFFE0
FFFFFFE0
7FFFFFD0
2FFFFF80
0BFFFE00
01BFE000
ENDCHAR
STARTCHAR Euro
ENCODING 8364
SWIDTH 578 0
DWIDTH 19 0
BBX 19 22 0 0
BITMAP
0015555000
06FFFFFD00
1FE0003F80
3FC1557FE0
BFC7FFFFF0
FFC7FFFFF4
FD000BFFF8
FE455BFFF8
FFC7FFFFF8
FC000BFFF8
FE46AFFFF8
FFC7FFFFF8
FFC7FFFFF8
FFC1553FF8
FFE4007FF8
FFFFFFFFF8
FFFFFFFFF8
FFFFFFFFF4
7FFFFFFFF0
2FFFFFFFD0
0BFFFFFF40
01BFFFE800
ENDCHAR
STARTCHAR trademark
ENCODING 8482
SWIDTH 578 0
DWIDTH 19 0
BBX 19 22 0 0
BITMAP
0015555000
06FFFFFD00
1FFFFFFF80
3FFFFFFFE0
BFFFFFFFF0
FFFFFFFFF4
FFFFFFFFF8
FF959F6FF8
FF928A1FF8
FFE7801FF8
FFE7905FF8
FFE7996FF8
FFFFFFFFF8
FFFFFFFFF8
FFFFFFFFF8
FFFFFFFFF8
FFFFFFFFF8
FFFFFFFFF4
7FFFFFFFF0
2FFFFFFFD0
0BFFFFFF40
01BFFFE800
ENDCHAR
STARTCHAR product
ENCODING 8719
SWIDTH 578 0
DWIDTH 19 0
BBX 19 22 0 0
BITMAP
0015555000
06FFFFFD00
1FF901BF80
3FD2FE4BE0
BF1FFFE2F0
FD7C0078F4
F8FCBE3DB8
F5FCBF2E78
F6FCBF2F38
F6FC6A3F38
F6FC15BF38
F9FCBFFE78
FCBCBFFCB8
FE3CBFF5F8
FF4BFFD7F8
FFE1A91FF8
FFFE56FFF8
FFFFFFFFF4
7FFFFFFFF0
2FFFFFFFD0
0BFFFFFF40
01BFFFE800
ENDCHAR
STARTCHAR minus
ENCODING 8722
SWIDTH 428 0
DWIDTH 14 0
BBX 14 22 0 0
BITMAP
00154000
06FFF800
1FFFFF00
3FFFFF80
BFFFFFD0
FFFFFFE0
FF001FE0
FF555FE0
FFFFFFE0
FFFFFFE0
FFFFFFE0
FFFFFFE0
FFFFFFE0
FFFFFFE0
FFFFFFE0
FFFFFFE0
FFFFFFE0
FFFFFFE0
7FFFFFD0
2FFFFF80
0BFFFE00
01BFE000
ENDCHAR
STARTCHAR notequal
ENCODING 8800
SWIDTH 578 0
DWIDTH 19 0
BBX 19 22 0 0
BITMAP
0015555000
06FFFFFD00
1FFFFFFF80
3FFFF9FFE0
BFFFF1FFF0
FFD5406FF4
FFD5016FF8
FFFF4FFFF8
FFD5056FF8
FFC0001FF8
FFFC7FFFF8
FFF9BFFFF8
FFFFFFFFF8
FFFFFFFFF8
FFFFFFFFF8
FFFFFFFFF8
FFFFFFFFF8
FFFFFFFFF4
7FFFFFFFF0
2FFFFFFFD0
0BFFFFFF40
01BFFFE800
ENDCHAR
STARTCHAR uni2706
ENCODING 9990
SWIDTH 578 0
DWIDTH 19 0
BBX 19 22 0 0
BITMAP
0015555000
06FFEFFD00
1FFFD7FF80
3FFFA9BFE0
BFFFE77FF0
FFFA6A7FF4
FFE4C96FF8
FFD47EAFF8
FFD17FFFF8
FFD1FFFFF8
FFE0FFFFF8
FFF0BFFFF8
FFF82FFFF8
FFFD087FF8
FFFF412FF8
FFFFE06FF8
FFFFFFFFF8
FFFFFFFFF4
7FFFFFFFF0
2FFFFFFFD0
0BFFFFFF40
01BFFFE800
ENDCHAR
STARTCHAR uni2708
ENCODING 9992
SWIDTH 578 0
DWIDTH 19 0
BBX 19 22 0 0
BITMAP
0015555000
0695555900
1802460180
2000BD0060
8000340020
8000300014
80A0302808
802E76E008
800BFF8008
8001FD0008
8000740008
8000740008
8000340008
8000300008
8000200008
8000000008
8000000008
8000B80014
5000FC0020
2000B80090
0900000640
01AAAAA800
ENDCHAR
STARTCHAR uniF6D6
ENCODING 63190
SWIDTH 419 0
DWIDTH 13 0
BBX 14 11 0 0
BITMAP
0FEFD000
1FFFF400
3FFFF800
BCB8FD00
FE3DBF00
7F6F3F40
2FCF9FC0
0FEBDFD0
07FBFFD0
02FFFFD0
00555540
ENDCHAR
STARTCHAR uFFFF2
ENCODING 1048562
SWIDTH 578 0
DWIDTH 19 0
BBX 19 22 0 0
BITMAP
0015555000
0695555900
1800200180
2000300060
8000340020
8000740014
8000740008
8000FD0008
8007FF4008
801F7BD008
8074307408
8040300408
8000300008
8000B80008
80029A0008
8000000008
8000000008
8000B80014
5000FC0020
2000B80090
0900000640
01AAAAA800
ENDCHAR
STARTCHAR uFFFF3
ENCODING 1048563
SWIDTH 578 0
DWIDTH 19 0
BBX 19 22 0 0
BITMAP
0015555000
0695555900
1800100180
2000280060
80002E0020
80052A8014
800B69E008
8002FB8008
8000BE0008
80007D0008
8001FF0008
8007ABC008
800E29E008
80042B8008
80002E0008
8000280008
8000100008
8000000014
5000000020
2000000090
0900000640
01AAAAA800
ENDCHAR
STARTCHAR uFFFF4
ENCODING 1048564
SWIDTH 578 0
DWIDTH 19 0
BBX 19 22 0 0
BITMAP
0015555000
06FFFFFD00
1FFFFFFF80
3FFFDFFFE0
BFFFCBFFF0
FFF9CA7FF4
FFE2CB5FF8
FFCBCBCBF8
FFCFCBD7F8
FF8FEFD7F8
FFCFFFD7F8
FFD7FF8BF8
FFE1FE1FF8
FFF8007FF8
FFFFABFFF8
FFFFFFFFF8
FFFFFFFFF8
FFFFFFFFF4
7FFFFFFFF0
2FFFFFFFD0
0BFFFFFF40
01BFFFE800
ENDCHAR
STARTCHAR uFFFF5
ENCODING 1048565
SWIDTH 578 0
DWIDTH 19 0
BBX 19 22 0 0
BITMAP
0015555000
06FFFFFD00
1FFDB9FF80
3FFF42FFE0
BFFFCBFFF0
FFFFCFFFF4
FF5FCFD7F8
FFD1891FF8
FFF4007FF8
FFFE02FFF8
FFFF8BFFF8
FFFF8BFFF8
FFFFCBFFF8
FFFFCFFFF8
FFFFDFFFF8
FFFFFFFFF8
FFFFFFFFF8
FFFF47FFF4
7FFF03FFF0
2FFF47FFD0
0BFFFFFF40
01BFFFE800
ENDCHAR
STARTCHAR uFFFF6
ENCODING 1048566
SWIDTH 578 0
DWIDTH 19 0
BBX 19 22 0 0
BITMAP
0015555000
06FFFFFD00
1FFFDFFF80
3FFFCFFFE0
BFFFCBFFF0
FFFF8BFFF4
FFFF8BFFF8
FFFF02FFF8
FFF800BFF8
FFE0882FF8
FF8BCF8BF8
FFBFCFFBF8
FFFFCFFFF8
FFFF47FFF8
FFFD65FFF8
FFFFFFFFF8
FFFFFFFFF8
FFFF47FFF4
7FFF03FFF0
2FFF47FFD0
0BFFFFFF40
01BFFFE800
ENDCHAR
STARTCHAR uFFFF8
ENCODING 1048568
SWIDTH 578 0
DWIDTH 19 0
BBX 19 22 0 0
BITMAP
0015555000
06FFFFFD00
1FFFFFFF80
3FFF5BFFE0
BFFD65FFF0
FFFD55FFF4
FFFD01FFF8
FFF0707FF8
FFE6167FF8
FFDB8B9FF8
FFC7474FF8
FFC0000FF8
FFC0001FF8
FFD0002FF8
FFF0007FF8
FFFD01FFF8
FFFFFFFFF8
FFFF47FFF4
7FFE03FFF0
2FFF47FFD0
0BFFFFFF40
01BFFFE800
ENDCHAR
STARTCHAR uFFFF9
ENCODING 1048569
SWIDTH 578 0
DWIDTH 19 0
BBX 19 22 0 0
BITMAP
0015555000
0695555900
1800000180
2000200060
8000340020
8006358014
801D34A008
8034343408
8030342808
8070102808
8030002808
8028007408
801E01E008
8007FF8008
8000540008
8000000008
8000000008
8000000014
5000000020
2000000090
0900000640
01AAAAA800
ENDCHAR
STARTCHAR uFFFFB
ENCODING 1048571
SWIDTH 578 0
DWIDTH 19 0
BBX 19 22 0 0
BITMAP
0015555000
06FFFFFD00
1FFF9FFF80
3FFF87FFE0
BFFF85FFF0
FFD28C7FF4
FFF0887FF8
FFFC01FFF8
FFFF07FFF8
FFFE03FFF8
FFF801FFF8
FFE1887FF8
FFE7887FF8
FFFF81FFF8
FFFF87FFF8
FFFFAFFFF8
FFFFFFFFF8
FFFFFFFFF4
7FFFFFFFF0
2FFFFFFFD0
0BFFFFFF40
01BFFFE800
ENDCHAR
STARTCHAR uFFFFC
ENCODING 1048572
SWIDTH 578 0
DWIDTH 19 0
BBX 19 22 0 0
BITMAP
0015555000
06FFFFFD00
1FFFAAFF80
3FE0001FE0
BE06BA42F0
FC2E56E4B4
FEE0542EF8
FF8BFF87F8
FFF901BFF8
FFF1B93FF8
FFFFDBBFF8
FFFF43FFF8
FFFF87FFF8
FFFFFFFFF8
FFFFFFFFF8
FFFFFFFFF8
FFFFFFFFF8
FFFFFFFFF4
7FFFFFFFF0
2FFFFFFFD0
0BFFFFFF40
01BFFFE800
ENDCHAR
STARTCHAR uFFFFD
ENCODING 1048573
SWIDTH 578 0
DWIDTH 19 0
BBX 19 22 0 0
BITMAP
0015555000
06FFFFFD00
1FFFFFFF80
3FFD01FFE0
BFF0007FF0
FFD0001FF4
FFC0001FF8
FFC0000FF8
FFC7474FF8
FFDB8B9FF8
FFE6167FF8
FFF0707FF8
FFFD01FFF8
FFFD55FFF8
FFFD65FFF8
FFFF5BFFF8
FFFFFFFFF8
FFFF47FFF4
7FFE03FFF0
2FFF47FFD0
0BFFFFFF40
01BFFFE800
ENDCHAR
STARTCHAR uFFFFE
ENCODING 1048574
SWIDTH 578 0
DWIDTH 19 0
BBX 19 22 0 0
BITMAP
0015555000
06FFFFFD00
1FFFFFFF80
3E55B956E0
BC6931A4F0
FCBF23F8F4
FCBF23F8F8
FE1473F8F8
FD6933F8F8
FCBF23F8F8
FCBF23F8F8
FC553154F8
FE55B956F8
FFFFFFFFF8
FFFFFFFFF8
FFFFFFFFF8
FFFFFFFFF8
FFFFFFFFF4
7FFFFFFFF0
2FFFFFFFD0
0BFFFFFF40
01BFFFE800
ENDCHAR
STARTCHAR uFFFFF
ENCODING 1048575
SWIDTH 578 0
DWIDTH 19 0
BBX 19 22 0 0
BITMAP
0015555000
0695555900
1800000180
2002FE0060
800FFF8020
802FFFE014
803FFFE008
803FFFF008
8038B8B008
8024746008
8019E98008
800F8F8008
8002FE0008
8002AA0008
80029A0008
8000A40008
8000000008
8000B80014
5001FC0020
2000B80090
0900000640
01AAAAA800
ENDCHAR
STARTCHAR .notdef
ENCODING -1
SWIDTH 1000 0
DWIDTH 32 0
BBX 1 1 0 0
BITMAP
00
ENDCHAR
STARTCHAR glyph1
ENCODING -1
SWIDTH 0 0
DWIDTH 0 0
BBX 1 1 0 0
BITMAP
00
ENDCHAR
ENDFONT
